<svg width="88" height="88" viewBox="0 0 88 88" fill="none" xmlns="http://www.w3.org/2000/svg">
    <path d="M44 8.25C24.202 8.25 8.25 24.202 8.25 44c0 19.798 15.952 35.75 35.75 35.75 19.798 0 35.75-15.952 35.75-35.75 0-3.846-.516-7.68-1.89-11.258l-4.47 4.383c.549 2.202.86 4.404.86 6.875 0 16.78-13.47 30.25-30.25 30.25A30.157 30.157 0 0 1 13.75 44c0-16.78 13.47-30.25 30.25-30.25 8.25 0 15.662 3.287 20.883 8.508l3.867-3.867C62.423 12.064 53.625 8.25 44 8.25zm31.023 11.773L44 51.047 32.227 39.273l-3.954 3.954 13.75 13.75L44 58.867l1.977-1.89 33-33-3.954-3.954z" fill="#913AFF"/>
</svg>
