<svg width="24" height="24" viewBox="0 0 24 24" fill="none" xmlns="http://www.w3.org/2000/svg">
<path fill-rule="evenodd" clip-rule="evenodd" d="M12 4.00061C10.3971 4.00061 9.09766 5.30005 9.09766 6.90299C9.09766 8.50593 10.3971 9.80537 12 9.80537C13.603 9.80537 14.9024 8.50593 14.9024 6.90299C14.9024 5.30005 13.603 4.00061 12 4.00061ZM7.09766 6.90299C7.09766 4.19548 9.29253 2.00061 12 2.00061C14.7075 2.00061 16.9024 4.19548 16.9024 6.90299C16.9024 9.6105 14.7075 11.8054 12 11.8054C9.29253 11.8054 7.09766 9.6105 7.09766 6.90299Z" fill="#AB40FF"/>
<path fill-rule="evenodd" clip-rule="evenodd" d="M9.51784 15.3904C6.47035 15.3904 4 17.8607 4 20.9082V20.9993C4 21.5516 3.55228 21.9993 3 21.9993C2.44772 21.9993 2 21.5516 2 20.9993V20.9082C2 16.7562 5.36578 13.3904 9.51784 13.3904H14.4822C18.6342 13.3904 22 16.7562 22 20.9082V20.9993C22 21.5516 21.5523 21.9993 21 21.9993C20.4477 21.9993 20 21.5516 20 20.9993V20.9082C20 17.8607 17.5296 15.3904 14.4822 15.3904H9.51784Z" fill="#AB40FF"/>
</svg>
