<svg width="76" height="87" viewBox="0 0 76 87" fill="none" xmlns="http://www.w3.org/2000/svg">
    <path d="M48.228 30.601a46.205 46.205 0 0 0-9.539 7.57c-6.351 6.612-9.314 13.643-10.709 17.766a53.12 53.12 0 0 0 7.06-2.417 51.39 51.39 0 0 0 14.65-9.485c7.714-7.1 11.451-14.86 13.154-19.16A48.21 48.21 0 0 0 48.228 30.6z" fill="#FEF08A"/>
    <path d="M1.897 55.242a1.749 1.749 0 0 1 1.154-2.141l6.939-2.053c.894-.261 1.841.261 2.116 1.165a1.747 1.747 0 0 1-1.153 2.142l-6.937 2.053a1.53 1.53 0 0 1-.484.07c-.74 0-1.41-.488-1.635-1.236zm13.706-41.955-3.254-8.598c-.327-.887.102-1.88.98-2.21a1.676 1.676 0 0 1 2.188.992l3.253 8.598c.328.885-.104 1.878-.98 2.208a1.974 1.974 0 0 1-.604.122 1.696 1.696 0 0 1-1.583-1.112zm37.961-1.794c-.79-.504-1.015-1.584-.515-2.366l3.667-5.761c.5-.8 1.567-1.025 2.341-.52.792.504 1.015 1.582.518 2.366l-3.668 5.759a1.714 1.714 0 0 1-1.43.784c-.309.016-.62-.071-.913-.262zM43.287 49.064c.327 0 .654-.087.947-.295.774-.523.98-1.601.465-2.386-1.292-1.949-4.046-5.393-7.852-6.508-4.51-1.305-8.728-.069-12.809 1.115-1.1.314-2.134.626-3.185.869-2.29.557-4.7.993-6.68.348-2.151-.695-3.995-2.54-5.51-4.263a1.68 1.68 0 0 0-2.393-.14 1.723 1.723 0 0 0-.138 2.42c1.826 2.07 4.08 4.316 7.007 5.256 2.773.887 5.734.383 8.506-.296a67.73 67.73 0 0 0 3.322-.922c3.788-1.098 7.353-2.142 10.934-1.114 2.032.591 4.2 2.453 5.974 5.116.327.52.86.8 1.412.8z" fill="#A7F3D0"/>
    <path d="M18.65 64.065a1.726 1.726 0 0 1-1.292-2.053l.947-4.229a1.72 1.72 0 0 1 2.032-1.305 1.725 1.725 0 0 1 1.29 2.053l-.947 4.229c-.17.8-.876 1.34-1.653 1.34a.92.92 0 0 1-.377-.035zM.4 33.646a1.724 1.724 0 0 1 .207-2.419 11.636 11.636 0 0 1 5.802-2.662c3.081-.487 5.595.4 6.817.974a1.73 1.73 0 0 1 .826 2.28c-.395.853-1.412 1.236-2.255.835a8.442 8.442 0 0 0-4.872-.695 8.287 8.287 0 0 0-4.133 1.914c-.309.278-.704.4-1.083.4-.5 0-.981-.21-1.308-.627zm49.29 12.111c.518 0 1.018-.224 1.345-.66a1.728 1.728 0 0 0-.311-2.401c-3.374-2.647-5.509-5.57-6.301-8.701-.947-3.724.07-7.031 1.153-10.528 1.172-3.812 2.514-8.128 1.172-13.226-.81-3.116-2.462-6.004-4.891-8.58-.654-.678-1.721-.712-2.392-.052-.672.663-.706 1.74-.052 2.42 2.033 2.158 3.409 4.54 4.063 7.081 1.085 4.142 0 7.64-1.136 11.33-1.171 3.81-2.393 7.744-1.205 12.406.999 3.899 3.528 7.449 7.523 10.563.31.245.672.348 1.033.348z" fill="#C4B5FD"/>
    <path d="M61.191 19.898c-.206-.922.364-1.844 1.274-2.052l5.304-1.218a1.698 1.698 0 0 1 2.033 1.287c.204.922-.363 1.846-1.276 2.054l-5.302 1.218c-.12.034-.26.034-.38.034-.774 0-1.48-.538-1.653-1.323zm-11.5 24.155A51.617 51.617 0 0 0 58.85 32.9a54.556 54.556 0 0 0 3.993-7.988l8.765 22.5 2.203 5.655L87 87l-5.663-2.975-4.839-2.54-24.396-12.843-5.338-2.802-18.784-9.884c4.512-1.202 13.327-4.195 21.71-11.903zM31.046 14.4c.534 0 1.067-.26 1.394-.748a1.717 1.717 0 0 0-.431-2.383c-.722-.504-2.462-1.949-2.977-4.49-.398-1.949.136-3.568.5-4.368.376-.87 0-1.879-.861-2.262-.863-.383-1.86 0-2.24.87-.517 1.167-1.307 3.568-.723 6.455.758 3.759 3.306 5.882 4.373 6.63.293.193.638.296.965.296z" fill="#FCA5A5"/>
    <path d="M49.69 63.647c1.688 0 3.066 1.374 3.066 3.099 0 .713-.24 1.373-.638 1.896l-5.336-2.802c.379-1.27 1.548-2.193 2.909-2.193zm21.92-16.236 2.202 5.655a2.912 2.912 0 0 1-1.585.454c-1.687 0-3.063-1.376-3.063-3.098 0-1.48 1.049-2.733 2.445-3.011zm-30.975 6.474c1.687 0 3.065 1.392 3.065 3.098 0 1.704-1.36 3.096-3.065 3.096-1.687 0-3.063-1.374-3.063-3.096 0-1.706 1.36-3.098 3.063-3.098zm24.862 6.683c1.687 0 3.063 1.373 3.063 3.096 0 1.706-1.36 3.098-3.063 3.098-1.706 0-3.066-1.374-3.066-3.098 0-1.723 1.378-3.096 3.066-3.096zM79.563 78.42c1.688 0 3.064 1.376 3.064 3.098 0 1.044-.5 1.95-1.274 2.523l-4.855-2.557c.018-1.707 1.376-3.064 3.065-3.064zM58.85 32.88a3.086 3.086 0 0 1 1.688 2.766c0 1.706-1.36 3.098-3.064 3.098a3.02 3.02 0 0 1-2.1-.853 48.197 48.197 0 0 0 3.476-5.011zM8.27 19.169c2.288-.906 6.955-2.176 12.377-.679 6.973 1.931 10.624 7.135 11.862 9.293a1.72 1.72 0 0 1-1.462 2.591 1.694 1.694 0 0 1-1.465-.853c-1.03-1.791-4.062-6.107-9.83-7.708-4.475-1.252-8.349-.174-10.243.557-.878.349-1.86-.105-2.204-.974a1.724 1.724 0 0 1 .965-2.227z" fill="#FEF08A"/>
    <path d="M18.839 62.794c-.12-.034-.189-.14-.155-.261l1.05-4.525c.036-.121.138-.19.258-.156.12.035.189.14.155.262l-1.05 4.524a.208.208 0 0 1-.206.175c-.018-.019-.034-.019-.052-.019zm35.484-52.45c-.103-.068-.139-.19-.069-.295l3.718-5.968c.07-.105.19-.121.293-.07.104.07.138.192.07.295l-3.72 5.97a.19.19 0 0 1-.172.103c-.052-.016-.086-.016-.12-.034zM31.269 28.53c-1.084-1.793-4.251-6.16-10.175-8.075-5.734-1.878-10.725-.33-12.603.402a.232.232 0 0 1-.275-.124c-.052-.103.017-.243.12-.277 2.376-.94 7.23-2.262 12.878-.418 6.044 1.966 9.298 6.44 10.418 8.265.068.106.034.227-.07.296a.228.228 0 0 1-.103.035.241.241 0 0 1-.19-.104zM48.28 45.306c-.07-.087-.07-.227.016-.296a53.252 53.252 0 0 0 8.522-9.467 52.294 52.294 0 0 0 4.719-8.162c.052-.103.172-.156.274-.103.105.05.157.172.105.278a54.183 54.183 0 0 1-4.753 8.23 52.373 52.373 0 0 1-8.59 9.538.199.199 0 0 1-.138.05c-.052 0-.12-.016-.155-.068zM42.96 59a.206.206 0 0 1-.052-.296c.913-1.288.654-3.098-.586-4.02a2.8 2.8 0 0 0-2.168-.504c-.793.14-1.48.591-1.928 1.27-.07.103-.19.122-.293.053-.105-.071-.12-.193-.052-.296a3.256 3.256 0 0 1 2.204-1.445 3.255 3.255 0 0 1 2.496.574c1.412 1.061 1.721 3.132.672 4.611a.214.214 0 0 1-.172.088.338.338 0 0 1-.12-.035zm39.408 23.736a.228.228 0 0 1-.136-.278c.41-1.288-.07-2.699-1.172-3.394a2.86 2.86 0 0 0-3.254.175.214.214 0 0 1-.293-.035.22.22 0 0 1 .034-.296c1.102-.837 2.6-.924 3.738-.192 1.273.8 1.823 2.4 1.342 3.898-.034.087-.12.156-.207.156 0-.034-.016-.034-.052-.034zM65.497 66.954c.12 0 .206-.105.206-.208a.212.212 0 0 0-.206-.211c-1.567 0-2.841-1.287-2.841-2.871 0-1.583 1.274-2.872 2.84-2.872a.21.21 0 0 0 .207-.208c0-.104-.104-.21-.206-.21-1.808 0-3.272 1.48-3.272 3.308a3.28 3.28 0 0 0 3.272 3.272z" fill="#D0F0FF"/>
</svg>
