<svg width="71" height="47" viewBox="0 0 71 47" fill="none" xmlns="http://www.w3.org/2000/svg">
    <path d="M52.502 32.225a19.025 19.025 0 0 1-4.022-4.88c-5.362-9.02-8.197-33.19-25.692-26.042-13.012 5.205-13.807 18.18-7.889 27.93a23.99 23.99 0 0 0 3.523 4.94c2.107 2.778 4.533 5.6 7.373 7.129 4.443 2.779 10.985 5.258 16.876 4.606 9.513-.996 19.185-3.415 27.646-11.573-11.312 3.903-17.815-2.11-17.815-2.11z" fill="#54283D"/>
    <path d="M20.654 12.019c.46 1.281.08 2.589-.849 2.925-.93.336-2.053-.43-2.513-1.709-.46-1.279-.09-2.591.846-2.934.936-.342 2.056.448 2.516 1.718zM30.07 9.806c.461 1.281.081 2.59-.848 2.925-.93.336-2.055-.43-2.513-1.708-.458-1.28-.083-2.59.846-2.925.93-.336 2.056.43 2.516 1.708zM29.908 19.355c.526-.392.98-.873 1.34-1.422 2.44-3.854-1.425-3.52-3.934-2.073-1.504.866-2.294 1.294-4.062 1.59-1.581.264-3.9.295-3.762 2.622.16 2.705 3.798 2.094 5.61 1.534 1.486-.459 3.402-1.171 4.808-2.25z" fill="#fff"/>
    <path d="M39.767 12.973c4.169-2.936-.013-9.28 5.091-11.6 3.707-1.568 12.302 3.173 9.2 6.436-1.73 1.82-3.389.506-4.46 2.8-.731 1.93.194 5.166-.461 7.307-1.041 3.708-6.765 9.584-7.927 2.389M16.563 21.116c-2.3-.018-3.849-2.016-6.032-2.464-2.757-.573-7.477.858-9.363 3.035-1.819 2.105-1.658 5 1.51 5.374 2.293.271 2.701-1.637 4.817-.64 1.656.94 2.904 3.791 4.627 4.927 2.922 2.015 10.456 2.824 7.049-2.988" fill="#54283D"/>
</svg>
