<svg width="53" height="47" viewBox="0 0 53 47" fill="none" xmlns="http://www.w3.org/2000/svg">
    <g clip-path="url(#yeelutmnja)" fill="#54283D">
        <path d="M32.296 0C26.108 0 22.4 4.292 19.374 9.066c-1.295 2.03-2.579 5.688-4.616 7.052-3.537 2.339-7.735 1.213-11.52 2.299-3.3.948-3.785 3.399-2.753 5.636.348.744.815 1.43 1.382 2.03 1.19 1.273 2.903 1.354 3.61 3.241.515 1.355-.212 3.293.046 4.754.515 2.912 1.985 2.82 4.465 3.242 3.352.568 4.203 1.867 5.307 5.073 2.753 7.91 12.267 4.374 15.408-1.192 1-1.776 1.47-3.683 2.315-5.58 2.96-6.647 10.313-10.71 11.231-18.092C45.265 9.274 42.217 0 32.296 0zm-.619 7.98c.923.645 1 1.893.609 2.979a3.03 3.03 0 0 1-.674 1.178 3.094 3.094 0 0 1-1.126.775c-4.625 1.293-3.207-8.26 1.191-4.932zm-.134 12.177c-1.547-.432-4.95-2.786-3.192-4.653 1.233-1.314 2.372 1.223 3.393 1.796 1.15.645 5.002-.426 5.554.736 1.13 2.38-4.559 2.45-5.755 2.116v.005zm6.327-4.632c-3.238-.356-1.748-6.058 1.166-4.876 2.511 1.02 1.619 5.175-1.166 4.87v.006z"/>
        <path d="M22.034 13.54C13.438 15.57 17.91-2.02 10.69 2.715c-2.063 1.345-2.063 7.433-1.723 9.462 1.032 6.088 6.188 8.458 12.036 10.147M37.845 22.323c4.47 0 6.533-1.69 9.973-2.704 2.748-.34 5.497-3.724 5.156.675-.69 6.762-15.13 8.792-19.94 8.792"/>
    </g>
    <defs>
        <clipPath id="yeelutmnja">
            <path fill="#fff" d="M0 0h53v47H0z"/>
        </clipPath>
    </defs>
</svg>
