<svg xmlns="http://www.w3.org/2000/svg" width="193" height="230" fill="none" viewBox="0 0 193 230">
    <g clip-path="url(#clip0)">
        <path fill="#FCF5C7" d="M75.225 32.405c8.517-3.638 19.273-1.156 25.347 5.849 1.662 1.904 3.02 4.114 4.954 5.713 3.562 2.89 8.618 3.264 13.097 2.312 4.479-.918 8.653-2.993 12.996-4.489 8.618-3.026 18.221-3.91 26.907-1.02s16.219 9.895 18.357 18.804c2.171 8.91-1.934 19.314-10.214 23.225-2.646 1.258-6.311 3.06-5.462 5.882.814 2.788 4.818 2.347 7.6 3.129 4.954 1.394 6.651 8.262 4.242 12.819-2.41 4.556-7.465 7.073-12.453 8.433-16.185 4.488-33.829-.034-48.216-8.739-3.767-2.278-7.499-4.897-11.842-5.645-4.174-.714-8.415.442-12.52 1.564-7.839 2.143-15.643 4.285-23.481 6.461-9.84 2.686-20.596 5.339-29.927 1.224-4.581-2.006-8.585-5.882-9.501-10.813-.814-4.284.848-8.773 3.461-12.275 3.936-5.305 10.145-8.841 16.728-9.555 4.343-.476 9.195.068 12.588-2.686 5.633-4.625 2.613-13.84 3.427-20.164 1.222-8.467 5.837-16.594 13.912-20.029z"/>
        <path fill="#000" d="M146.243 28.393c-.238-1.87-1.052-3.468-2.273-4.557-.645-.578-1.425-.986-2.172-1.394-1.018-.544-2.002-1.088-2.647-1.938-.509-.646-.746-1.428-1.018-2.278-.169-.544-.373-1.088-.61-1.598-.068-.102-.102-.204-.17-.306 0-.136-.034-.272-.034-.408-.305-2.517-2.477-4.659-4.954-4.999-1.255-.17-2.443.238-3.698.17-1.222-.068-2.342.136-3.292.85 0 0-.441.374-.576.51-.543.578-.95 1.326-1.222 2.075-.645 1.258-1.12 2.618-1.357 4.012-.17 1.054-.204 2.108-.238 3.128-.034 1.088-.102 2.176-.271 3.23-.136.715-.339 1.463-.509 2.143-.136.544-.306 1.122-.441 1.7-.238 1.156-.306 2.176-.17 3.094-.034.136-.068.306-.102.442-.373 2.075.102 4.557 1.934 5.679 1.29.782 2.885.68 4.31.272 1.425-.408 2.782-1.054 4.241-1.36 1.731-.374 3.529-.204 5.293-.068 1.765.136 3.563.238 5.294-.238 1.696-.476 3.325-1.632 3.902-3.299.169-.51.237-1.054.271-1.598.509-.952.645-2.21.509-3.264zm-23.786-2.108c-.339 1.19-.814 2.312-1.255 3.468.034-.272.068-.544.136-.816.101-.544.271-1.122.407-1.666.203-.714.407-1.462.509-2.21.203-1.088.237-2.245.271-3.333.034-1.02.068-2.074.238-3.06.034-.272.101-.578.169-.85-.034 1.19.034 2.346.034 3.536.102 1.632-.068 3.299-.509 4.93zm23.141 3.536c-.068-.85-.203-1.666-.543-2.448-.984-2.278-3.393-3.537-5.395-5.033-.814-.612-1.628-1.326-2.002-2.278-.271-.646-.305-1.36-.305-2.108.068.136.102.306.136.442.271.85.577 1.734 1.12 2.448.746.986 1.798 1.564 2.85 2.142.712.408 1.459.782 2.07 1.326 1.119.987 1.832 2.449 2.069 4.149.068.442.068.918 0 1.36z"/>
        <path fill="#FCBF7C" d="M122.763 133.702l1.221 68.313-2.307-.272s-13.572-21.116-16.592-72.734l17.678 4.693z"/>
        <path fill="#FC7753" d="M138.066 192.188c-.374 1.666-.679 3.298-.916 4.999-.068.442 0 2.686 1.866 2.89 2.103.238 2.816-2.992 2.884-3.979.034-.544.068-1.088.136-1.666.067-.714.101-1.462-.204-2.108-.271-.612-.882-1.088-1.561-1.19-.678-.102-2.036.272-2.205 1.054z"/>
        <path fill="#FCBF7C" d="M127.072 132.546l11.672 58.554s.611 2.482 2.851.952c0 0 11.706-31.215 2.035-48.931l-.509-11.425-16.049.85zM107.833 54.338S100.097 79.84 81.74 94.02c0 0 36.306-9.93 38.647-42.403l-12.554 2.72z"/>
        <path fill="#FC7753" d="M154.522 49.883c-4.547-16.526-19.375-19.688-19.375-19.688l-11.672.102c-8.686.272-16.592 24.007-16.592 24.007l7.363 3.638c2.545 10.575 6.956 17.444 6.956 17.444h10.518c3.02-5.067 4.106-14.146 4.31-22.885l3.393 1.769 15.099-4.387z"/>
        <path fill="#FCBF7C" d="M130.16 33.255c2.748-.136 4.988-3.06 4.988-3.06-.645-.034-1.765-.34-2.376-.374-.169-2.822.102-7.65.102-7.65l-5.157.135-1.018 7.89c-1.052.135-3.224.101-3.224.101 1.731 2.108 4.208 3.095 6.685 2.958z"/>
        <path fill="#ECA165" d="M126.699 30.195l.373-6.018 5.7 1.53-6.073 4.488z"/>
        <path fill="#FCBF7C" d="M124.866 18.43c-.441-2.04.17-2.278 1.697-3.707 1.595-1.496 3.902-2.822 6.379-1.156 1.663 1.123 2.511 2.687 2.511 3.367 0 .34-.034.68-.068 1.054.543-.442 1.323-.918 1.798-.442.781.816.407 1.938 0 2.346-.61.68-1.357.986-2.137.816-.306 4.455-2.952 6.155-5.972 6.12-3.258-.033-4.208-8.364-4.208-8.398z"/>
        <path fill="#000" d="M128.497 17.75s-1.391-1.36-2.172.17c0-.034.815-.68 2.172-.17zM130.363 17.852s1.561-1.19 2.138.476c0 0-.713-.782-2.138-.476z"/>
        <path fill="#000" d="M124.9 18.532s2.613-.646 5.09-6.189c0 0 .441-.816-2.002-.918-2.477-.034-5.666 2.925-3.088 7.107z"/>
        <path fill="#000" d="M129.447 13.737c2.24 3.843 5.938 4.25 5.938 4.25s.713-2.21.204-4.386c-.645-2.72-3.597-3.332-6.04-1.734.034 0-.271 1.564-.102 1.87z"/>
        <path fill="#FFEDE4" d="M131.755 23.054s-2.41.748-4.615 0c.034 0 2.205 4.115 4.615 0z"/>
        <path fill="#000" d="M126.902 18.804c0 .238.102.442.238.442s.237-.204.237-.442c0-.238-.101-.442-.237-.442-.102 0-.238.204-.238.442zM130.94 18.838c0 .238.102.442.238.442.135 0 .237-.204.237-.442 0-.238-.102-.442-.237-.442-.136.034-.238.204-.238.442z"/>
        <path fill="#FCBF7C" d="M80.349 93.068c-.645.306-1.357.714-1.56 1.428-.238.68.135 1.496.746 1.904.61.408 1.39.476 2.103.272.713-.17 1.324-.578 1.9-1.02.815-.612 1.527-1.36 2.172-2.176 1.188-1.564 1.629-2.483-.679-2.007-1.662.375-3.223.919-4.682 1.599z"/>
        <path fill="#ECA165" d="M107.697 54.746l6.549 3.23 1.221 4.42-7.77-7.65z"/>
        <path fill="#754D30" d="M125.206 16.526l-.204-.238c.916-.782 1.561-1.87 1.832-3.06l.306.067c-.306 1.259-.984 2.38-1.934 3.23zM134.571 16.288c-1.323-.714-2.477-1.667-3.461-2.823l.237-.204c.95 1.123 2.104 2.04 3.393 2.755l-.169.272zM135.215 14.553c-.882 0-1.798-.51-2.273-1.258l.271-.17c.441.68 1.222 1.088 2.002 1.123v.306z"/>
        <path fill="#1C77C3" d="M121.168 75.42s-21.852 14.757-17.678 56.684c0 0 31.997 3.978 41.565 0 0 0 4.411-45.837-13.402-56.684h-10.485z"/>
        <path fill="#FCF5C7" d="M106.306 132.478c-1.629-19.79 2.613-34.242 6.481-42.913 4.173-9.385 8.822-14.18 8.856-14.213l.237.238c-.034.034-4.648 4.794-8.822 14.145-3.834 8.637-8.075 23.055-6.447 42.743h-.305z"/>
        <path fill="#FCF5C7" d="M110.48 132.886c-.543-20.368 3.019-34.922 6.107-43.559 3.359-9.35 6.888-13.941 6.922-14.01l.238.205c-.034.034-3.529 4.624-6.888 13.941-3.088 8.603-6.617 23.123-6.074 43.423h-.305zM116.587 133.362c-.678-28.767 9.195-57.738 9.297-58.044l.306.102c-.102.272-9.976 29.209-9.264 57.908l-.339.034zM140.509 133.294h-.306c1.425-28.155-8.856-57.5-8.958-57.806l.306-.102c.068.272 10.383 29.685 8.958 57.908zM127.858 75.372l-4.785 58.253.305.025 4.785-58.253-.305-.025zM130.136 75.391l-.305.006 1.012 58.514.305-.005-1.012-58.515z"/>
        <path fill="#FC7753" d="M118.827 204.565h7.872s-3.258-7.004-7.872 0z"/>
        <path fill="#000" d="M106.918 165.436l-.29.096 6.943 20.977.29-.096-6.943-20.977z"/>
        <path fill="#48AFB2" d="M114.551 140.061c-1.56-9.691-6.446-13.262-6.446-13.262l-18.052 48.217v7.039s13.098 3.74 20.223-12.785c3.02-7.073 5.497-21.661 4.275-29.209z"/>
        <path fill="#66D7D1" d="M108.105 126.799s-2.579-26.965-12.487-33.46c-9.908-6.494-36.272-2.141-41.667 4.115-5.43 6.223 54.154 29.345 54.154 29.345zM68.609 126.8l-8.924 36.758h40.853l7.566-36.758H68.609z"/>
        <path fill="#55C5C2" d="M102.976 126.776l-8.305 36.745.298.068 8.305-36.745-.298-.068zM97.704 126.76L89.4 163.505l.298.068 8.305-36.746-.298-.067zM92.313 126.765l-8.305 36.745.298.068 8.305-36.745-.298-.068zM87.034 126.782l-8.305 36.746.298.067 8.305-36.745-.298-.068zM81.776 126.84l-8.305 36.746.298.067 8.305-36.745-.298-.068zM76.504 126.822l-8.305 36.745.298.067 8.304-36.745-.297-.067zM70.81 127.081l-8.302 36.745.298.067 8.301-36.745-.298-.067z"/>
        <path fill="#55C5C2" d="M59.685 163.557L42.889 175.05h47.13l10.519-11.493H59.685zM68.609 126.799s-29.622-24.482-12.046-30.603c17.542-6.12 51.541 30.603 51.541 30.603H68.609z"/>
        <path fill="#66D7D1" d="M42.889 175.05v2.074c0 2.755 2.205 4.965 4.954 4.965h42.176v-7.039H42.89z"/>
        <path fill="#000" d="M89.883 204.395c-.033-1.122-.678-27.305 0-29.413 1.731-5.27 9.705-10.949 10.519-11.527l13.064-59.472c.712-3.197-1.188-6.427-4.31-7.379L97.111 94.53l-.441-.374 12.554 2.142c3.258 1.02 5.26 4.42 4.513 7.753l-13.097 59.608-.068.034c-.102.068-8.687 6.053-10.417 11.391-.679 2.074 0 29.039 0 29.311h-.272zM94.606 205.169l-10.087 22.746.28.124 10.086-22.745-.28-.125z"/>
        <path fill="#000" d="M78.547 211.184l-.123.28 22.701 10.101.124-.28-22.701-10.101z"/>
        <path fill="#000" d="M100.947 211.375l-22.738 9.842.12.281 22.739-9.842-.121-.281z"/>
        <path fill="#000" d="M85.042 204.887l-.28.121 9.862 22.845.28-.122-9.862-22.844z"/>
        <path fill="#F3AD4A" d="M92.055 217.623c-.577 1.292-2.07 1.87-3.36 1.292-1.289-.578-1.865-2.074-1.289-3.367.577-1.292 2.07-1.87 3.36-1.292 1.289.578 1.866 2.109 1.289 3.367z"/>
        <path fill="#F3AD4A" d="M89.714 230c-1.833 0-3.699-.374-5.43-1.156-3.257-1.462-5.768-4.081-7.057-7.447-1.29-3.332-1.188-6.971.272-10.269 1.459-3.264 4.071-5.781 7.43-7.073 3.326-1.292 6.956-1.19 10.248.272 6.752 2.993 9.806 10.949 6.786 17.682-1.459 3.265-4.072 5.781-7.431 7.073-1.56.646-3.19.918-4.818.918zm.034-24.891c-1.392 0-2.783.272-4.14.782-2.85 1.089-5.124 3.265-6.345 6.053-1.256 2.788-1.323 5.917-.238 8.773 1.086 2.856 3.258 5.135 6.04 6.359 2.782 1.258 5.904 1.326 8.754.238 2.85-1.088 5.124-3.265 6.345-6.053 2.579-5.781-.033-12.581-5.836-15.166-1.425-.646-3.02-.986-4.58-.986z"/>
        <path fill="#000" d="M109.733 207.524l-.237-.238 17.644-17.512.237.204-17.644 17.546z"/>
        <path fill="#000" d="M127.242 207.422l-17.475-17.682.204-.238 17.508 17.682-.237.238z"/>
        <path fill="#000" d="M130.754 197.847l-24.752.919.011.306 24.753-.919-.012-.306z"/>
        <path fill="#000" d="M118.302 185.996l-.305.011.906 24.873.306-.011-.907-24.873z"/>
        <path fill="#F3AD4A" d="M120.218 200.451c-.984.986-2.613.986-3.597 0s-.984-2.618 0-3.604c.984-.987 2.613-.987 3.597 0 1.018.986 1.018 2.618 0 3.604z"/>
        <path fill="#F3AD4A" d="M118.453 212.046h-.067c-3.563 0-6.922-1.428-9.433-3.978-2.511-2.551-3.902-5.917-3.868-9.487 0-3.571 1.425-6.937 3.97-9.453 5.225-5.203 13.708-5.169 18.899.068 2.511 2.55 3.902 5.916 3.868 9.487 0 3.57-1.425 6.936-3.97 9.453l-.678-.68.678.68c-2.511 2.516-5.87 3.91-9.399 3.91zm0-24.891c-2.918 0-5.836 1.123-8.075 3.333-2.172 2.176-3.393 5.032-3.393 8.093 0 3.06 1.153 5.95 3.325 8.127 2.172 2.176 5.022 3.4 8.076 3.4 3.087 0 5.938-1.156 8.109-3.332 2.172-2.177 3.393-5.033 3.393-8.093 0-3.061-1.153-5.951-3.325-8.127-2.239-2.278-5.158-3.401-8.11-3.401z"/>
        <path fill="#000" d="M56.104 198.845L46.015 221.59l.28.125 10.088-22.745-.279-.125z"/>
        <path fill="#000" d="M40.02 204.888l-.124.28 22.702 10.1.124-.28-22.702-10.1z"/>
        <path fill="#000" d="M62.4 205.052l-22.738 9.842.121.281 22.739-9.842-.122-.281z"/>
        <path fill="#000" d="M46.505 198.595l-.28.121 9.863 22.845.28-.122-9.863-22.844z"/>
        <path fill="#F3AD4A" d="M53.51 211.332c-.577 1.292-2.07 1.87-3.36 1.292-1.289-.578-1.866-2.074-1.289-3.366.577-1.292 2.07-1.871 3.36-1.292 1.289.578 1.865 2.074 1.289 3.366z"/>
        <path fill="#F3AD4A" d="M51.168 223.709c-1.832 0-3.698-.374-5.429-1.156-6.752-2.992-9.806-10.949-6.786-17.682 1.459-3.264 4.072-5.78 7.43-7.072 3.326-1.293 6.957-1.191 10.248.272 6.752 2.992 9.806 10.949 6.786 17.681-1.459 3.265-4.072 5.781-7.43 7.073-1.562.578-3.19.884-4.819.884zm.034-24.924c-1.391 0-2.782.272-4.14.782-2.85 1.088-5.123 3.264-6.345 6.052-2.578 5.781.034 12.582 5.837 15.166 5.768 2.584 12.554-.034 15.133-5.849 1.255-2.788 1.323-5.916.203-8.773-1.086-2.856-3.257-5.134-6.04-6.358-1.492-.68-3.087-1.02-4.648-1.02z"/>
        <path fill="#000" d="M44.416 194.942c-1.663-8.637 3.291-12.955 3.325-12.989l.204.238c-.034.034-4.852 4.25-3.224 12.683l-.305.068zM85.337 198.751c-2.41-12.752 4.546-16.764 4.614-16.798l.17.272c-.068.034-6.82 3.944-4.445 16.458l-.34.068z"/>
        <path fill="#66D7D1" d="M62.4 193.208l13.945.51c4.072.136 8.686.544 11.299 3.707.203.272.407.544.441.884.102.714-.577 1.292-1.221 1.632-1.799.918-3.869 1.054-5.87 1.122-9.094.34-18.188-.306-27.281-.952-2.104-.136-15.1-2.55-9.196-6.121 4.581-2.754 12.962-.986 17.882-.782z"/>
        <path fill="#FCF5C7" d="M145.802 94.972h-23.548l.78-29.413-3.325-14.962h28.638l-4.106 33.528 1.561 10.847z"/>
        <path fill="#FCBF7C" d="M153.776 50.087l-5.497 1.632-.849 6.427c-7.973 11.8-22.835 23.088-21.749 22.952 15.54-1.802 25.312-8.5 26.907-11.05 4.784-7.652 1.188-19.96 1.188-19.96z"/>
        <path fill="#FCBF7C" d="M126.495 78.922c-.882-.34-1.832-.714-2.782-.51-.204.034-.407.102-.577.272-.272.204-.373.578-.373.918 0 .34.101.68.237.986.102.239.238.477.407.68.34.34.849.442 1.29.477.78.068 1.561.034 2.341-.103.611-.102 1.527-.578 1.459-1.36-.068-.85-1.391-1.122-2.002-1.36z"/>
        <path fill="#000" d="M129.21 22.102h-.102c-.204-.034-.373-.102-.475-.272-.17-.272-.034-.612.068-.884v-.034c.135-.374.203-.714.169-1.02-.034-.408-.237-.782-.407-1.122l.136-.068c.17.34.373.748.441 1.19.034.34-.034.68-.17 1.088v.034c-.101.272-.203.544-.068.748.068.102.204.17.34.17.135 0 .305 0 .441-.034l.034.17c-.136 0-.272.034-.407.034z"/>
        <path fill="#ECA165" d="M136.946 19.348l-.068-.306c.034 0 .102-.068.136-.17.067-.238.034-.476-.102-.68-.102-.136-.272-.272-.441-.204l-.068-.306c.305-.102.611.102.78.34.204.272.238.646.17.952-.136.204-.272.34-.407.374zM136.199 19.688l-.305-.068c.068-.306.238-.612.475-.85l.204.238c-.17.204-.306.442-.374.68z"/>
        <path fill="#754D30" d="M142.85 30.841l-.305-.068c.135-.544.237-1.088.135-1.632-.203-1.122-1.187-1.87-2.137-2.618l-.136-.102c-1.323-1.02-2.545-2.177-3.631-3.435-.407-.442-.78-.986-.644-1.598l.305.068c-.102.476.238.918.577 1.326 1.086 1.224 2.307 2.38 3.597 3.4l.135.103c.95.748 2.002 1.564 2.24 2.788.102.612 0 1.224-.136 1.768z"/>
        <path fill="#66D7D1" d="M160.969 20.504c-3.393 1.632-6.65 3.604-9.365 6.223-2.714 2.618-4.818 5.95-5.497 9.657-.271 1.462-.339 2.958-.916 4.318-.441 1.088-1.187 2.006-1.764 3.026-.034.035-.034.102-.068.17.136-1.088.271-2.142.407-3.23.204-1.564.407-3.094.781-4.624.509-1.938 1.289-3.775 1.832-5.679 1.459-5.134 1.12-10.575.746-15.88-1.018 5.067-3.529 9.726-4.988 14.69-.644 2.21-1.085 4.522-1.289 6.835-.373 4.012-.068 8.093.916 12.003.034.17.136.68.272 1.156 0 .782.169 1.36.712 1.326.306 0 1.527-2.788 1.799-3.162.746-1.122 1.628-2.142 2.646-3.026 1.018-.919 2.206-1.769 2.647-3.06.305-.817.271-1.735.543-2.585.95-2.788 4.886-3.4 6.277-5.985 1.188-2.21.136-5.202 1.493-7.31.543-.85 1.391-1.428 2.036-2.177.644-.714 1.153-1.734.78-2.686z"/>
        <path fill="#F4D06F" d="M137.794 50.597s-.339-1.19-.271-1.02c-1.222-4.556-2.341-7.957-5.361-11.561-.407-.476-.882-.952-1.493-.986-.95-.034-1.493 1.054-1.731 1.972-.305 1.258-.407 2.584-.339 3.91.102 1.293.407 2.55.679 3.809.305 1.326.61 2.652.95 3.978l7.566-.102z"/>
        <path fill="#F4B95B" d="M131.517 40.6c.373-.102.814-.204 1.154.034.068.068.169.136.135.238 0 .068-.067.136-.135.204-.849.782-2.002 1.19-3.156 1.19-.17 0-.407-.068-.407-.238-.102-.68 1.968-1.292 2.409-1.428zM134.163 47.639c.374-.102.815-.204 1.154.034.068.068.17.136.136.238 0 .068-.068.136-.136.204-.848.782-2.002 1.19-3.155 1.19-.17 0-.408-.068-.408-.238-.101-.714 1.968-1.326 2.409-1.428zM132.738 43.967c.374-.102.815-.204 1.154.034.068.068.17.136.136.238 0 .068-.068.136-.136.204-.848.782-2.002 1.19-3.156 1.19-.169 0-.407-.068-.407-.238-.068-.68 2.002-1.292 2.409-1.428z"/>
        <path fill="#66D7D1" d="M123.781 46.653c-1.765-.884-3.699-1.224-5.599-1.768-3.766-1.122-7.363-3.23-11.299-3.163.068.34.407.578.678.748.951.647 1.935 1.293 2.885 1.939.814.544 1.628 1.088 2.51 1.496 3.428 1.598 7.703.986 10.892 3.06.679.442 2.783 2.788 2.851.714.034-1.326-1.901-2.516-2.918-3.026z"/>
        <path fill="#F4D06F" d="M122.692 52.224l-.276.132.803 1.688.276-.132-.803-1.688zM127.914 55.583l-1.565.742.131.276 1.564-.741-.13-.277zM133.281 53.454c-.407-.374-.882-.715-1.323-1.054l.17-.273c.475.34.916.68 1.357 1.089l-.204.238zM137.828 56.684l-.102-.306c.34-.136.645-.306.916-.544l.204.238c-.305.272-.645.442-1.018.612zM145.424 53.674l-.241 1.373.301.053.24-1.373-.3-.053zM131.755 61.168l-.394.79.273.137.394-.79-.273-.137zM137.606 62.798l-.186.243 1.132.868.185-.243-1.131-.868zM125.83 62.436l-.469.789.263.156.468-.788-.262-.157zM128.972 71.918c-.713-.239-1.391-.579-2.036-.953l.17-.272c.61.374 1.289.714 1.968.953l-.102.272zM134.706 69.367c-.271-.612-.542-1.224-.746-1.836l.305-.102c.204.612.441 1.224.747 1.802l-.306.136zM143.356 59.1l-.146.268 1.28.7.147-.268-1.281-.7zM124.493 75.862l-.203-.238c.373-.34.814-.578 1.289-.714l.102.306c-.475.102-.882.34-1.188.646zM128.633 76.882c-.102-.136-.238-.272-.407-.34l.101-.306c.238.102.408.272.543.476l-.237.17zM125.259 83.673l-1.826.158.026.305 1.826-.158-.026-.305zM143.766 79.024h-.305l.068-1.462c0-.034 0-.17.135-.238.102-.068.204-.034.272.068.068.102.034.204-.034.238l-.034-.034-.102 1.428zm-.102-1.666c-.068.034-.068.136-.034.17.034.068.102.068.136.034l.034-.034-.136-.17zM136.214 80.625l-.229.202 1.189 1.352.229-.203-1.189-1.351zM141.994 82.284l-.305.01.08 2.311.305-.01-.08-2.311zM131.178 83.207c-.034-.306-.034-.578.067-.884l.306.102c-.068.238-.068.476-.034.748l-.339.034zM128.802 87.933c-.203-.476-.305-.986-.339-1.496l.306-.034c.033.476.135.952.305 1.394l-.272.136zM125.443 91.163c-.475-.17-.984-.272-1.459-.306l.034-.306c.543.034 1.052.17 1.561.34l-.136.272zM129.123 92.658l-1.5 1.757.232.199 1.5-1.757-.232-.199zM134.019 85.703l-.185.243 1.215.927.185-.243-1.215-.927zM139.287 88.273l-.305-.136c.169-.408.407-.782.746-1.088l.238.238c-.306.272-.509.612-.679.986zM143.57 88.963l-.203.895.297.068.204-.895-.298-.068zM134.316 90.364l-.273.138.796 1.578.272-.138-.795-1.578zM139.219 93.952l-.271-.17c.475-.646 1.018-1.258 1.662-1.768l.204.238c-.611.476-1.12 1.054-1.595 1.7z"/>
        <path fill="#ECA165" d="M127.343 133.872s12.182.306 15.846-1.122l-14.421 8.365-1.425-7.243z"/>
        <path fill="#1C77C3" d="M82.792 158.593s3.088 4.25.882 7.48c-2.205 3.231-11.265 4.897-11.265 4.897s.984 4.998-2.918 16.73h-1.357s-6.753-14.758-5.124-19.45c1.323-3.775 12.181-10.27 12.181-10.27l7.6.613z"/>
        <path fill="#1C77C3" d="M82.792 158.593c6.786 7.378 2.85 27.95 2.85 27.95h-1.73c0-.068-8.517-15.709-8.517-22.374 0-2.618 7.397-5.576 7.397-5.576z"/>
        <path fill="#1C77C3" d="M73.563 139.006s1.594-1.156 6.82-.714c4.343.374 5.599 1.361 5.599 1.361s1.968 6.936-1.731 21.014l-10.213-1.939c0-.034-2.104-9.589-.475-19.722z"/>
        <path fill="#FCBF7C" d="M81.74 138.02v-3.264h-3.257v3.264l-1.392.238s-.034 1.701 2.613 1.701 3.325-1.429 3.325-1.429l-1.29-.51z"/>
        <path fill="#ECA165" d="M78.483 138.02l3.257-1.19v-2.108h-3.257v3.298z"/>
        <path fill="#FCBF7C" d="M87.474 130.098c-.101-.375-.339-.749-.712-.851-.373-.136-.713 0-1.052.17-.373-3.298-2.816-4.08-5.7-4.08-2.919 0-5.294.782-5.667 4.114h-.034c-.305-.17-.678-.306-1.052-.17-.373.136-.61.476-.712.851-.102.374-.034.782.068 1.156.067.34.17.646.373.918.203.272.475.51.814.578.272.068.577-.034.78-.238.781 2.686 2.919 4.624 5.463 4.624 2.545 0 4.683-1.938 5.463-4.624.204.204.51.272.78.204.34-.068.612-.272.815-.578.204-.272.306-.612.373-.918.034-.374.068-.782 0-1.156z"/>
        <path fill="#000" d="M77.295 130.268c.034.136.102.238.204.34.034.034.102.068.17.034.033 0 .033-.034.067-.034.136-.136.238-.306.238-.51 0-.204-.068-.409-.238-.477-.543-.34-.543.341-.44.647zM82.487 130.268c.034.136.101.238.203.34.034.034.102.068.17.034.034 0 .034-.034.068-.034.135-.136.237-.306.237-.51 0-.204-.068-.409-.237-.477-.51-.34-.51.341-.441.647zM80.45 132.954l-.033-.17c.237-.068.407-.17.509-.306.101-.136.17-.34.067-.51-.033-.068-.135-.136-.237-.136-.034 0-.136 0-.204.068-.034.034-.068.034-.068.034-.033 0-.033-.034-.067-.068-.068-.646.034-1.326.271-1.904l.136.068c-.204.544-.306 1.122-.272 1.7.068-.034.136-.034.204-.034.136.034.271.102.34.204.135.204.101.476-.069.714-.135.136-.339.272-.576.34zM82.996 128.465c-.17-.238-.543-.306-.815-.17l-.068-.136c.34-.17.78-.068.984.238l-.101.068zM77.16 128.295l-.103-.136c.272-.204.645-.272.95-.136l-.067.136c-.272-.068-.577-.034-.78.136z"/>
        <path fill="#FFEDE4" d="M77.974 133.566s1.696.918 4.852-.136c0 0-2.206 4.794-4.852.136z"/>
        <path fill="#FFE6B8" d="M85.54 127.513c-.271-.612-.543-1.224-1.018-1.666-.543-.51-1.29-.816-1.628-1.462-.034-.034-.034-.102-.034-.136.034-.068.067-.068.135-.102.17-.068.34-.136.543-.204-.44-.51-1.187-.646-1.866-.612-.305 0-.61.034-.882.068-1.29-.442-2.715-.34-3.936.306-1.323.68-2.308 1.938-2.647 3.4-.034-.068-.068-.102-.102-.17-.101.714-.101 1.496.102 2.176.068.204.136.375.272.545.067.102.678.612.678.646.136-1.089.78-2.109 1.73-2.653-.135-.034-.237-.034-.373-.068 1.086-.646 2.444-.816 3.665-.476.814.204 1.697.646 2.443.306-.204-.204-.441-.408-.645-.612 1.392.646 2.58 1.666 3.495 2.891.034.068.102.136.17.136.136.034.271-.136.305-.272.17-.681-.135-1.395-.407-2.041zm-11.299-.34l.102.034c0 .034-.034.102-.034.136-.034-.034-.068-.102-.068-.17zm2.85-2.618c-.475.204-.916.476-1.323.748.373-.442.814-.816 1.357-1.088.645-.34 1.324-.476 2.036-.476-.746.204-1.425.51-2.07.816z"/>
        <path fill="#1C77C3" d="M83.03 138.53c2.171-1.19 6.379.918 7.634 8.501l-6.21 1.564c-3.426-6.12-3.46-8.942-1.424-10.065zM77.125 138.258s-5.734-.034-8.788 3.503l3.597 6.596 4.038-3.706 1.153-6.393z"/>
        <path fill="#FCBF7C" d="M89.951 147.201c1.833 3.741.916 9.079.916 9.079.068.884-.882 1.496-1.662 1.054-1.765-1.02-4.75-5.168-6.142-8.399h3.291l.068-.85 3.53-.884z"/>
        <path fill="#000" d="M100.402 163.625l-5.734-11.153c-1.018-2.006-3.054-3.23-5.294-3.23H59.278c-1.222 0-2.342.612-2.986 1.598-.679 1.02-.78 2.278-.306 3.4l3.902 9.249-.305.136-3.936-9.249c-.509-1.224-.373-2.584.34-3.706.712-1.088 1.933-1.769 3.257-1.769H89.34c2.375 0 4.512 1.293 5.564 3.401l5.735 11.153-.238.17z"/>
        <path fill="#FCBF7C" d="M68.88 142.747l2.511 4.59s-4.886 4.183-6.888 4.183c-5.904 0-12.283-6.325-12.283-6.325l11.537 1.292 5.123-3.74z"/>
        <path fill="#FCBF7C" d="M50.557 145.399c-.237-.17-.373-.442-.373-.714 0-.272.136-.544.373-.714.204-.136.475-.204.713-.238.305-.068.678-.068.916.102.102.068.204.204.305.306.102.17.238.306.34.476 1.39 1.7-1.392 1.428-2.274.782zM81.367 148.051c.237-.136.509-.204.814-.238.272-.034.543-.034.78.034.272.068.543.238.78.408.17.136.374.306.34.51-.034.17-.203.272-.373.306-.51.171-1.052.205-1.595.205-.305 0-.644.034-.95-.102-.645-.307-.237-.885.204-1.123z"/>
        <path fill="#FC7753" d="M68.1 187.7l-3.02 2.38 4.988-.374-.611-2.006H68.1zM83.03 188.448h3.766s-.136-2.619-2.308-2.245c-2.205.34-1.459 2.245-1.459 2.245z"/>
        <path fill="#ECA165" d="M63.914 146.439l-.294.081.288 1.049.294-.081-.288-1.049zM68.88 142.747l2.511 4.59-1.493 1.19-1.018-5.78zM90.053 152.914c0-.306-.136-.578-.271-.816-.611-1.122-1.595-2.006-2.749-2.55l.136-.306c1.221.578 2.24 1.53 2.884 2.686.17.272.305.612.305.986h-.305z"/>
        <path fill="#0D6BAF" d="M76.005 166.923c-.033 0-.067 0-.101-.034l-.068-.034-.034-.068c-.136-.612-.17-1.224-.204-1.768-.034-.816-.034-1.734.306-2.584.44-1.19 1.595-2.142 2.884-2.414 1.255-.272 2.613.068 3.664.884l-.203.238c-.984-.748-2.24-1.088-3.393-.85-1.188.238-2.24 1.122-2.647 2.21-.305.782-.305 1.632-.271 2.448 0 .51.034 1.054.17 1.598l.169-.068c.034.102.034.204-.068.306-.068.102-.136.136-.204.136zm0-.34s-.033.034 0 0c-.033.034-.033.034-.033.068l.034-.034v-.034c.033.034 0 0 0 0zM71.934 148.324l1.12-4.659-.102 3.74-1.018.919zM84.353 148.664c-4.513-5.883-2.715-8.705-2.647-8.841l.271.17-.135-.102.135.102c-.034.034-1.73 2.788 2.613 8.467l-.237.204zM72.375 170.97l4.174-1.02-.577-2.041-3.597 3.061zM71.9 171.038c-.679-.17-1.256-.578-1.697-1.088l.238-.204c.407.476.95.816 1.527.986l-.068.306z"/>
        <path fill="#F4D06F" d="M70.135 141.761l-.305-.102c.068-.204.136-.442.305-.612.204-.17.543-.272.747-.068.034.034.068.068.102.136l.068.068s.067-.034.101-.102l.034-.068c.034-.102.102-.204.204-.306.203-.136.475-.034.645.136l.067.068.034-.034.272-.272c.068-.068.136-.136.271-.136.204-.034.34.17.441.272.034.068.102.102.102.102l.17.272c-.17.102-.373.034-.51-.17-.067-.102-.135-.136-.135-.136s-.068.034-.068.068l-.271.272c-.034.034-.136.136-.238.136-.135 0-.203-.102-.271-.136-.068-.102-.204-.136-.272-.102-.034.034-.067.102-.101.17l-.034.068c-.102.204-.272.306-.441.272-.136-.034-.204-.136-.272-.204-.034-.034-.034-.068-.068-.068-.068-.068-.237-.034-.305.068-.17.068-.238.238-.272.408zM78.041 142.305l-.271-.17.237-.374c.204-.306.442-.408.645-.306.17.102.204.238.238.374.034.102.068.136.068.136s.034-.068.067-.102c.034-.068.102-.136.17-.204.17-.136.441-.102.577.034.136.102.203.272.271.408l-.271.136c-.034-.102-.102-.204-.17-.272-.068-.034-.135-.068-.17-.034-.033.034-.067.068-.067.102-.068.102-.136.272-.34.272-.17 0-.305-.136-.373-.374-.034-.102-.034-.17-.068-.204-.034-.034-.135.068-.203.204l-.34.374zM82.656 143.903l-.305-.102c.068-.238.17-.442.305-.646.034-.068.102-.136.204-.17.17-.034.305.034.407.238l.034.068c.034.068.068.102.102.136.034 0 .101 0 .135-.034.068-.068.102-.136.136-.238l.136-.374.136.374c0 .034.067.068.135.068.034 0 .102 0 .136-.034 0 0 .034-.034.034-.068.068-.102.17-.272.373-.204.068.034.102.068.136.102.102.102.237.17.407.136l.034.306c-.237.034-.475-.068-.645-.238 0 .034-.034.034-.034.068s-.034.068-.034.068c-.101.136-.271.204-.44.17-.069 0-.136-.034-.17-.068-.034.034-.068.102-.102.136-.136.136-.34.17-.475.102-.136-.068-.17-.17-.238-.238l-.034-.034-.067-.068-.034.034c-.136.17-.238.34-.272.51zM87.373 146.045l-.306-.068c.068-.34.272-.68.543-.918.068-.068.17-.136.272-.136.17 0 .339.102.474.306.034.034.034.068.034.102.034.034.034.102.068.136l.136-.374c.034-.068.068-.17.204-.238.17-.068.305.068.407.136l.068.068s0-.034.034-.034l.101-.102c.068-.034.17-.034.238 0 .17.068.271.272.34.34l-.306.136c-.068-.102-.136-.17-.136-.17l-.034.034c-.034.034-.102.102-.17.102-.17.034-.27-.068-.373-.136l-.068-.068v.034l-.17.408c-.067.17-.169.204-.237.204-.068 0-.136-.034-.17-.068-.101-.102-.135-.204-.203-.306 0-.034-.034-.068-.034-.102-.034-.102-.102-.136-.136-.136-.034 0-.067.034-.102.068-.27.238-.407.476-.474.782zM84.25 140.027l-.304-.068c.034-.17.067-.374.203-.544.102-.102.238-.17.373-.17.102 0 .238.034.306.136.034.068.068.102.102.17 0 .034.033.034.033.068l.034-.034c.034-.034.034-.068.068-.136.17-.204.475-.204.611-.204s.305.034.441.102c.17.102.305.306.272.476l-.306-.068c0-.034-.034-.102-.102-.136-.067-.034-.203-.068-.305-.068-.136 0-.305 0-.34.068-.033.034-.033.034-.033.068-.034.102-.136.238-.306.238-.203 0-.271-.17-.339-.238-.034-.034-.034-.068-.068-.102 0 0-.034-.034-.068-.034s-.101.034-.135.068c-.068.136-.102.272-.136.408zM75.09 145.739h-.035c-.135-.034-.203-.17-.237-.204-.068-.136-.136-.272-.204-.374l-.034-.034s-.034 0-.067.034c-.17.102-.34.238-.475.408l-.034.034-.238-.204c0-.034.034-.034.034-.068.136-.17.305-.306.509-.442.068-.034.204-.136.34-.068.101.034.169.136.203.17.102.136.17.272.237.442l.272-.34c.034-.034.068-.102.17-.136.203-.102.373.068.475.17l.135.136.068-.068c.034-.034.068-.068.102-.068.102-.068.271-.102.407-.034.136.068.238.17.305.306l-.305.102c0-.034-.034-.068-.102-.102h-.135c-.034 0-.034.034-.068.034-.068.068-.136.102-.238.136-.203.034-.34-.102-.44-.204-.035-.034-.103-.102-.137-.102l-.034.034-.271.34c.034 0-.068.102-.204.102zM78.924 147.881l-.306-.136c.136-.272.34-.51.577-.68l.068-.034.068.034c.136.068.203.17.237.272.034.068.068.102.068.136.034.034.136 0 .204-.068.034-.034.068-.102.102-.136.068-.068.102-.136.17-.204.067-.068.135-.102.203-.102.102 0 .204.034.237.068l.306.204-.17.272-.305-.204s-.034-.034-.068-.034l-.034.034-.136.136c-.034.068-.102.102-.135.17-.136.136-.408.238-.577.102-.102-.068-.17-.17-.204-.272 0-.034-.034-.034-.034-.068-.034.17-.17.34-.271.51zM75.327 151.486c-.034 0-.068 0-.102-.034-.068-.034-.102-.068-.17-.136-.067-.102-.135-.238-.17-.34 0-.034-.033-.102-.067-.136-.034-.102-.136-.204-.204-.204-.034 0-.068.034-.101.068-.204.136-.34.306-.442.51l-.305-.136c.102-.272.305-.51.543-.646.068-.034.17-.102.272-.102.203-.034.407.136.508.374.034.068.034.102.068.17.034.102.068.17.102.238l.034.034s.068-.034.102-.136c.068-.136.17-.374.407-.374h.17c.068 0 .135-.068.203-.136.102-.102.272-.238.475-.204.204.034.306.238.373.374.034.068.068.17.136.204l-.17.272c-.135-.068-.203-.204-.237-.34-.068-.102-.102-.17-.136-.204-.034 0-.102.034-.203.136-.102.102-.272.238-.441.204h-.136c-.034 0-.102.136-.136.204-.068.238-.203.34-.373.34zM81.774 152.2c-.068 0-.136-.034-.204-.068-.102-.068-.17-.17-.237-.272-.034-.068-.068-.136-.102-.136 0 0-.034 0-.068.034-.102.068-.204.17-.271.306l-.272-.136c.102-.17.204-.306.373-.408.068-.034.136-.068.238-.068.204 0 .305.17.373.306.034.068.068.136.102.17.034.034.136 0 .17-.034.067-.068.101-.204.17-.306l.033-.068.068-.034c.271-.102.61.034.746.306l-.27.136c-.069-.102-.17-.17-.306-.17-.034.102-.102.238-.204.34-.068.068-.204.102-.34.102zM77.804 154.852c-.136-.034-.237-.17-.34-.272-.067-.102-.135-.17-.169-.136-.034 0-.068.034-.136.102-.068.068-.17.17-.305.17-.17 0-.305-.068-.407-.17-.068-.034-.136-.102-.17-.102s-.102.068-.17.102c-.101.102-.203.238-.407.204-.17 0-.305-.136-.373-.238-.034-.034-.068-.068-.068-.102-.068-.068-.203-.102-.305-.034-.102.068-.17.17-.136.272l-.305.068c-.034-.238.068-.51.305-.612.204-.102.51-.068.679.102.034.034.068.102.102.136.033.068.101.136.135.136s.102-.068.136-.102c.102-.102.203-.204.373-.204.17 0 .272.102.373.17.068.034.136.102.17.102s.068-.034.136-.102c.068-.068.17-.17.305-.17.204 0 .34.136.441.272.068.068.102.136.17.17l-.034.238zM83.199 155.668h-.068c-.17-.034-.237-.204-.272-.306-.033-.068-.033-.102-.067-.136-.034-.034-.102 0-.17.034-.068.068-.102.204-.136.306h-.034v.136h-.305l.068-.204c.034-.136.102-.306.237-.442.136-.136.407-.204.577-.034.102.068.136.17.17.272 0 .034.034.102.068.136 0 0 .068-.034.102-.068.033-.034.101-.068.135-.102.17-.068.306-.068.475-.034h.068c.102 0 .238 0 .238-.068l.101-.238.272.408-.272.17v-.034c-.101.068-.237.068-.407.068h-.102c-.101 0-.203-.034-.271 0-.034 0-.068.034-.102.068-.102 0-.17.068-.305.068zM80.926 157.777c-.102 0-.204-.068-.238-.102-.068-.034-.102-.102-.17-.17-.135-.136-.27-.273-.44-.307-.204-.034-.442.136-.611.273-.102.102-.204.034-.238.034l-.102-.068.034-.137c.034-.068.068-.136.136-.136h.034c.237-.17.509-.306.78-.272.272.034.441.238.611.374l.136.136.102-.102c.135-.136.271-.306.475-.34.17-.034.305.034.407.102.102.034.204.068.271.068l.068.307c-.17.034-.34-.035-.44-.069-.103-.034-.17-.068-.238-.068-.102 0-.204.136-.272.239-.034.034-.068.068-.102.136-.034.034-.101.102-.203.102 0 0 .034 0 0 0zM74.445 160.429c-.17 0-.34-.068-.475-.17-.102-.102-.17-.272-.17-.408 0-.136.034-.272.136-.374l.203.238c-.034.034-.034.102-.034.136 0 .068.034.136.068.204.102.102.272.102.407.068.136-.068.272-.17.408-.34l.237.204c-.17.238-.34.374-.543.442-.034-.034-.136 0-.237 0zM78.449 163.591c-.068-.068-.068-.136-.068-.238 0-.136.102-.238.203-.306.17-.136.408-.17.645-.102.238.068.407.204.51.442l-.306.136c-.034-.102-.17-.204-.306-.238-.135-.034-.271-.034-.373.068-.034.034-.068.102-.068.102l-.237.136zM83.946 168.182v-.307c.271 0 .644-.068.746-.272.136-.238-.102-.578-.34-.782l.204-.238c.441.374.611.816.441 1.156-.237.341-.678.409-1.051.443zM80.45 171.65c-.067 0-.135-.034-.237-.034h-.203c-.238-.034-.408-.136-.475-.306-.034-.102-.068-.204-.034-.34.067-.374.305-.748.644-.918l.136.272c-.238.136-.441.374-.475.68v.17c.034.068.136.136.237.136h.17c.102 0 .17 0 .272.034l-.034.306zM84.692 174.472c-.17 0-.373-.102-.475-.238-.136-.17-.204-.374-.136-.578l.306.068c-.034.102 0 .204.067.272.068.102.17.136.272.136.102 0 .17-.068.237-.17.068-.102.068-.204.034-.306l.272-.136c.102.17.068.408-.034.578-.102.204-.272.306-.475.34-.034 0-.068.034-.068.034zM81.774 178.213c-.068 0-.136 0-.237-.034-.238-.034-.476-.238-.543-.511-.068-.34.237-.612.373-.748l.203.238c-.17.136-.305.306-.271.476.034.137.17.205.271.239.17.034.34 0 .51-.034l.067.306c-.068.068-.237.068-.373.068zM84.454 182.259h-.033c-.204 0-.34-.102-.442-.272l.272-.17c.034.068.102.102.203.102.102 0 .17-.034.204-.068.034-.068.068-.136.034-.238-.034-.102-.068-.136-.136-.17l.136-.306c.17.068.272.204.34.408.033.17 0 .374-.102.51-.136.136-.306.204-.476.204zM84.081 185.387l-.237-.204c.17-.204.407-.306.644-.34.272-.034.51.068.713.204l-.204.238c-.135-.102-.305-.17-.475-.136-.203.034-.339.102-.44.238zM77.872 167.807l-.237-.204c.135-.17.17-.408.101-.578-.068-.204-.271-.34-.475-.34l.034-.306c.34.034.61.238.747.544.102.272.034.612-.17.884zM83.3 163.455c-.406-.102-.746-.476-.78-.884 0-.238.068-.442.204-.612.136-.17.34-.272.543-.272l.034.306c-.102 0-.238.068-.305.17-.102.102-.136.272-.136.374.034.272.237.51.543.578l-.102.34zM71.357 162.809c0-.272-.034-.51-.136-.68-.068-.102-.17-.17-.271-.17-.068 0-.102 0-.17.034l-.237-.238c.101-.102.271-.17.407-.136.203.034.407.136.509.306.17.272.203.612.203.85l-.305.034zM73.223 165.767c-.067-.17-.067-.34.034-.51.068-.17.204-.272.373-.34.17-.034.34 0 .476.102.135.102.237.272.271.442l-.305.034c0-.068-.068-.136-.136-.204-.068-.068-.17-.068-.238-.068-.067.034-.135.068-.17.17-.033.068-.033.17 0 .238l-.305.136zM69.186 165.869c-.272 0-.51-.102-.713-.34-.237-.238-.34-.544-.272-.85.035-.238.17-.408.34-.442l.102.306c-.068.034-.102.102-.136.204-.034.204.034.408.203.578.17.17.374.238.543.238l.034.306h-.101zM72.24 168.794c0-.136-.102-.273-.238-.341s-.305-.034-.407.034l-.17-.272c.204-.136.509-.17.746-.068.238.102.408.34.408.613l-.34.034zM64.47 167.977s-.035 0 0 0c-.17 0-.272-.068-.374-.102l-.068-.034.136-.306.102.034c.067.034.17.068.237.068.136 0 .272-.102.34-.204.067-.136.101-.306.135-.51l.306.068c-.034.204-.068.408-.204.612-.17.238-.373.374-.61.374zM68.066 170.426c-.102-.238-.204-.442-.374-.544-.067-.034-.203-.034-.27 0-.069.034-.069.068-.103.102l-.305-.068c.034-.136.136-.272.271-.34.17-.068.407-.068.577.034.272.17.407.476.51.68l-.306.136zM70.373 173.996h-.068l.034-.306c.272.034.51-.17.543-.442.034-.238-.136-.51-.407-.578l.068-.306c.407.102.712.544.644.952-.034.374-.407.68-.814.68zM65.046 172.942c-.136-.034-.238-.102-.305-.204-.068-.102-.102-.238-.068-.374.034-.136.102-.238.237-.306.102-.068.238-.102.374-.068l-.068.306c-.034 0-.102 0-.136.034-.034.034-.068.068-.068.102 0 .034 0 .102.034.136.034.034.068.068.102.068l-.102.306zM67.93 175.73c-.136 0-.305-.034-.441-.102-.34-.17-.577-.544-.577-.952h.305c0 .272.136.544.374.646.237.102.543.068.746-.102l.204.238c-.102.17-.34.272-.611.272zM70.44 178.349v-.306c.17 0 .34-.102.408-.272.068-.171.034-.375-.102-.477-.102-.068-.203-.204-.203-.34 0-.068.034-.136.068-.17l.203.238c.034-.034.034-.034.034-.068 0 0 0 .034.102.102.203.204.305.545.17.851-.068.272-.374.442-.68.442zM65.928 178.791c-.102-.034-.17-.102-.203-.204-.034-.102-.034-.238.068-.34.101-.136.271-.17.407-.204.271-.034.543-.034.814-.034l-.034.306c-.237-.034-.475-.034-.713.034-.067 0-.17.034-.203.102v.034l-.136.306zM68.303 182.123c-.102 0-.17 0-.237-.034-.34-.136-.577-.408-.713-.646l.272-.204c.17.238.339.442.576.544.102.034.272.034.374-.034.034-.034.102-.068.135-.17l.306.034c-.034.17-.136.306-.272.408-.17.068-.305.102-.44.102zM68.54 185.353c-.101 0-.203-.034-.27-.102-.102-.102-.17-.272-.136-.408.034-.204.203-.374.44-.476l.204-.102c.102-.034.17-.068.272-.102l.17.272c-.102.068-.204.102-.306.136-.068.034-.136.034-.17.068-.067.034-.237.136-.237.272 0 .034 0 .102.034.136l.034.034.068.306c-.034-.034-.068-.034-.102-.034z"/>
        <path fill="#0D6BAF" d="M74.038 158.694l4.479-.102-4.92-2.414.44 2.516z"/>
        <path fill="#E8BF82" d="M74.988 128.465h-.306c0-.272.102-.51.272-.816.475-.85 1.323-1.462 2.273-1.666l.068.306c-.848.17-1.629.748-2.07 1.496-.135.272-.203.476-.237.68zM79.772 124.521l-.204-.238c.374-.272.815-.442 1.222-.544.17-.068.373-.102.61-.102.272 0 .51.136.611.306l-.271.17c-.068-.102-.238-.17-.34-.17-.169 0-.339.034-.508.102-.374.102-.78.238-1.12.476zM82.961 126.697c-.203-.136-.373-.272-.576-.442-.306-.272-.611-.51-.985-.646-.101-.034-.339-.068-.475 0l-.17-.272c.238-.136.544-.102.747-.068.441.136.78.408 1.086.68.17.136.34.306.543.408l-.17.34z"/>
        <path fill="#48AFB2" d="M100.572 119.522c-30.674-28.699-42.041-23.7-42.143-23.632l-.136-.272c.102-.068 2.953-1.36 9.603.918 6.108 2.074 16.796 7.719 32.879 22.782l-.203.204z"/>
        <path fill="#ECA165" d="M135.453 150.738l-.306-.374.238-.238c.407.34 1.018.238 1.425 0 .475-.272.814-.782 1.12-1.19l.271.17c-.339.442-.678.986-1.221 1.292-.373.204-.882.34-1.357.204l-.17.136zM103.571 67.79l-.084.295 3.361.96.083-.294-3.36-.96zM150.45 69.605c-.373-.782 0-1.666.509-2.21.543-.578 1.29-.884 1.934-1.156l.136.306c-.611.272-1.323.578-1.832 1.088-.407.442-.747 1.224-.441 1.836l-.306.136z"/>
        <path fill="#F4D06F" d="M145.632 95.006l-1.561-10.881.95-7.753.306.034-.95 7.719 1.561 10.847-.306.034z"/>
        <path fill="#55C5C2" d="M77.77 93.544c-.305 0-.577-.068-.848-.238-.305-.204-.51-.476-.543-.782-.034-.238.034-.476.136-.782l.305.136c-.102.238-.136.442-.102.612.034.272.238.476.373.544.306.204.747.238 1.086.102.645-.238 1.086-.884 1.46-1.394l.27.17c-.373.544-.881 1.224-1.628 1.496-.136.102-.34.136-.509.136zM85.235 99.358l-.305-.102c.135-.408.067-.884-.17-1.292-.238-.408-.645-.714-1.052-.782-.068 0-.17.034-.204.034v-.034l-.271.136c-.068-.102-.034-.204.034-.306.102-.136.34-.204.509-.17.509.102.984.442 1.29.918.27.544.339 1.122.169 1.598zM93.005 95.822c-.373 0-.78-.136-1.12-.408-.44-.374-.678-.884-.644-1.394 0-.306.17-.612.373-.782.136-.136.305-.17.509-.17l-.034.306c-.102 0-.17.034-.271.068-.136.102-.238.34-.238.544-.034.408.17.816.543 1.122.373.306.814.408 1.188.306l.067.306c-.135.102-.271.102-.373.102zM94.295 104.289c-.238-.918-1.256-1.598-2.206-1.394l-.068-.306c1.086-.238 2.308.544 2.579 1.632l-.305.068zM98.841 112.79c-.644-.034-1.39-.102-2.035-.476-.611-.374-1.12-1.156-.815-1.904l.306.102c-.204.578.17 1.224.678 1.53.577.34 1.256.374 1.9.442l-.034.306zM102.268 105.309c-.712 0-1.425-.374-1.832-.952-.407-.612-.509-1.462-.204-2.142l.306.136c-.272.578-.204 1.292.17 1.836.373.51 1.017.85 1.628.816v.306h-.068zM68.71 94.428h-.135l.034-.306c.407.034.848-.17 1.052-.544.203-.34.203-.85-.034-1.19l.271-.17c.305.442.34 1.054.068 1.53-.305.408-.78.68-1.256.68zM101.963 117.992l.102-.238c.339-.714 1.119-1.19 1.9-1.122l-.034.306c-.543-.034-1.086.204-1.391.646 0 .068 0 .136-.034.204-.068.102-.17.204-.272.204h-.271zM106.272 122.923c-.509-.068-.984-.408-1.221-.884-.238-.476-.204-1.054.068-1.496l.271.17c-.204.34-.238.816-.068 1.19.17.374.543.646.95.714v.306zM86.273 92.81l-1.683.528.09.292 1.685-.528-.092-.292zM90.053 99.528c-.61-.476-1.018-1.224-1.086-2.006l.306-.034c.068.68.407 1.36.95 1.768l-.17.272zM97.11 99.597l-.135-.307c.577-.272 1.222-.408 1.866-.442l.034.306c-.61.034-1.221.204-1.764.443zM91.783 107.893l-.305-.102c.204-.544.509-1.02.984-1.394l.204.238c-.408.34-.713.782-.883 1.258zM99.961 109.797c-.645-.374-1.188-.884-1.56-1.53l.27-.17c.34.578.849 1.088 1.46 1.428l-.17.272zM100.64 116.02l.237-.442c.136-.238.339-.374.577-.442v.034c.339-.238.611-.544.848-.918l.272.17c-.374.578-.883 1.02-1.493 1.36l-.441.238zM105.492 118.264h-.306v1.156h.306v-1.156zM79.33 96.842l-.27-.17c.237-.374.61-.714 1.017-.884l.136.306c-.34.136-.679.442-.882.748zM85.201 103.507c-.577-.204-1.12-.544-1.56-.986l.203-.238c.407.408.916.714 1.459.918l-.102.306zM73.325 96.808l-.305-.034c.102-.782.34-1.53.678-2.21l.272.136c-.34.646-.543 1.36-.645 2.108zM65.69 93.102H63.69v.306h2.002v-.306zM72.884 91.946l-.204-.272c.51-.375 1.12-.545 1.73-.477l-.033.307c-.509-.034-1.052.136-1.493.442zM80.06 99.61l-.298.068.222.961.298-.069-.222-.96zM89.17 94.591l-1.168.217.056.3 1.168-.216-.056-.3zM89.957 102.064l-.849.428.137.273.85-.427-.138-.274zM96.602 103.201c-.306-.272-.475-.68-.475-1.088h.305c0 .306.136.646.373.85l-.203.238zM95.313 97.352c-.204-.68-.34-1.36-.34-2.074h.305c.034.68.136 1.326.34 1.972l-.305.102zM102.743 109.219l-.169-.272c.203-.136.475-.238.746-.204v.306c-.203.034-.407.068-.577.17zM93.94 107.418l-.173.253 1.065.728.172-.253-1.065-.728zM104.338 115.612l-.305-.034c.068-.612.339-1.224.78-1.666l.238.238c-.408.374-.645.918-.713 1.462z"/>
        <path fill="#FCF5C7" d="M174.066 157.096c-.135-7.378-.678-14.825.442-22.102 1.119-7.311 4.139-14.622 9.873-19.246.442-.34.917-.714 1.493-.714 1.256 0 1.799 1.632 1.799 2.89-.034 6.189-4.242 11.867-3.868 18.056.034.408.068.816.305 1.122.611.85 1.9.51 2.918.408 2.782-.238 5.293 2.177 5.836 4.931.543 2.754-.543 5.576-2.205 7.855-1.629 2.244-3.801 4.08-5.802 6.018-.781.748-1.527 1.564-1.799 2.585-.271 1.02.136 2.312 1.154 2.652.577.204 1.187.068 1.798.102 2.375.204 3.393 3.4 2.545 5.61-.848 2.245-2.816 3.775-4.445 5.543-2.918 3.162-4.716 7.141-6.175 11.187-1.188 3.264-1.697 8.399-3.835 10.983-2.511-4.012-.814-11.153-.576-15.539.441-7.413.542-14.86.542-22.341z"/>
        <path fill="#FCF5C7" d="M171.047 160.327c-.679-4.455-1.426-8.943-3.326-13.024-3.596-7.684-10.892-13.193-14.285-20.946-.373 3.843-.746 7.719-1.119 11.561-.136 1.531-.306 3.129.169 4.625.747 2.414 2.918 4.046 4.92 5.508-3.087 1.021-4.547 5.305-2.714 8.025 2.07 3.061 7.057 3.673 8.177 7.209.577 1.802-.136 3.74 0 5.611.204 3.162 2.545 5.372 4.072 7.922.984 1.633 1.798 6.937 2.918 6.903 5.395-.272 1.629-20.572 1.188-23.394z"/>
        <path fill="#000" d="M181.735 160.837l-2.816 1.768c.135-3.945-.136-7.889-.407-11.765-.068-1.258-.17-2.517-.238-3.775 1.188-2.55 3.495-4.522 6.175-5.304l-.101-.306c-2.613.748-4.852 2.584-6.142 4.964-.068-1.326-.136-2.618-.136-3.944-.169-9.861 1.765-17.206 5.87-22.477l-.237-.204c-4.174 5.339-6.108 12.752-5.938 22.681.034 2.788.238 5.644.407 8.365.34 5.066.679 10.269.17 15.403-.272 2.687-.781 5.373-1.29 7.957l-2.035 10.575.305.068 2.036-10.575c.509-2.618 1.018-5.304 1.289-7.991.102-1.088.17-2.21.238-3.298l3.02-1.87-.17-.272zM168.468 167.025l.95-2.516-.306-.102-.746 2.006c-.543-4.216-1.12-8.535-2.816-12.513-1.188-2.788-2.952-5.373-4.649-7.855-2.579-3.774-5.225-7.719-5.836-12.241l-.305.034c.61 4.624 3.291 8.569 5.87 12.377 1.696 2.483 3.427 5.067 4.614 7.787.204.442.373.884.509 1.326-1.934-1.156-3.834-2.38-5.632-3.672l-.17.272c1.934 1.394 3.936 2.686 5.972 3.91 1.154 3.435 1.629 7.073 2.104 10.643.441 3.503.916 7.107 2.035 10.473l.306-.102c-1.018-3.196-1.493-6.562-1.9-9.827z"/>
        <path fill="#FCF5C7" d="M12.962 7.924c2.443-2.245 5.53-4.455 8.788-3.91 4.682.781 6.616 6.324 7.567 10.982 2.34-8.263 10.62-13.873 19.137-14.86 2.748-.305 5.666-.17 8.041 1.259 2.952 1.802 4.411 5.338 4.954 8.773.577 3.434.407 6.937 1.052 10.337l-20.698.408c-3.868.068-7.736.136-11.638.238-3.767.068-7.533.136-11.3.238-6.277.136-12.588.374-18.865.34 1.73-.748 13.097-12.377 12.962-13.805z"/>
    </g>
    <defs>
        <clipPath id="clip0">
            <path fill="#fff" d="M0 0H193V230H0z"/>
        </clipPath>
    </defs>
</svg>
