<svg xmlns="http://www.w3.org/2000/svg" width="145" height="231" fill="none" viewBox="0 0 145 231">
    <path fill="#954627" d="M89.74 41.686c-.24-1.054-1.102-1.868-1.342-2.922-.24-1.103.192-2.205.48-3.307.574-2.491-.049-5.27-1.629-7.283-1.245-1.58-3.017-2.683-4.166-4.36-1.437-2.012-1.868-4.744-3.783-6.325-1.245-1.006-2.97-1.341-4.501-1.054-.91.144-1.82.527-2.778.623-1.293.144-2.586-.288-3.879-.527-1.293-.24-2.681-.336-3.83.335-.527.336-.958.815-1.341 1.294-1.054.719-2.299.958-3.64 1.198-1.101.191-2.25.431-3.304.91-2.011.959-3.448 2.923-3.783 5.127-.096.671-.096 1.342-.096 2.013 0 1.197 0 2.348-.574 3.306-.336.527-.862.958-1.437 1.39-.191.143-.43.335-.623.479-1.34 1.15-2.346 2.635-2.873 4.312-.24.766-.335 1.437-.287 2.012.096.91.527 1.677.814 2.204.479.815 1.102 1.582 1.772 2.3.622.623 1.245 1.007 1.867 1.054.096.096.192.144.288.24.335.24 1.58.623 1.772.91.239.336-.288 1.294-.24 1.773.192 1.007 1.15 1.725 2.155 2.06 1.628.48 3.4.192 5.028-.287 1.628-.527 3.16-1.246 4.837-1.629 3.543-.814 7.23 0 10.678 1.102.91.288 1.82.575 2.778.67 1.34.145 2.634-.19 3.926-.574 1.964-.67 3.783-1.63 5.46-2.875 1.292-1.054 2.585-2.54 2.25-4.169zm-32.037-20.89c-1.197.43-2.059 1.437-2.586 2.587-.479 1.15-.574 2.443-.479 3.69.096 1.005.288 2.06 0 3.066-.766 2.635-4.31 3.354-5.794 5.654-1.053 1.677-.862 3.88-.096 5.702.048.096.096.24.144.335-.287-.383-.575-.767-.814-1.198-.431-.718-.623-1.293-.67-1.82-.048-.48.047-1.007.239-1.63.479-1.485 1.389-2.827 2.586-3.833.191-.144.383-.335.574-.479.623-.48 1.245-.958 1.676-1.63.719-1.15.719-2.49.719-3.832 0-.623 0-1.294.096-1.87.239-1.868 1.532-3.593 3.208-4.407.91-.431 1.963-.623 3.065-.863.526-.096 1.101-.191 1.628-.335-.048 0-.048.048-.096.048-1.006.575-2.299.431-3.4.814z"/>
    <path fill="#FFCE74" d="M78.534 44.322l-15.707.143c-17.862.48-31.845 47.964-31.845 47.964h31.845c-.766 3.69-2.825 10.589-2.825 10.589l19.346 5.319c1.005-5.079 2.873-8.386 5.076-11.308 2.585-3.354 5.41-4.648 5.41-4.648h16.378c.191-4.36-8.093-44.034-27.678-48.06zM49.036 86.2L61.63 64.11c.143.863.718 22.713.91 23.575-1.58-.383-13.217-1.485-13.504-1.485z"/>
    <path fill="#FCBF7C" d="M74.799 51.413c3.543-1.916 2.394-7.427 2.442-7.091-.814-.048-2.682-.096-2.682-.096-.24-3.546.144-10.062.144-10.062l-6.513.191-1.293 9.967c-1.34.143-4.357.143-4.357.143s6.225 10.159 12.259 6.948z"/>
    <path fill="#272D5C" d="M119.381 224.867h-4.549l-.048-.144-27.822-98.418.383-.096 27.774 98.275h3.831l-13.648-98.179.383-.048 13.696 98.61zM36.872 224.867h-4.549l13.744-98.61.383.048-13.648 98.179h3.783l27.822-98.275.383.096-27.918 98.562z"/>
    <path fill="#9D9FB4" d="M107.409 131.959H44.055c-2.059 0-3.687-1.677-3.687-3.69 0-2.06 1.676-3.689 3.687-3.689h63.354c2.059 0 3.687 1.677 3.687 3.689 0 2.013-1.628 3.69-3.687 3.69z"/>
    <path fill="#D6D8E0" d="M127.186 100.047H16.233c-2.059 0-3.687-1.677-3.687-3.69 0-2.06 1.676-3.689 3.687-3.689h110.953c2.059 0 3.687 1.677 3.687 3.69 0 2.06-1.628 3.689-3.687 3.689z"/>
    <path fill="#272D5C" d="M3.879 231H0l.048-.24 21.07-130.952.383.048L.431 230.617h3.16l26.242-130.81.383.097L3.88 231zM145 231h-3.879l-.048-.192-26.289-130.904.383-.096 26.242 130.809h3.16l-21.07-130.761.383-.048L145 231z"/>
    <path fill="#ECA165" d="M74.511 41.782V35.89l-6.895 2.683-.192 1.581 7.087 1.63z"/>
    <path fill="#FCBF7C" d="M65.7 22.951c2.25-2.108 5.507-4.024 9.05-1.629 2.395 1.582 3.544 3.786 3.544 4.792 0 .479.048 13.704-6.847 14.04-5.172.239-7.28-4.888-7.136-8.194-.287-2.013-.766-6.996 1.39-9.009z"/>
    <path fill="#3AC0FD" d="M59.954 103.066s-10.679 8.96-4.406 19.597c8.668 14.662 36.442 17.106 36.442 17.106s-32.276 10.781-25.14 89.506l51.094-91.998s-6.177-18.351-41.613-29.803l-16.377-4.408z"/>
    <path fill="#F532AF" d="M66.418 223.19l3.927-.144 7.805 5.75-14.557.287 2.825-5.893z"/>
    <path fill="#272D5C" d="M74.847 37.805l-.048-.383.191-.048c.623-.048 1.245-.144 1.772-.431.575-.336 1.053-.959 1.34-1.725.288-.719.336-1.534.432-2.3l.383.048c-.096.766-.192 1.581-.48 2.348-.334.862-.861 1.58-1.531 1.916-.623.48-1.39.527-2.06.575z"/>
    <path fill="#272D5C" d="M77.384 33.924c1.293 0 2.682-.815 2.778-2.252.095-1.437-.719-2.252-2.012-2.252l-.766 4.504zM73.984 27.983s1.772-2.444 3.352-.288c.048 0-1.388-.814-3.352.288zM71.447 27.695s-1.916-2.348-3.353-.096c0 0 1.341-.91 3.353.096zM76.043 29.085c0 .383-.191.67-.383.67-.191 0-.383-.287-.383-.67 0-.384.192-.575.383-.575.192 0 .383.191.383.575zM69.914 28.845c0 .383-.191.67-.383.67s-.383-.287-.383-.67c0-.383.192-.575.383-.575.24 0 .383.192.383.575zM73.075 33.972c-.144 0-.24 0-.288-.048l.096-.144c.096.048.623.048.91-.191.24-.144.287-.384.24-.623 0-.048-.049-.096-.096-.096-.096-.048-.288 0-.431.096l-.096.096-.048-.144c-.527-1.485-.431-3.21.335-4.6l.192.096c-.719 1.293-.814 2.923-.335 4.312.143-.096.335-.096.478-.048.144.048.192.144.24.24.096.383-.048.67-.335.862-.288.144-.623.192-.862.192z"/>
    <path fill="#FFEDE4" d="M69.531 35.122s3.448.815 6.465 0c0 0-.814 3.162-3.065 3.306-2.25.096-3.4-3.306-3.4-3.306z"/>
    <path fill="#272D5C" d="M75.565 37.661c0 .432-.336.767-.767.767-.43 0-.766-.335-.766-.767 0-.43.335-.766.766-.766s.767.335.767.766zM117.811 137.137l-47.643 85.766.334.186 47.644-85.766-.335-.186z"/>
    <path fill="#E8B359" d="M88.83 59.415l5.65 9.391-1.772 3.067-1.34-3.402s-1.39-1.725-2.347-2.156c0 0-1.054-4.552-.192-6.9z"/>
    <path fill="#272D5C" d="M89.069 79.204v-.623h.335c1.963-1.341 3.16-3.641 3.16-6.037-.047-2.444-1.436-4.84-3.591-6.037l-.048-.048-.048-.048c-.048-.096-1.005-2.875 0-8.29l.383.048c-.862 4.888-.143 7.57-.048 8.05 2.203 1.294 3.64 3.785 3.688 6.325.047 2.587-1.341 5.127-3.544 6.516l-.287.144z"/>
    <path fill="#23AAFD" d="M65.892 205.03l.526 18.16 3.927-.144 26.242-47.532-30.695 29.516z"/>
    <path fill="#3AC0FD" d="M83.562 109.87s14.94-12.027 37.064-4.169c0 0 6.943 57.738-60.672 103.545l38.548-91.901-14.94-7.475z"/>
    <path fill="#272D5C" d="M103.339 166.314l-.335-.191c19.585-33.014 17.43-60.086 17.43-60.374l.383-.048c0 .24 2.155 27.456-17.478 60.613zM66.562 193.961l-.335-.143c14.318-33.301 34.143-80.642 34.334-81.073l.336.144c-.192.479-20.017 47.771-34.335 81.072zM98.407 117.489c-2.73-1.63-7.28-4.169-7.71-4.265 0 0 .048 0 .096-.048l-.096-.144h-.192l.096-.143c.096-.048.383-.192 7.997 4.264l-.191.336zM75.852 197.411l-.24-.287c.144-.144 14.319-12.458 20.831-21.706l.335.24c-6.56 9.247-20.782 21.61-20.926 21.753zM77.289 136.99c-20.783-5.558-23.704-18.831-23.704-18.974l.383-.096c.048.144 2.921 13.177 23.416 18.687l-.095.383z"/>
    <path fill="#E8B359" d="M61.63 64.063L49.036 86.2l-4.598-.48L61.63 64.064z"/>
    <path fill="#272D5C" d="M63.017 60.931L52.035 80.424l.334.188L63.35 61.12l-.334-.189zM49.06 86.014l-.042.38 23.805 2.586.041-.381-23.804-2.585zM72.213 52.228c-.335 0-.67-.048-1.006-.096-4.597-.767-8.667-7.283-8.811-7.523l.335-.192c.048.048 4.166 6.66 8.572 7.38 1.628.24 2.969-.096 3.974-1.055 1.39-1.293 2.107-3.737 1.82-6.325l.383-.047c.287 2.683-.479 5.222-1.963 6.612-.91.815-2.011 1.246-3.304 1.246z"/>
    <path fill="#954627" d="M63.928 29.516s5.316-2.54 10.056-6.996l4.214 6.373 1.485-2.875-2.826-6.708s-3.83.335-8.715 1.102c0 0-3.83 3.594-3.974 3.498-.192-.048-.24 5.606-.24 5.606z"/>
    <path fill="#272D5C" d="M64.455 33.924c-1.293 0-2.682-.815-2.777-2.252-.096-1.437 1.197-2.492 2.538-2.492l.239 4.744z"/>
    <path fill="#272D5C" d="M79.204 31.528l-.383-.048c0-.047.766-6.277-1.724-9.343-.814-1.006-1.867-1.581-3.112-1.725-2.921-.287-5.268.335-7.04 1.869-3.112 2.73-3.256 7.427-3.256 7.475h-.383c0-.192.144-4.936 3.4-7.763 1.82-1.629 4.31-2.252 7.326-1.964 1.39.143 2.538.766 3.4 1.868 2.538 3.259 1.82 9.392 1.772 9.631z"/>
    <path fill="#F9F9FA" d="M67.568 64.063L62.396 90.8h-28.78v1.629h18.676l55.309.24 6.416-28.367-46.45-.24z"/>
    <path fill="#D6D8E0" d="M91.894 79.97c-.67 1.438-1.963 2.205-2.97 1.774-1.005-.432-1.292-1.965-.622-3.402.67-1.438 1.964-2.204 2.97-1.773 1.005.431 1.292 1.964.622 3.402z"/>
    <path fill="#F532AF" d="M107.218 80.69l2.49 11.883h6.081l.384-1.198c1.053-.096 2.107-.671 2.921-1.486.718-.766 1.245-1.773 1.58-2.97.191-.815.287-1.63.191-2.3-.095-.623-.335-1.055-.67-1.294-.239-.192-.527-.24-.814-.288-.24-.048-.431-.048-.671-.096l.671-2.204h-12.163v-.047zm9.194 9.87l2.059-6.9c.239 0 .479.048.766.096.192.048.383.096.479.192.192.143.287.383.383.766.096.575.048 1.294-.143 2.013-.288 1.054-.767 1.964-1.389 2.635-.671.623-1.389 1.054-2.155 1.198z"/>
    <path fill="#272D5C" d="M113.443 92.812h-3.879l-2.538-12.075.383-.095 2.442 11.787h3.592v.383zM116.412 90.752l-.096-.384c.144-.048 3.113-.718 3.448-4.264l.383.048c-.335 3.833-3.687 4.6-3.735 4.6zM89.835 92.237H19.059v.383h70.776v-.383z"/>
    <path fill="#F532AF" d="M63.258 201.388l2.634 3.69s-4.837 10.35-9.05 6.9c-3.161-2.636 6.416-10.59 6.416-10.59z"/>
    <path fill="#272D5C" d="M62.588 90.848l-.383-.096 5.22-26.88 46.593.239v.383l-46.259-.192-5.171 26.546zM31.653 36.703H5.315V0h26.338v36.703zM5.699 36.32h25.57V.383H5.7V36.32z"/>
    <path fill="#3AC0FD" d="M14.94 12.89c1.725-2.061-.335-5.559 1.198-7.763.957-1.342 2.873-1.581 4.501-1.294 1.245.24 2.442.719 3.304 1.63 2.538 2.73.527 7.378 2.25 10.684.671 1.294 1.964 2.588 1.533 3.977-.479 1.438-2.346 1.678-3.879 1.534-1.484-.144-3.256-.384-4.262.718-1.388 1.582.096 3.977.336 6.086.24 2.348-1.245 4.6-3.256 5.798-2.012 1.245-4.406 1.58-6.753 1.724-1.34-1.629-1.723-4.025-1.005-5.989.144-.383.335-.815.287-1.246-.048-.623-.527-1.15-.958-1.581-3.591-3.881 2.203-3.21 3.257-5.319.527-1.102-.431-3.45.048-4.84.67-2.011 2.154-2.634 3.4-4.12z"/>
    <path fill="#272D5C" d="M23.895 25.443c-.24 0-.574-.048-.957-.144-1.39-.383-2.299-1.15-2.682-2.395-.192-.72-.383-1.486-.479-2.252-.048-.48-.096-1.007.144-1.438.24-.431.622-.67 1.053-.91.192-.144.383-.24.575-.384.67-.575 1.006-1.533 1.006-3.018v-.48c0-1.054-.048-2.108.478-3.018.575-1.102 1.868-1.82 3.113-1.677 1.245.096 2.394 1.054 2.73 2.252.239.815.143 1.677.047 2.492-.095.67-.143 1.341-.047 1.964.095.623.335 1.198.574 1.773.335.767.67 1.581.623 2.492-.096 1.389-1.293 2.635-2.682 2.779h-.43c-.528 0-1.006.047-1.198.383-.144.192-.24.383-.335.527-.431.575-.719 1.054-1.533 1.054zm1.916-15.429c-1.006 0-2.011.575-2.49 1.486-.431.862-.431 1.868-.431 2.827v.479c0 1.629-.383 2.683-1.15 3.354-.191.144-.43.288-.622.431-.383.24-.718.431-.91.767-.191.383-.143.814-.096 1.198.096.766.24 1.485.48 2.204.334 1.102 1.1 1.773 2.393 2.108 1.341.335 1.533.048 2.06-.814.095-.144.24-.336.335-.527.335-.48.958-.528 1.532-.528h.383c1.197-.095 2.251-1.197 2.347-2.395.048-.815-.288-1.534-.623-2.3-.24-.575-.526-1.198-.622-1.869-.096-.67 0-1.39.048-2.06.095-.815.191-1.63-.048-2.348-.335-1.054-1.293-1.869-2.395-1.965 0 0-.095-.048-.191-.048zM15.755 92.668L13.12 78.006h17.095l-3.783 14.662H15.755zM13.6 78.342l2.49 13.895h10.056l3.591-13.895H13.6z"/>
    <path fill="#272D5C" d="M18.388 78.15h-.048c-.287 0-.478-.192-.574-.431-.479-1.294-1.724-4.456-2.49-6.133-.48-1.007-.958-1.965-1.437-2.971-.67-1.342-1.34-2.731-1.963-4.12C9.96 60.23 7.662 53.904 9.48 47.771c.336-1.054 1.006-1.869 1.916-2.3 1.389-.623 2.73-.144 3.735 1.485 1.485 2.3 1.628 5.08 1.772 7.81.048.767.096 1.581.143 2.348.24 2.3.767 4.552 1.293 6.756.336 1.342.623 2.684.91 4.073.383 1.965 1.341 7.14-.24 9.87-.143.192-.382.336-.622.336zm-5.842-32.582c-.287 0-.622.047-.957.24-.767.383-1.39 1.101-1.677 2.06-1.82 5.989.48 12.266 2.347 16.434.622 1.39 1.293 2.78 1.963 4.073.48.959.958 1.965 1.437 2.971.766 1.63 1.915 4.552 2.538 6.181.048.096.143.192.24.192.095 0 .239-.048.287-.144 1.484-2.587.526-7.714.191-9.631-.24-1.342-.575-2.731-.862-4.025-.527-2.204-1.053-4.504-1.293-6.804-.096-.767-.096-1.581-.143-2.348-.144-2.683-.288-5.414-1.724-7.618-.575-.767-1.341-1.581-2.347-1.581zM20.543 77.575l-.287-.24c1.532-2.012 1.58-4.552 1.676-7.235.048-1.102.096-2.252.24-3.354.43-3.306 2.01-6.373 4.405-8.72 1.484-1.438 3.065-2.396 4.693-2.732 1.963-.43 3.926-.048 5.267 1.102l-.24.288c-1.292-1.054-3.112-1.438-4.98-1.006-1.58.335-3.064 1.245-4.5 2.635-2.3 2.252-3.832 5.27-4.263 8.481-.143 1.054-.191 2.204-.239 3.306-.096 2.636-.192 5.367-1.772 7.475z"/>
    <path fill="#272D5C" d="M17.718 74.22c-.335-3.832-1.102-7.618-2.203-11.307-.287-1.006-.67-2.06-.958-3.067-.526-1.533-1.053-3.162-1.436-4.743-.814-3.115-1.054-5.798-.719-8.146l.384.048c-.336 2.3-.096 4.935.67 8.002.431 1.581.958 3.162 1.437 4.696.335 1.006.67 2.06 1.005 3.066 1.102 3.69 1.82 7.523 2.203 11.356l-.383.096z"/>
    <path fill="#272D5C" d="M13.6 56.78c-1.628-.815-3.209-2.204-4.789-4.121l.287-.24c1.533 1.87 3.065 3.21 4.645 3.977l-.143.384zM15.994 63.632l-.287-.24c.766-1.006 1.34-2.252 1.484-3.258l.383.048c-.191 1.102-.766 2.395-1.58 3.45zM12.786 52.515l-.24-.335c1.389-.959 2.49-2.252 3.017-3.594l.383.144c-.575 1.39-1.724 2.779-3.16 3.785z"/>
    <path fill="#FFCE74" d="M33.712 52.563c.192-.096.383-.144.575-.144.191 0 .383.144.43.336.049.24-.143.431-.335.623-.43.383-.861.766-1.436.91-.623.144-1.916.288-1.054-.575.527-.479 1.15-.91 1.82-1.15zM32.084 58.026c.24.095.575.239.766 0 .144-.144.144-.432 0-.576-.144-.191-.335-.287-.527-.335-.287-.096-.526-.192-.814-.287-.287-.096-.574-.144-.862-.144-.67.048-.67.335-.143.623.479.287 1.053.479 1.58.718zM28.588 53.186c.096-.144.192-.287.383-.287.144 0 .24.095.288.191.047.096.047.24.047.383-.047.671-.287 1.39-.67 1.965-.143.192-.335.383-.575.335-.287-.766.192-1.868.527-2.587zM28.732 59.894c.048.048.096.096.096.192 0 .192-.192.287-.383.287-.67.096-1.341.048-2.012-.191-.095-.048-.239-.096-.287-.144-.144-.144-.192-.383-.096-.527.383-.719 2.251-.048 2.682.383zM25.092 55.294c.048-.24.24-.527.48-.479.239.048.335.384.335.623 0 .383.047.767.047 1.15 0 .383 0 .815-.191 1.102-.431.623-.67-.527-.719-.767-.095-.527-.095-1.102.048-1.629z"/>
    <path fill="#272D5C" d="M21.645 75.275l-.144-.335.144-.096c.574-.288 1.053-.767 1.436-1.246 1.964-2.3 2.873-4.456 2.682-6.42-.048-.288-.096-.48-.24-.528-.239-.144-.574.096-.861.336-1.198 1.198-2.06 2.683-2.538 4.264l-.384-.096c.48-1.677 1.437-3.21 2.634-4.456.479-.479.958-.623 1.341-.383.287.192.383.575.383.814.192 2.06-.718 4.313-2.777 6.709-.431.527-.958 1.15-1.676 1.437z"/>
    <path fill="#272D5C" d="M22.794 72.4l-.335-.24c.862-1.197 1.628-2.443 2.298-3.737l.335.192c-.67 1.341-1.436 2.587-2.298 3.785z"/>
</svg>
