<svg xmlns="http://www.w3.org/2000/svg" width="196" height="230" fill="none" viewBox="0 0 196 230">
    <g clip-path="url(#clip0)">
        <path fill="#FFB065" d="M104.501 154.155l-2.666-46.688-19.509 1.948s6.048 25.585 12.55 48.247c-4.616-1.624-5.267 25.844-.91 64.156l1.236.194c.065 0 11.705-44.935 9.299-67.857z"/>
        <path fill="#FFB065" d="M84.212 89.74l-12.29-3.572s-4.098 5.195-5.138 15.13c-1.626 15.325-1.3 40.455 1.04 51.559-11.38 11.298 3.512 73.116 3.512 73.116l1.04.065C72.311 214.155 84.212 89.74 84.212 89.74z"/>
        <path fill="#FF6235" d="M96.116 13.7c.52-2.012.52-2.661.715-4.87.13-2.142-2.146-4.22-3.707-5.649C91.37 1.623 91.76.324 89.483.064c-2.211-.26-3.837.78-6.048 1.104-2.211.26-3.772 1.234-4.877 3.182-1.43 2.533-2.016 4.61-2.862 6.818-.195.13-.39.325-.65.455-1.04.714-2.21 1.299-3.381 1.883-1.236.584-2.472 1.234-3.642 2.013-2.861 1.883-5.007 4.74-6.178 7.857-1.365 1.104-2.536 2.403-3.316 3.961-.65 1.234-1.04 2.598-1.496 3.896-.715 2.143-1.43 4.286-2.081 6.429-.846 2.597-1.756 5.454-1.04 8.117.975 3.96 4.812 6.363 8.388 8.311 1.366.78 2.797 1.559 4.357 1.948 1.561.39 3.252.325 4.617-.584 1.366-.909 2.081-2.403 3.317-3.441 2.861-2.403 7.478-1.624 10.145-4.156 1.495-1.429 2.015-3.637 2.21-5.65.196-2.078.196-4.156.911-6.104.91-2.337 2.796-4.09 4.292-6.104 2.341-3.116 3.772-6.883 4.097-10.779 0-1.883-.52-3.96-.13-5.52zm-32.97 8.572c1.235-2.467 3.056-4.675 5.332-6.233 1.106-.78 2.341-1.364 3.577-1.949 1.04-.52 2.08-1.038 3.056-1.688-.065.065-.065.13-.13.195-2.21 4.48-7.608 6.688-11.835 9.675z"/>
        <path fill="#FFB065" d="M84.795 23.896s.13 4.87-4.682 7.857l7.414 2.403 4.812-3.701s-3.837-2.338-2.276-8.767l-5.268 2.208z"/>
        <path fill="#FFB065" d="M72.247 33.376l7.869-1.623.455 12.987-6.893 3.377-2.601-4.546 1.17-10.195zM104.436 65.129l45.391 28.117s-34.726-9.35-52.089-21.883l-8.974-42.468c5.593.325 10.145 4.416 11.12 9.935l4.552 26.299z"/>
        <path fill="#FFB065" d="M80.113 31.752l2.731-.78L90.129 30l2.731.974-.52 5.974-9.755 1.298-2.47-6.493z"/>
        <path fill="#FFDAA3" d="M92.016 76.038S98 56.883 98.324 54.545c.52-4.286 5.268-4.48 1.56-11.364-1.82-3.441-6.372-13.052-7.282-13.376 0 0-1.17 4.87-3.447 5.194-1.886.325-2.731.974-7.739-2.272-.52-.325-1.495-1.234-2.016-1.299 0 0 3.772 10.78-5.722 16.818 0 0 2.536 2.663 2.536 8.117 0 5.195.975 17.533.975 17.533-15.607 8.766-23.475 32.532-24.32 44.09-.716 10.26 57.226-7.077 57.226-7.077-4.748-20.26-18.079-34.87-18.079-34.87z"/>
        <path fill="#FF6235" d="M130.276 178.54h38.758v-52.338h-38.758v52.338z"/>
        <path fill="#010E52" d="M141.246 126.362c-.521-8.441-1.106-18.052 2.861-26.428.585-1.234 1.431-2.793 2.796-3.961 1.431-1.17 3.317-1.624 4.878-1.17 2.731.78 3.836 3.962 4.487 6.235 2.146 8.051 3.186 16.428 3.251 24.74h-1.17c-.065-8.247-1.106-16.494-3.187-24.481-.52-2.013-1.496-4.74-3.642-5.39-1.17-.324-2.601 0-3.771.975-1.171.974-1.951 2.402-2.536 3.506-3.837 8.052-3.252 17.468-2.732 25.844l-1.235.13zM33.883 117.856c-.455-2.727.13-12.792 7.478-14.286.52-.129 1.106 0 1.626.39 3.056 2.208 4.357 13.636 4.357 13.766l-1.17.13c-.196-2.402-1.691-11.299-3.902-12.922-.325-.195-.52-.195-.65-.195-6.373 1.299-6.959 10.585-6.569 12.922l-1.17.195z"/>
        <path fill="#FFDAA3" d="M112.307 228.961c-.195.454-.65.844-1.301.844l-14.891-.195c-.911 0-1.691-.39-2.212-1.039-.585-.649-.845-1.558-.715-2.532l.78-4.286 1.821.26 9.43 2.078c1.886.454 3.706 1.168 5.332 2.272l1.236.78c.65.519.78 1.233.52 1.818z"/>
        <path fill="#B0AEB6" d="M112.306 228.961c-.195.455-.65.845-1.301.845l-14.892-.195c-.91 0-1.69-.39-2.21-1.039l18.403.389z"/>
        <path fill="#010E52" d="M101.573 224.48l-.26-.065c.065-.324.325-1.039 1.106-1.039v.26c-.716.065-.846.844-.846.844zM103.395 224.74l-.26-.065c.065-.324.325-1.039 1.105-1.039v.26c-.715.065-.78.844-.845.844zM105.222 225.259l-.261-.065c.065-.324.326-1.039 1.106-1.039v.26c-.715 0-.845.779-.845.844z"/>
        <path fill="#FFB065" d="M96.504 11.622c-.39-1.299-1.365-.714-2.016-.065v-.195c.196-2.922-1.17-5.78-3.641-7.467-2.601-1.754-6.113-2.922-9.234-.065-2.146 1.948-2.992 4.935-2.406 7.727.065.454.195.974.325 1.428-.91-.519-1.756-.649-1.821-.064-.13 1.233.975 2.662.975 2.662s1.106 1.104 1.951 1.169c1.496 4.415 3.902 8.766 7.609 7.727 3.511-.974 5.137-5.195 5.852-9.22 1.04-.325 2.797-2.079 2.406-3.637z"/>
        <path fill="#010E52" d="M91.302 12.337c0 .52-.26.65-.585.65-.325 0-.585-.13-.585-.65s.26-.909.585-.909c.325 0 .585.39.585.91zM84.02 12.662c0 .52-.261.91-.586.91-.325 0-.585-.39-.585-.91s.26-.91.585-.91c.26 0 .585.39.585.91zM89.61 10.779s.39-2.273 2.34-1.364c0 0-1.495-.26-2.34 1.364zM81.94 10.974s1.105-1.688 2.861-.455c0 0-1.105-.324-2.861.455zM86.554 16.493c-.195-.065-.325-.195-.325-.195l.13-.13s.585.455 1.236.39c.39-.065.65-.325.91-.714l.13.13c-.26.454-.65.714-1.04.779-.39 0-.78-.13-1.04-.26z"/>
        <path fill="#FFEDE4" d="M83.89 18.051s3.836 1.884 7.347-.909c0 .065-3.186 9.351-7.348.91z"/>
        <path fill="#F56D56" d="M84.275 18.83s2.081 2.338 6.113.195c0 .065-2.536 5.974-6.113-.194z"/>
        <path fill="#FFDAA3" d="M66.197 228.765s4.877-10.26 10.73 0h-10.73z"/>
        <path fill="#B0AEB6" d="M66.197 228.766v.26c0 .324.26.584.585.584h9.624c.456 0 .716-.455.52-.844h-10.73z"/>
        <path fill="#010E52" d="M70.1 225.714l-.196-.195s1.561-1.363 3.057 0l-.195.195c-1.301-1.169-2.602 0-2.667 0z"/>
        <path fill="#010E52" d="M70.036 225.065l-.195-.195s1.56-1.364 3.056 0l-.195.195c-1.3-1.169-2.601-.065-2.666 0z"/>
        <path fill="#C92200" d="M83.563 52.662c-1.105 0-2.21-.26-3.186-.715l.195-.324c1.69.779 3.707.909 5.462.26 1.756-.65 3.252-2.014 4.032-3.702l.325.13c-.845 1.818-2.34 3.247-4.226 3.896-.91.26-1.756.455-2.602.455zM97.741 52.467c-2.341 0-4.682-1.234-5.983-3.182l.326-.194c1.3 1.948 3.706 3.117 6.047 2.987v.39h-.39z"/>
        <path fill="#5345C6" d="M75.042 32.791s5.788 9.416-2.861 13.182c0 0 3.641 4.74 3.576 9.026-.065 4.22-2.146 14.935-2.146 14.935s7.219 2.727 8.26-4.35l3.836-30.455-4.422-4.156-6.243 1.818zM91.304 29.35s2.731.519 4.487 2.402c0 0-.13 3.117.78 4.87.846 1.688 8.78 9.545 2.927 15.13 0 0-2.666 16.234-2.471 19.675 0 0-6.633-.584-5.203-7.792 1.561-8.052 3.382-23.052-.52-34.286z"/>
        <path fill="#FF6235" d="M86.946 8.117c1.756 1.298 3.837 1.948 5.918 2.532.52.13 1.106 1.299 1.56.91.391-.326.586-1.884.586-2.403.13-1.884-.39-2.858-1.626-4.351-.715-.844-1.17-2.533-2.276-2.792-1.105-.26-2.21-.26-3.316-.26-.846 0-1.691 0-2.471.325-2.992 1.363.13 4.87 1.625 6.039z"/>
        <path fill="#FF6235" d="M79.727 12.792c-.26.194-.52.324-.78.194s-.325-.454-.325-.714l-.39-3.701c-.13-1.04-.195-2.143.13-3.117.325-.974.975-1.753 1.69-2.468.456-.52.91-.974 1.561-1.298.715-.325 1.496-.325 2.211-.26.455 0 .91 0 1.3.195.586.26.911.844.911 1.493 0 .39-.195.78-.455 1.104-.195.195-.52.325-.65.52-.196.26-.196.779-.326 1.104-.13.39-.26.714-.39 1.103-.585 1.494-1.43 2.858-2.47 4.026-.586.65-1.301 1.3-2.017 1.819z"/>
        <path fill="#FFB065" d="M71.797 45.064s-13.2 24.155-31.474 54.675c0 0 15.412-59.675 31.93-66.364l-.456 11.689z"/>
        <path fill="#FFE13F" d="M150.943 145.44l27.664-6.206-5.901-26.229-27.664 6.206 5.901 26.229z"/>
        <path fill="#010E52" d="M147.748 119.349c-1.106-6.558-1.236-13.246-.39-19.87.26-1.753.78-4.156 2.796-5 1.626-.649 3.511 0 5.657 1.948 5.398 4.871 9.56 11.104 12.096 17.922l-1.105.39c-2.472-6.688-6.503-12.727-11.771-17.467-1.756-1.559-3.251-2.143-4.357-1.689-1.105.455-1.756 1.754-2.081 4.026-.845 6.494-.715 13.052.39 19.546l-1.235.194z"/>
        <path fill="#5345C6" d="M53.588 116.428H27.706v34.481h25.882v-34.481z"/>
        <path fill="#FFA32A" d="M40.638 114.853l-16.547-4.056-3.596 14.631 16.547 4.056 3.596-14.631z"/>
        <path fill="#010E52" d="M37.98 114.48l-1.171-.325 1.82-6.103c.26-.845.52-1.689.456-2.533-.065-.649-.455-1.493-1.106-1.753-.845-.325-1.82.26-2.6.779-3.252 2.143-6.179 4.805-8.52 7.922l-.975-.714c2.47-3.247 5.462-5.974 8.844-8.247 1.04-.649 2.34-1.364 3.706-.909 1.041.39 1.756 1.494 1.886 2.727.065 1.039-.195 2.078-.455 2.987l-1.886 6.169z"/>
        <path fill="#FFB065" d="M41.49 103.506c-.324.909-.715 1.883-1.625 2.273-.845.389-1.95 0-2.471-.715-.585-.714-.715-1.753-.455-2.662.195-.909.715-1.753 1.235-2.532.39-.585.91-1.17 1.561-1.3.91-.259 2.406.39 2.731 1.3.39 1.039-.65 2.662-.975 3.636z"/>
        <path fill="#BDBB18" d="M196.002 195.583H137.41v34.416h58.592v-34.416z"/>
        <path fill="#FF6235" d="M51.308 195.583H12.29v34.416h39.018v-34.416z"/>
        <path fill="#010E52" d="M20.483 198.052c-.91-3.961-.39-7.922 1.366-10.844 2.08-3.442 6.047-5.455 9.624-4.87 2.991.454 5.853 2.662 7.674 5.909 1.56 2.857 2.21 6.039 2.86 9.156l-1.17.26c-.585-2.987-1.235-6.104-2.73-8.832-1.627-2.922-4.163-4.87-6.829-5.324-3.121-.455-6.633 1.298-8.454 4.35-1.626 2.663-2.08 6.299-1.236 9.935l-1.105.26z"/>
        <path fill="#FFE13F" d="M26.337 206.818H0v23.181h26.337v-23.181z"/>
        <path fill="#010E52" d="M21.264 208.376l-1.17-.26c.585-2.468.26-4.87-.846-6.688-1.235-2.013-3.511-3.182-5.592-2.858-1.756.26-3.447 1.624-4.552 3.572-1.04 1.818-1.43 3.961-1.886 5.974l-1.17-.26c.455-2.143.91-4.351 2.015-6.364 1.236-2.272 3.252-3.831 5.398-4.155 2.536-.39 5.332 1.039 6.763 3.441 1.3 2.078 1.69 4.87 1.04 7.598z"/>
        <path fill="#FFB065" d="M148.595 96.169c.651.714 1.431 1.429 2.406 1.429.911 0 1.756-.78 1.951-1.689.195-.909-.13-1.883-.65-2.662-.585-.78-1.366-1.299-2.146-1.753-.585-.325-1.301-.65-1.951-.585-.91.13-2.016 1.299-1.951 2.273.065 1.169 1.626 2.208 2.341 2.987z"/>
        <path fill="#FF6235" d="M90.005 84.155c-.26 0-.52-.195-.586-.39l-.585-1.948c-.065-.325.065-.65.39-.714.325-.065.65.065.716.39l.585 1.947c.065.325-.065.65-.39.715h-.13zM83.756 96.428c-.26 0-.52-.195-.585-.52-.065-.324.195-.649.52-.649l2.016-.325c.326-.065.65.195.65.52.066.325-.195.65-.52.65l-2.016.324h-.065zM77.191 91.882c-.065 0-.13 0-.195-.065l-1.886-.78c-.325-.13-.455-.454-.325-.779.13-.324.455-.454.78-.324l1.886.779c.326.13.456.455.326.78-.13.259-.39.389-.586.389zM71.792 117.208c-.26 0-.52-.195-.585-.52l-.325-2.013c-.065-.324.195-.649.52-.649.325-.065.65.195.65.52l.325 2.013c.065.324-.195.649-.52.649h-.065zM84.216 61.688c-.26 0-.52-.195-.585-.39l-.585-1.948c-.066-.325.065-.65.39-.714.325-.065.65.065.715.39l.585 1.947c.065.325-.065.65-.39.715h-.13zM91.887 56.493c-.195 0-.39-.065-.52-.26l-1.17-1.688c-.196-.26-.13-.65.13-.844.26-.195.65-.13.845.13l1.17 1.688c.195.26.13.65-.13.844-.13.13-.195.13-.325.13zM88.312 39.544h-.065l-2.016-.325c-.325-.065-.52-.324-.52-.649.065-.325.39-.52.65-.52l2.016.325c.325.065.52.325.52.65-.065.324-.325.519-.585.519z"/>
        <path fill="#fff" d="M81.154 43.571s-.065 0 0 0l-.65-.13c-.13 0-.195-.13-.195-.194 0-.13.13-.195.195-.195l.585.13c.13 0 .195.13.195.194.065.13-.065.195-.13.195zM146.512 140.519l-.65-.13c-.195-.065-.39-.26-.325-.454.065-.195.26-.39.455-.325l.585.13c.195.065.39.26.325.454 0 .13-.195.325-.39.325zM78.814 37.792c-.065 0-.196-.065-.196-.13l-.195-.585c0-.13.065-.194.13-.26.13 0 .196.066.26.13l.196.585c0 .13-.065.195-.195.26zM156.007 163.636c-.195 0-.325-.13-.39-.26l-.195-.584c-.065-.195.065-.455.26-.455.195-.064.456.065.456.26l.195.585c.065.194-.065.454-.261.454 0-.065 0 0-.065 0zM152.041 152.791c-.195 0-.325-.129-.39-.259l-.195-.585c-.065-.195.065-.454.26-.454.195-.065.455.065.455.259l.195.585c.065.195-.065.454-.26.454h-.065zM148.725 173.506c-.195 0-.325-.13-.39-.26l-.196-.585c-.065-.194.066-.454.261-.454.195-.065.455.065.455.26l.195.584c.065.195-.065.455-.26.455h-.065zM81.417 33.832h-.065c-.13-.065-.13-.13-.13-.26l.195-.585c.065-.13.13-.13.26-.13.13.066.13.13.13.26l-.195.585c0 .065-.065.13-.195.13zM77.256 33.636s-.065 0 0 0l-.65-.13c-.13 0-.195-.13-.195-.195 0-.13.13-.194.195-.194l.585.13c.13 0 .195.13.195.194 0 .13-.065.195-.13.195zM83.758 40.064h-.065c-.065-.065-.13-.195-.065-.26l.325-.52c.065-.064.195-.129.26-.064s.13.195.065.26l-.325.52c-.065.064-.13.064-.195.064zM97.22 55.518h-.065c-.065-.065-.13-.194-.065-.26l.325-.519c.065-.065.195-.13.26-.065s.13.195.065.26l-.325.52c-.065.064-.13.064-.195.064zM133.51 152.792c-.066 0-.131 0-.196-.065-.195-.13-.26-.325-.13-.52l.326-.519c.13-.195.325-.26.52-.13s.26.325.13.52l-.325.519c-.065.13-.195.195-.325.195zM93.576 32.208h-.065c-.065-.065-.13-.195-.065-.26l.325-.52c.065-.064.195-.13.26-.064.065.064.13.194.065.26l-.325.519c-.065 0-.13.065-.195.065zM80.572 49.545s-.065 0 0 0c-.13 0-.195-.13-.195-.195l.065-.65c0-.13.13-.194.195-.194.13 0 .195.13.195.195l-.065.649c0 .13-.13.195-.195.195zM98.846 49.285c-.13 0-.195-.13-.195-.195l.065-.65c0-.13.13-.194.195-.194.13 0 .195.13.195.195l-.065.649c0 .13-.13.195-.195.195zM93.839 64.35h-.13l-.52-.325c-.065-.065-.13-.195-.065-.26s.195-.13.26-.065l.52.325c.065.065.13.194.065.26 0 0-.065.064-.13.064zM94.615 37.077c-.065 0-.065 0-.13-.066l-.455-.39c-.065-.064-.065-.194 0-.259s.195-.065.26 0l.455.39c.065.065.065.195 0 .26 0 .065-.065.065-.13.065zM75.565 68.181c-.13 0-.195-.13-.195-.194l.065-.65c0-.13.13-.195.195-.195.13 0 .195.13.195.195l-.065.65c0 .13-.065.194-.195.194zM77.124 57.012c-.13 0-.195-.065-.195-.195s.065-.195.195-.195h.65c.13 0 .195.065.195.195s-.065.195-.195.195h-.65zM133.639 172.922c-.195 0-.39-.195-.39-.39s.13-.39.39-.39h.65c.195 0 .39.13.39.39 0 .195-.13.39-.39.39h-.65c.065 0 .065 0 0 0zM95.397 60c-.13 0-.195-.065-.195-.195s.065-.194.195-.194h.65c.13 0 .196.065.196.194 0 .13-.065.195-.195.195h-.65zM163.743 171.883c-.195 0-.39-.195-.39-.39s.13-.389.39-.389h.65c.196 0 .391.129.391.389 0 .195-.13.39-.391.39h-.65zM95.07 50.585c-.13 0-.195-.065-.195-.195s.065-.195.195-.195h.65c.13 0 .195.065.195.195s-.065.195-.195.195h-.65zM75.045 47.793h-.065c-.13-.065-.13-.195-.065-.26l.26-.585c.065-.13.195-.13.26-.065.13.065.13.195.065.26l-.26.585c-.065.065-.13.065-.195.065zM95.266 68.182h-.065c-.065-.065-.13-.195-.065-.26l.26-.584c.066-.13.195-.13.26-.065.066.065.13.195.066.26l-.26.584c-.066 0-.13.065-.196.065zM76.344 62.207h-.065c-.13-.065-.13-.195-.065-.26l.26-.585c.065-.13.195-.13.26-.065.13.066.13.195.065.26l-.26.585c-.065 0-.13.065-.195.065zM80.832 54.155h-.065c-.065-.065-.13-.195-.065-.26l.26-.584c.065-.13.195-.13.26-.065s.13.195.065.26l-.26.584c-.065.065-.13.065-.195.065zM98.002 43.506h-.065c-.065-.065-.13-.195-.065-.26l.26-.585c.065-.065.195-.13.26-.065s.13.195.065.26l-.26.585c0 .065-.13.065-.195.065zM79.534 65.064h-.065c-.13-.065-.13-.194-.065-.26l.26-.584c.065-.13.195-.13.26-.065.13.065.13.195.065.26l-.26.584c-.065 0-.13.065-.195.065zM135.847 137.336c-.065 0-.13 0-.195-.064-.195-.13-.261-.325-.195-.52l.26-.584c.13-.195.325-.26.52-.195.195.13.26.325.195.519l-.26.585c0 .195-.13.259-.325.259zM160.885 152.792c-.065 0-.13 0-.195-.065-.195-.13-.26-.325-.195-.52l.26-.584c.13-.195.325-.26.52-.195.196.13.261.325.196.52l-.261.584c-.065.195-.195.26-.325.26zM144.561 161.624c-.065 0-.13 0-.195-.065-.195-.13-.26-.325-.195-.52l.26-.584c.13-.195.325-.26.52-.195.195.13.26.325.195.519l-.26.585c-.065.195-.195.26-.325.26zM81.416 61.428h-.065l-.585-.26c-.13-.065-.13-.13-.13-.26.065-.13.13-.13.26-.13l.585.26c.13.066.13.13.13.26-.065.065-.13.13-.195.13z"/>
        <path fill="#FF6235" d="M80.965 71.623c-.195 0-.39-.065-.455-.26-.195-.26-.13-.649.13-.844l1.69-1.233c.26-.195.651-.13.846.13.195.26.13.649-.13.844l-1.69 1.233c-.196.065-.326.13-.39.13zM73.356 83.117c-.13 0-.195 0-.325-.065-.26-.195-.39-.52-.195-.844l1.106-1.753c.195-.26.52-.39.845-.195.26.195.39.52.195.844l-1.105 1.753c-.13.13-.326.26-.52.26zM66.594 87.792c-.26 0-.52-.195-.585-.52-.065-.325.13-.65.455-.714l2.016-.325c.325-.065.65.13.715.455.066.324-.13.649-.455.714l-2.016.325c-.065.065-.13.065-.13.065zM96.828 93.96c-.13 0-.196 0-.326-.064-.26-.195-.39-.52-.195-.845l1.106-1.753c.195-.26.52-.39.845-.195.26.195.39.52.195.845L97.348 93.7c-.13.13-.325.26-.52.26z"/>
        <path fill="#FFA32A" d="M90.717 91.104c-.325 0-.585-.26-.585-.584 0-.325.26-.585.585-.585h2.081c.325 0 .585.26.585.585 0 .324-.26.584-.585.584h-2.08z"/>
        <path fill="#FF6235" d="M98.845 101.038c-.325 0-.585-.259-.585-.584 0-.325.26-.584.585-.584l2.081-.065c.325 0 .585.259.585.584 0 .325-.26.585-.585.585l-2.08.064zM85.974 113.246c-.13 0-.196 0-.326-.065-.26-.194-.39-.519-.195-.844l1.106-1.753c.195-.26.52-.39.845-.195.26.195.39.52.195.844l-1.105 1.754c-.13.194-.325.259-.52.259zM60.476 114.285c-.325 0-.585-.26-.585-.52 0-.325.195-.584.52-.649l2.08-.13c.326 0 .586.195.651.519 0 .325-.195.585-.52.65l-2.146.13z"/>
        <path fill="#FFA32A" d="M68.15 94.805c-.26 0-.456-.13-.52-.324-.13-.325 0-.65.325-.78l1.886-.844c.325-.13.65 0 .78.325s0 .65-.325.78l-1.886.843h-.26zM84.992 88.96c-.065 0-.065 0 0 0l-2.08-.13c-.326 0-.586-.325-.586-.65 0-.324.325-.584.65-.584l2.081.13c.326 0 .586.325.586.65-.13.324-.39.584-.65.584zM64.835 105.649c-.26 0-.455-.13-.585-.39l-.65-1.948c-.13-.324.065-.649.39-.779s.65.065.78.39l.65 1.948c.13.324-.064.649-.39.779h-.195zM97.352 109.026c-.13 0-.195 0-.26-.065l-1.821-1.039c-.26-.13-.39-.519-.195-.779.13-.26.52-.39.78-.195l1.821 1.039c.26.13.39.519.195.779-.13.13-.325.26-.52.26zM105.412 108.507h-.196c-.325-.13-.455-.455-.39-.78l.651-1.948c.13-.324.455-.454.78-.389.325.13.455.454.39.779l-.65 1.948c-.065.26-.325.39-.585.39zM82.652 78.831h-.065c-.325-.065-.52-.324-.52-.65l.325-2.012c.065-.325.325-.52.65-.52.326.065.52.325.52.65l-.325 2.013c-.065.324-.26.52-.585.52zM90.196 70.91c-.195 0-.39-.13-.52-.325l-.976-1.818c-.13-.26-.065-.65.26-.78.26-.13.65-.064.78.26l.976 1.818c.13.26.065.65-.26.78-.13 0-.195.065-.26.065zM87.92 62.273c-.194 0-.39-.065-.454-.26-.196-.26-.13-.65.13-.844l1.69-1.234c.26-.195.65-.13.846.13.195.26.13.65-.13.844l-1.691 1.234c-.195.13-.325.13-.39.13zM87.534 46.428h-.13l-2.016-.39c-.326-.064-.52-.39-.456-.714.065-.325.39-.52.716-.454l2.016.39c.325.064.52.389.455.714-.065.26-.325.454-.585.454zM90.456 44.87c-.195 0-.39-.065-.455-.26-.195-.26-.13-.649.13-.843l1.691-1.234c.26-.195.65-.13.845.13.195.26.13.649-.13.844l-1.69 1.233c-.13.065-.26.13-.39.13zM77.32 107.531h-.13c-.324-.064-.52-.389-.454-.714l.455-2.013c.065-.325.39-.519.715-.454.325.065.52.389.455.714l-.455 2.013c-.065.26-.325.454-.585.454zM88.312 102.337h-.13c-.326-.065-.52-.389-.456-.714l.456-2.013c.065-.325.39-.52.715-.454.325.064.52.39.455.714l-.455 2.013c-.13.26-.325.454-.585.454z"/>
        <path fill="#FF6235" d="M72.9 101.818c-.195 0-.325-.065-.455-.26l-1.235-1.624c-.195-.26-.13-.649.13-.844.26-.195.65-.13.845.13l1.236 1.624c.195.259.13.649-.13.844-.13.13-.26.13-.39.13zM60.802 98.57c-.13 0-.26-.065-.39-.13-.26-.194-.26-.584-.065-.844l1.3-1.623c.196-.26.586-.26.846-.065s.26.584.065.844l-1.3 1.623c-.066.13-.26.195-.456.195z"/>
        <path fill="#E8EB50" d="M150.419 198.245l-10.488 13.242.306.241 10.488-13.241-.306-.242zM193.928 215.201l-10.49 13.241.306.242 10.49-13.241-.306-.242zM155.281 199.357l-15.927 21.433.314.232 15.927-21.433-.314-.232zM192.969 207.666l-15.929 21.431.313.232 15.929-21.431-.313-.232zM162.39 199.364l-20.847 28.539.315.23 20.847-28.539-.315-.23zM190.925 200.599l-20.851 28.536.315.229 20.851-28.535-.315-.23zM170.014 198.907l-21.54 30.2.318.226 21.54-30.2-.318-.226zM185.024 198.541l-21.545 30.2.318.226 21.544-30.2-.317-.226zM176.881 199.179l-20.078 29.004.321.222 20.078-29.005-.321-.221z"/>
        <path fill="#010E52" d="M156.784 200.844c-.91-3.961-.39-7.922 1.366-10.844 2.081-3.442 6.048-5.455 9.624-4.87 2.992.454 5.853 2.662 7.674 5.909 1.561 2.857 2.211 6.039 2.861 9.156l-1.17.259c-.586-2.987-1.236-6.104-2.732-8.831-1.625-2.922-4.162-4.87-6.828-5.325-3.121-.454-6.633 1.299-8.454 4.351-1.625 2.662-2.081 6.299-1.235 9.935l-1.106.26z"/>
        <path fill="#FF6235" d="M5.463 214.869c0 .52-.456.974-.976.974s-.975-.454-.975-.974c0-.519.455-.974.975-.974s.976.455.976.974zM3.123 208.83c0 .52-.455.975-.975.975s-.976-.455-.976-.975c0-.519.456-.974.976-.974s.975.455.975.974zM15.154 210.844c0 .519-.455.974-.975.974s-.976-.455-.976-.974c0-.52.455-.975.976-.975.52-.064.975.39.975.975zM6.696 222.272c.538 0 .975-.437.975-.974 0-.538-.437-.975-.975-.975-.54 0-.976.437-.976.975 0 .537.437.974.976.974zM12.293 227.987c.539 0 .976-.436.976-.974s-.437-.974-.976-.974c-.538 0-.975.436-.975.974s.437.974.975.974zM14.31 220.389c.54 0 .976-.436.976-.974s-.437-.974-.976-.974c-.538 0-.975.436-.975.974s.437.974.975.974zM20.615 214.869c0 .52-.455.974-.975.974s-.976-.454-.976-.974c0-.519.455-.974.976-.974.585 0 .975.455.975.974zM3.446 227.987c0 .519-.455.974-.975.974s-.976-.455-.976-.974c0-.52.455-.974.976-.974.585 0 .975.39.975.974zM22.888 226.947c.539 0 .975-.436.975-.974s-.436-.974-.975-.974c-.539 0-.975.436-.975.974s.436.974.975.974z"/>
        <path fill="#010E52" d="M165.829 128.506c0 .39-.325.714-.715.714-.39 0-.716-.324-.716-.714 0-.39.326-.714.716-.714.39 0 .715.324.715.714zM163.289 120.908c0 .39-.325.715-.715.715-.39 0-.716-.325-.716-.715 0-.389.326-.714.716-.714.39 0 .715.325.715.714zM156.138 126.428c0 .39-.325.715-.716.715-.39 0-.715-.325-.715-.715 0-.389.325-.714.715-.714.391 0 .716.325.716.714zM162.576 140.065c0 .389-.325.714-.716.714-.39 0-.715-.325-.715-.714 0-.39.325-.714.715-.714.391 0 .716.324.716.714zM155.419 137.792c0 .39-.325.714-.715.714-.39 0-.715-.324-.715-.714 0-.39.325-.714.715-.714.39 0 .715.324.715.714zM151.258 119.48c0 .39-.325.714-.716.714-.39 0-.715-.324-.715-.714 0-.389.325-.714.715-.714.456 0 .716.325.716.714zM171.612 136.364c0 .389-.325.714-.715.714-.39 0-.715-.325-.715-.714 0-.39.325-.715.715-.715.455 0 .715.325.715.715zM170.899 120.194c0 .39-.325.715-.715.715-.391 0-.716-.325-.716-.715 0-.389.325-.714.716-.714.39 0 .715.325.715.714z"/>
    </g>
    <defs>
        <clipPath id="clip0">
            <path fill="#fff" d="M0 0H196V230H0z"/>
        </clipPath>
    </defs>
</svg>
