<svg xmlns="http://www.w3.org/2000/svg" width="215" height="129" fill="none" viewBox="0 0 215 129">
    <g clip-path="url(#clip0)">
        <path fill="#FFF3C5" d="M19.672 85.676c-4.965-11.479-7.61-24.023-7.238-36.52.186-6.896 1.392-13.978 5.01-19.857 4.084-6.619 10.997-11.201 18.327-13.793 7.377-2.592 15.218-3.425 23.013-3.98 7.563-.556 15.403-.834 22.502 1.85C89.22 16.34 95.436 22.635 103 26.523c12.759 6.526 28.024 5.462 42.128 2.824 7.284-1.343 14.708-3.102 21.946-1.62 5.057 1.018 9.604 3.564 14.104 6.063 4.779 2.685 9.558 5.323 14.337 8.008 4.825 2.684 10.021 5.785 12.155 10.877 2.367 5.693.279 12.22 1.253 18.283 1.114 6.99 6.31 13.145 6.078 20.227-.278 9.396-10.207 16.015-19.626 16.571-9.418.555-18.465-3.194-27.466-5.925-25.611-7.73-53.588-7.452-79.06.787-8.954 2.916-17.77 6.758-27.188 7.359-10.16.602-16.238-4.027-24.08-9.396-3.015-2.036-6.402-2.684-9.603-4.304-4.176-2.176-6.496-6.434-8.305-10.6z"/>
        <path fill="#7F2B80" d="M186.095 40.963h-9.326c-.417 0-.881.047-1.299.093-.835-8.285-7.841-14.72-16.378-14.72H68.063c-8.583 0-15.635 6.574-16.378 14.951-.788-.185-1.577-.277-2.412-.277h-9.28c-5.892-.047-10.114 4.952-8.444 9.905l4.083 12.173h-.046l8.12 32.678c2.458 9.952 10.113 16.802 18.743 16.802h101.422c8.955 0 16.796-7.313 18.976-17.774l5.104-24.346 6.542-19.487c1.67-4.999-2.552-9.998-8.398-9.998z"/>
        <path fill="#D187CD" d="M61.395 71.199l-.008.277 101.428 2.918.008-.278L61.395 71.2zM171.295 46.379h-.279c0-8.98-8.305-16.293-18.512-16.293h-77.62c-10.208 0-18.513 7.313-18.513 16.293h-.278c0-9.119 8.444-16.57 18.79-16.57h77.621c10.393 0 18.791 7.451 18.791 16.57zM166.006 96.924H56.232v.277h109.774v-.277z"/>
        <path fill="#D187CD" d="M169.057 57.56L158.849 84.29l.261.099 10.207-26.731-.26-.1zM56.379 59.049l-.257.107 8.226 19.548.257-.107-8.226-19.548zM157.376 53.09c-2.088 0-3.758-1.666-3.758-3.749s1.67-3.749 3.758-3.749 3.758 1.666 3.758 3.75c0 2.082-1.717 3.748-3.758 3.748zm0-7.174c-1.902 0-3.48 1.528-3.48 3.472s1.531 3.471 3.48 3.471c1.902 0 3.479-1.528 3.479-3.471 0-1.944-1.577-3.472-3.479-3.472zM68.898 53.09c-2.088 0-3.758-1.666-3.758-3.749s1.67-3.749 3.758-3.749 3.758 1.666 3.758 3.75c0 2.082-1.67 3.748-3.758 3.748zm0-7.174c-1.902 0-3.48 1.528-3.48 3.472s1.532 3.471 3.48 3.471c1.949 0 3.48-1.528 3.48-3.471 0-1.944-1.578-3.472-3.48-3.472z"/>
        <path fill="#010E52" d="M161.041 126.871h-3.619l-.046-.093-5.753-14.163.185-.093 5.753 14.117h3.294l2.923-14.117.186.046-2.923 14.303zM68.434 126.871H64.77l-2.923-14.303.232-.046 2.876 14.117h3.341l5.753-14.117.186.093-5.8 14.256zM128.564 13.33c.557-.833.928-1.851.696-2.87-.047-.277-.139-.508-.279-.74.14-.416.14-.88 0-1.342-.232-.926-.881-1.574-1.438-1.99-.557-.417-1.16-.741-1.763-1.065l-.185-.093c-.372-.185-.696-.37-.836-.648-.092-.185-.092-.462-.092-.74v-.324c-.093-1.389-1.16-2.685-2.459-3.009-.372-.092-.789-.139-1.16-.139h-.186c-.278-.185-.603-.324-.928-.37-.603-.093-1.206.555-1.763.324-2.83-1.065-3.99.51-5.335 2.36-.511-.925-1.717-1.203-3.155-.555-.975.417-.604 2.176-2.181 2.731-1.206.417-1.67 1.99-2.041 3.24-.372 1.25-.279 2.639.324 3.75-1.113-.278-2.319.601-2.644 1.712-.789 2.73 2.134 3.75 3.155 5.74.51.971.788 2.129 1.716 2.823.279.185 3.295 1.527 3.295 1.064 0 .926 1.252.973 2.227.834.927-.14 1.763-.695 2.644-.972.696 1.527 2.598 2.221 4.222 1.759 1.578-.417 2.83-1.806 3.387-3.333 1.253-.555 2.413-1.296 3.387-2.268.232-.232.464-.463.557-.787.093-.324.093-.648 0-.972-.186-.787-.603-1.527-1.253-2.037.696-.601 1.485-1.25 2.088-2.082zm-5.289-8.1c.51-1.388-.371-2.916-1.439-3.98.047 0 .093 0 .093.046 1.021.278 1.81 1.25 1.902 2.314v.278c0 .324 0 .694.186 1.018.232.51.742.787 1.206 1.019l.232.092c.604.278 1.16.602 1.671.972.417.324.974.833 1.16 1.574 0 .046 0 .093.046.139-.464-.51-1.021-.926-1.578-1.342-1.113-.834-2.227-1.62-3.479-2.13z"/>
        <path fill="#E68939" d="M128.471 82.714l6.727 1.712v7.499l-4.546-5.277-9.604-1.018 7.423-2.916zM94.834 43.787s-5.568 24.994-22.641 38.14c0 0 33.776-9.211 35.957-39.251l-13.316 1.11z"/>
        <path fill="#6CC0C2" d="M121.883 22.82s14.476-.325 16.749 22.818l-12.62 3.518s-.603 12.636-4.964 19.95l-12.11-3.194s-3.155-6.897-5.103-17.358l-11.182-4.258s5.29-21.014 18.42-21.384l10.81-.093z"/>
        <path fill="#E68939" d="M117.243 25.689c2.552-.139 6.125-2.685 6.125-2.685-.604-.046-2.413-.416-3.666-.463-.185-2.592.093-7.081.093-7.081l-4.825.138-.928 7.314c-.974.092-3.016.092-3.016.092 1.624 1.898 3.944 2.777 6.217 2.685z"/>
        <path fill="#D07639" d="M114.042 22.82l.371-5.555 5.243 1.759-5.614 3.795z"/>
        <path fill="#E68939" d="M110.005 11.433c.14-.972.928-.648 1.439-.278 0-.046 0-.092-.047-.139-.464-2.129.186-2.36 1.763-3.842 1.671-1.527 4.083-2.962 6.681-1.203 1.763 1.157 2.599 2.777 2.645 3.518 0 .324-.046.694-.093 1.11.557-.462 1.206-.647 1.299-.277.232.88-.371 2.037-.371 2.037s-.696.925-1.253 1.064c-.278 2.962-1.391 6.249-4.593 6.388-3.804.185-5.382-3.61-5.243-6.018-.881-.138-2.412-1.25-2.227-2.36z"/>
        <path fill="#010E52" d="M118.542 10.692s1.439-1.435 2.274.185c0 0-.835-.694-2.274-.185zM115.573 10.368s-1.624-1.203-2.227.463c0 .046.742-.787 2.227-.463zM111.444 11.155s2.737-.694 5.289-6.387c0 0 .464-.834-2.088-.926-2.552-.139-5.892 2.916-3.201 7.313z"/>
        <path fill="#010E52" d="M116.223 6.156c2.319 3.98 6.17 4.397 6.17 4.397s.743-2.314.232-4.536c-.696-2.823-3.758-3.471-6.263-1.805-.047 0-.325 1.62-.139 1.944z"/>
        <path fill="#FFEDE4" d="M114.97 15.784s2.505.787 4.779 0c.046 0-2.227 4.258-4.779 0z"/>
        <path fill="#010E52" d="M119.47 11.433c0 .231-.092.463-.278.463-.139 0-.278-.186-.278-.463 0-.232.092.185.278.185.186 0 .278-.463.278-.185zM114.691 11.433c0 .231-.093.463-.278.463-.139 0-.278-.186-.278-.463 0-.232.092.139.278.139.185 0 .278-.417.278-.14z"/>
        <path fill="#E68939" d="M71.728 80.955c-.463.231-.927.509-1.113.972-.14.463.093 1.018.51 1.296.418.278.975.324 1.439.185.51-.139.928-.417 1.345-.694.557-.417 1.067-.926 1.485-1.481.835-1.065 1.16-1.713-.464-1.39-1.114.279-2.18.649-3.202 1.112z"/>
        <path fill="#D07639" d="M94.555 45.037l9.28 3.517.185 3.24-9.465-6.757z"/>
        <path fill="#EE1B70" d="M114.97 66.976s-32.2-11.34-50.526-1.527c0 0 10.579 15.136 34.473 19.162l16.053-17.635z"/>
        <path fill="#EE1B70" d="M77.018 83.64s52.891-31.66 88.06-19.21c0 0-15.961 34.484-87.365 22.08l-.695-2.87z"/>
        <path fill="#E68939" d="M77.714 86.51l-4.361 7.683V84.61l3.665-.972.696 2.87z"/>
        <path fill="#D51B6D" d="M84.117 79.751s17.908-9.442 30.899-12.775c0 0-3.34-1.064-5.474-1.62L84.117 79.751z"/>
        <path fill="#010E52" d="M113.253 67.532c-21.945-4.906-30.018-3.842-30.064-3.796l-.047-.231c.093 0 8.166-1.111 30.158 3.795l-.047.232zM117.475 27.54h-6.774v11.665h6.774V27.54z"/>
        <path fill="#FFEDE4" d="M103.835 48.554l.696-3.379-10.857-4.212s-.65.787-1.067 3.38l11.228 4.211z"/>
        <path fill="#E68939" d="M136.544 44.574s4.222 10.923 1.763 23.976c0 0-19.44-2.222-23.291-32.724 0 0 6.264 11.941 10.996 13.33l.835-3.194 9.697-1.388z"/>
        <path fill="#FFEDE4" d="M138.632 45.638l-12.62 3.518-.418-3.194 12.713-3.703.325 3.38z"/>
        <path fill="#E68939" d="M114.784 33.002c-.185-.463-.464-.972-.974-1.11-.464-.186-1.021.046-1.346.462-.278.417-.324.972-.232 1.435.093.51.372.926.696 1.342.418.556.928 1.111 1.439 1.528 1.067.88 1.716 1.203 1.392-.417-.186-1.064-.511-2.175-.975-3.24z"/>
        <path fill="#D07639" d="M126.012 49.156s3.109 3.148 9.558 6.017c0 0-6.681-4.628-7.377-6.665l-2.181.648z"/>
        <path fill="#FFEDE4" d="M113.995 29.762c.308 0 .557-.249.557-.555 0-.307-.249-.556-.557-.556-.307 0-.556.249-.556.556 0 .306.249.555.556.555zM114.227 30.827c0 .139-.092.231-.232.231-.139 0-.232-.092-.232-.231 0-.14.093-.232.232-.232.14 0 .232.093.232.232z"/>
        <path fill="#010E52" d="M117.197 14.72c-.232 0-.51-.094-.696-.186l.046-.046c.325.139.743.277 1.021.092.139-.092.232-.277.278-.463.047-.185.047-.37.047-.555l-.047-1.25c0-.277 0-.509.14-.694l.046.046c-.139.185-.139.417-.139.648l.046 1.25c0 .185 0 .417-.046.602-.047.231-.186.416-.325.509-.093 0-.232.046-.371.046z"/>
        <path fill="#EE1B70" d="M102.536 19.533c-.139.046-.325.185-.371.324-.047.139-.047.231-.047.37 0 .278.047.555.139.787.14.324.464.555.789.787.882.555 1.902.972 2.923.74.139-.046.232-.046.371-.138.325-.186.557-.51.65-.88.093-.37.093-.74.093-1.11 0-.695-.047-1.436-.279-2.084-.093-.277-.278-.555-.51-.74-.232-.185-.557-.278-.882-.185-.185.046-.324.185-.417.37-.603.787.046 1.62-.279 2.36-.696-.37-1.345-.925-2.18-.601zM106.758 14.858c-.14 0-.232.093-.325.185-.047.093-.047.185-.093.232-.046.185-.046.37 0 .601.046.232.232.463.418.648.51.51 1.159.926 1.902.926.093 0 .185 0 .278-.046.279-.093.464-.278.603-.51.14-.23.186-.509.232-.786.093-.51.186-1.019.093-1.481-.046-.232-.093-.417-.232-.602s-.371-.278-.557-.232c-.139 0-.232.093-.371.186-.51.462-.185 1.11-.557 1.573-.417-.324-.788-.833-1.391-.694zM101.376 8.517c-.139 0-.232.092-.325.185-.046.092-.046.185-.093.231-.046.185-.046.37 0 .602.047.231.232.463.418.648.51.51 1.16.926 1.902.926.093 0 .186 0 .278-.047.279-.092.464-.277.603-.509.14-.231.186-.509.232-.787.093-.509.186-1.018.093-1.48-.046-.232-.093-.417-.232-.602-.139-.186-.371-.278-.557-.232-.139 0-.231.093-.371.185-.51.463-.185 1.111-.556 1.574-.418-.324-.789-.787-1.392-.694zM109.634 23.282c-.139 0-.278 0-.325.093-.046.046-.092.139-.139.231-.093.185-.139.37-.139.555 0 .278.093.51.232.741.371.648.928 1.203 1.624 1.389.093.046.185.046.278.046.279 0 .511-.139.696-.37.186-.185.279-.463.418-.695.232-.462.417-.925.51-1.434 0-.232 0-.463-.093-.649-.092-.185-.278-.37-.51-.37-.139 0-.278.047-.371.093-.603.324-.464 1.064-.928 1.388-.418-.416-.603-.972-1.253-1.018z"/>
        <path fill="#8095AC" d="M106.804 11.572c-.65-.556-.742-1.482-.696-2.176 0-.509.186-1.712 1.114-2.175.371-.185.788-.14 1.206-.14h.649c.093 0 .232-.045.279-.092.046-.046.093-.139.139-.185.278-.555.418-1.157.325-1.759V5c0-.093-.047-.231 0-.324.093-.324.417-.51.974-.555v.23c-.325 0-.696.094-.742.371V5c.093.648-.047 1.342-.371 1.898-.047.092-.093.185-.186.231-.139.093-.278.139-.418.139-.232.046-.464 0-.696 0-.417 0-.788 0-1.113.139-.835.37-.974 1.481-1.021 1.944-.046.648.047 1.481.65 1.99l-.093.232zM121.697 22.079l-.093-.186c.372-.185.696-.555.696-1.018v-.185c0-.185 0-.37.093-.51.093-.184.279-.277.464-.37.325-.138.696-.277 1.021-.37h.046c.186-.046.418-.092.557-.231.093-.093.139-.185.186-.278.092-.231.185-.37.185-.555 0-.232-.232-.417-.417-.602l-.047-.046c-.185-.185-.417-.37-.51-.602-.046-.185-.046-.417.046-.556.093-.138.186-.23.325-.23l.046.23c-.092 0-.139.093-.185.14-.047.092-.093.277-.047.37.093.185.279.37.418.509l.046.046c.232.185.464.417.464.74 0 .278-.092.51-.185.695-.047.093-.139.231-.232.324-.186.185-.418.231-.65.278h-.046c-.325.092-.696.185-1.021.324-.139.046-.278.139-.371.277-.046.093-.046.278-.093.417v.185c.093.556-.232 1.018-.696 1.204zM123.136 8.933c-.604-.046-1.253-.139-1.856-.324-.279-.092-.603-.185-.882-.324-.371-.231-.649-.601-.881-.925l-1.067-1.482c-.232-.324-.464-.648-.789-.879-.325-.231-.742-.278-1.067-.139l-.093-.185c.464-.231.974-.046 1.299.185.371.232.603.602.835.926l1.067 1.481c.232.324.464.648.789.88.232.138.51.23.789.323.603.14 1.206.278 1.809.278l.047.185z"/>
        <path fill="#010E52" d="M125.102 41.912l-.23.032.995 7.292.229-.031-.994-7.293zM104.883 42.938l-1.182 5.616.227.048 1.182-5.617-.227-.047z"/>
        <path fill="#FF7B9C" d="M103.417 76.511c0 .602-.51 1.111-1.113 1.111s-1.114-.509-1.114-1.11c0-.602.511-1.112 1.114-1.112.603-.046 1.113.463 1.113 1.111zM87.132 67.44c0 .6-.51 1.11-1.114 1.11-.603 0-1.113-.51-1.113-1.11 0-.602.51-1.112 1.114-1.112.603-.046 1.113.463 1.113 1.111zM135.199 75.354c0 .602-.511 1.111-1.114 1.111-.603 0-1.113-.51-1.113-1.11 0-.603.51-1.112 1.113-1.112s1.114.51 1.114 1.111zM156.03 71.374c0 .601-.51 1.11-1.113 1.11s-1.114-.509-1.114-1.11c0-.602.511-1.111 1.114-1.111.603 0 1.113.509 1.113 1.11zM121.883 69.106c0 .601-.511 1.11-1.114 1.11-.603 0-1.113-.509-1.113-1.11 0-.602.51-1.111 1.113-1.111s1.114.509 1.114 1.11zM124.342 85.445c0 .601-.511 1.11-1.114 1.11-.603 0-1.113-.509-1.113-1.11 0-.602.51-1.111 1.113-1.111s1.114.509 1.114 1.11zM110.005 85.445c0 .601-.51 1.11-1.113 1.11s-1.114-.509-1.114-1.11c0-.602.511-1.111 1.114-1.111.603 0 1.113.509 1.113 1.11zM85.415 76.095c0 .602-.51 1.11-1.113 1.11s-1.114-.508-1.114-1.11c0-.602.51-1.111 1.114-1.111.603 0 1.113.463 1.113 1.11zM147.818 64.2c0 .6-.51 1.11-1.113 1.11s-1.114-.51-1.114-1.11c0-.603.511-1.112 1.114-1.112.603 0 1.113.51 1.113 1.111zM88.246 84.611c0 .602-.51 1.111-1.114 1.111-.603 0-1.113-.509-1.113-1.11 0-.602.51-1.111 1.113-1.111s1.114.462 1.114 1.11zM73.91 65.356c0 .602-.511 1.111-1.114 1.111-.604 0-1.114-.509-1.114-1.11 0-.602.51-1.111 1.114-1.111.65-.047 1.113.462 1.113 1.11zM76.647 71.929c0 .602-.51 1.11-1.114 1.11-.603 0-1.114-.508-1.114-1.11 0-.602.51-1.11 1.114-1.11.603-.047 1.114.462 1.114 1.11zM98.22 68.55c0 .602-.51 1.111-1.113 1.111s-1.113-.51-1.113-1.11c0-.603.51-1.112 1.113-1.112s1.114.51 1.114 1.111z"/>
        <path fill="#FFEDE4" d="M133.804 35.207l-.586 1.41.257.107.586-1.41-.257-.107zM130.447 29.843l-.586 1.412.258.106.585-1.411-.257-.107zM119.63 27.484l-.587 1.411.258.106.586-1.41-.257-.107zM99.422 32.965l-.586 1.41.258.107.586-1.411-.258-.106zM109.134 30.558l-.586 1.411.257.107.586-1.411-.257-.107zM125.673 29.43l-1.475.408.075.268 1.475-.41-.075-.267zM120.559 34.283l-1.474.412.075.267 1.474-.411-.075-.268zM109.149 53.456l-1.474.412.075.267 1.474-.412-.075-.267zM117.132 64.558l-1.475.41.074.267 1.475-.41-.074-.267zM100.24 39.38l-1.476.409.075.267 1.475-.408-.074-.268zM103.623 28.834l-1.476.409.075.267 1.475-.409-.074-.267zM124.752 23.952l-.19.203 1.12 1.041.19-.203-1.12-1.041zM127.441 41.948l-.235.149.822 1.288.235-.149-.822-1.288zM107.155 24.966l-.235.149.822 1.288.235-.149-.822-1.288zM123.447 45.26l-.235.148.823 1.289.235-.15-.823-1.288zM125.783 35.097l-.404 1.473.268.073.404-1.473-.268-.073zM121.074 39.889l-.404 1.473.269.073.404-1.473-.269-.074zM106.913 47.07l-.404 1.474.269.074.403-1.474-.268-.073zM113.652 44.054l-.215.176.974 1.179.215-.177-.974-1.178zM105.048 34.35l-.403 1.474.268.073.404-1.473-.269-.073zM116.716 51.46l-.404 1.474.269.073.404-1.474-.269-.073zM112.253 58.595l-.404 1.474.269.073.403-1.474-.268-.073zM120.452 59.096l-.404 1.474.269.073.403-1.474-.268-.073zM108.74 39.503l-.403 1.474.268.073.404-1.473-.269-.074zM136.949 40.807l-1.439.523.095.26 1.439-.522-.095-.26z"/>
        <path fill="#010E52" d="M29.786 129H24.73c-6.124 0-11.089-4.953-11.089-11.062v-10.183H40.83v10.183C40.875 124.047 35.91 129 29.786 129zm-15.914-20.968v9.952c0 5.971 4.872 10.831 10.857 10.831h5.057c5.985 0 10.857-4.86 10.857-10.831v-9.952h-26.77z"/>
        <path fill="#010E52" d="M36.467 111.781H13.78v.232h22.688v-.232zM27.884 108.079c-5.382-8.563-6.635-19.81-3.201-29.3.417-1.157.881-2.268 1.345-3.379.464-1.157.975-2.314 1.392-3.517 1.995-5.694 2.366-12.081.974-17.96-.463-1.943-1.113-3.888-1.763-5.785-.788-2.407-1.67-4.86-2.087-7.406-1.3-7.267.788-14.72 2.459-19.672l.232.093c-1.67 4.953-3.712 12.358-2.46 19.579.465 2.5 1.3 4.999 2.088 7.36.65 1.897 1.3 3.841 1.763 5.832 1.392 5.924 1.067 12.358-.974 18.098-.418 1.203-.928 2.36-1.392 3.517-.464 1.111-.928 2.222-1.345 3.38-3.387 9.442-2.18 20.643 3.201 29.113l-.232.047z"/>
        <path fill="#2EAEAF" d="M38.138 29.577c1.577-1.25 3.572-2.36 5.567-1.99 2.598.509 4.037 3.518 3.898 6.156-.14 2.638-1.532 5.091-3.341 7.035-1.81 1.898-4.083 3.333-6.403 4.675-1.948 1.111-3.99 2.13-5.66 3.61-.789.695-1.438 1.528-2.088 2.361-.51.694-1.624.37-1.717-.463-1.067-7.776 4.037-16.848 9.744-21.384z"/>
        <path fill="#6CC0C2" d="M28.023 64.2c-1.252 1.064-2.598-1.436-3.387-2.176-.092-.093-.139-.14-.232-.185-.37-.324-.788-.648-1.206-.88l-.278-.139c-1.16-.601-2.46-.972-3.805-1.25-.092 0-.185-.046-.324-.046-1.114-.185-2.274-.324-3.387-.462-.093 0-.186-.047-.279-.047-.65-.092-1.299-.185-1.902-.278-3.062-.555-5.985-1.758-8.537-3.517-1.253-.88-2.598-2.222-2.273-3.703.324-1.528 2.087-2.176 3.665-2.453.046 0 .14-.047.186-.047h.139c3.619-.648 7.516-.972 10.856.556 1.253.602 2.413 1.388 3.48 2.314.093.046.14.139.232.185.046.046.093.046.093.093.696.602 1.345 1.25 1.995 1.898l.232.231c.928 1.018 1.763 2.083 2.505 3.194.047.092.093.185.186.278.418.694.835 1.388 1.16 2.082.417.88 1.902 3.472.881 4.351z"/>
        <path fill="#2EAEAF" d="M30.39 71.744c2.041-1.898 4.268-3.796 7.005-4.536 2.738-.74 6.032.046 7.424 2.453.464.787.696 1.666.788 2.592.093.972.047 2.037-.51 2.87-.835 1.25-2.505 1.573-3.99 1.62-2.737.092-5.475-.417-8.166.231-1.53.37-5.382 2.592-5.985.185-.464-1.99 2.227-4.258 3.434-5.415z"/>
        <path fill="#6CC0C2" d="M47.927 55.775c-1.299 2.175-3.665 3.518-6.124 4.212-.093.046-.14.046-.232.046-.093.047-.186.047-.325.093-1.3.324-2.645.555-3.897 1.018-1.856.74-3.48 1.99-4.872 3.38-.371.37-1.53 2.128-2.041 2.175-.975.092-.603-1.435-.557-1.99.232-1.945.696-3.889 1.392-5.74.046-.093.046-.185.093-.278.603-1.62 1.391-3.194 2.412-4.629.557-.786 1.16-1.573 1.81-2.268l.232-.231.974-.972c.093-.046.14-.139.232-.185.325-.278.696-.556 1.02-.833.28-.185.511-.37.79-.556.139-.092.278-.185.463-.278 1.021-.601 2.135-1.064 3.295-1.25 1.391-.184 2.876.047 4.036.788.232.139.418.324.65.462l.046.047c1.856 1.712 1.902 4.814.603 6.99z"/>
        <path fill="#2EAEAF" d="M22.363 76.835c-1.438-1.296-3.294-2.082-5.197-2.5-1.206-.277-2.412-.37-3.572-.647-2.134-.51-4.13-1.435-6.17-2.175-1.207-.417-2.46-.787-3.759-.741-1.299.092-2.598.694-3.247 1.805-.743 1.296-.418 2.962.51 4.12.928 1.157 2.366 1.805 3.804 2.129 1.439.324 2.923.324 4.408.416 1.3.093 2.645.185 3.944.093 2.041-.185 4.036-.926 6.078-.787 1.113.093 2.18.463 3.108 1.018.047.046.093.047.14.093.834.602 1.902-.463 1.298-1.296-.51-.648-.974-1.204-1.345-1.528zM19.44 34.252c-1.253-1.805-2.598-3.703-4.454-4.953-2.598-1.712-5.846-2.036-8.954-2.268-1.67-.139-3.573-.139-4.64 1.158-.65.833-.789 1.99-.51 3.008.278 1.018.835 1.944 1.391 2.87.836 1.389 1.717 2.777 3.016 3.795 1.16.88 2.506 1.389 3.897 1.805 4.5 1.39 9.187 2.222 13.455 4.305 3.34 1.62 2.042-1.296.975-3.24-1.207-2.268-2.691-4.35-4.176-6.48z"/>
        <path fill="#6CC0C2" d="M27.281 28.79c.65-1.342 1.531-2.87 3.016-3.194.325-.092.65-.092.974 0 .789.278 1.16 1.25 1.02 2.083-.138.833-.695 1.528-1.205 2.176-.743.925-1.485 1.851-2.506 2.5-.417.23-.835.462-1.206.694-.186.138-.371.37-.557.648-.371.555-1.253.185-1.16-.463.186-1.574 1.02-3.148 1.624-4.444zM23.152 21.708c-.14-.324-.279-.648-.464-.88-.325-.416-.835-.693-1.346-.878-.603-.232-1.253-.325-1.81-.14-.556.186-1.066.788-1.02 1.39.046.323.186.601.371.832.557.926 1.114 1.852 1.856 2.639.325.37.696.694 1.067 1.064.789.787 2.645 3.194 2.552.556 0-1.62-.603-3.148-1.206-4.583z"/>
        <path fill="#010E52" d="M30.018 48.971h-.232c0-.51.14-.972.278-1.435 1.021-3.101 2.877-5.878 5.29-8.007.464-.417.974-.834 1.484-1.204.557-.416 1.114-.88 1.67-1.342 1.996-1.805 3.527-4.12 4.408-6.665l.232.092c-.881 2.592-2.412 4.907-4.454 6.758l-1.67 1.389c-.51.37-1.02.786-1.485 1.203-2.412 2.13-4.222 4.86-5.196 7.915-.186.37-.325.833-.325 1.296zM28.394 76.65l-.185-.139c1.624-1.712 3.85-2.87 6.217-3.147.51-.046 1.02-.093 1.484-.093.465 0 .975-.046 1.439-.092 2.041-.232 4.036-1.111 5.567-2.5l.14.186c-1.578 1.388-3.573 2.314-5.66 2.545-.511.047-.975.093-1.486.093-.51 0-.974.046-1.484.092-2.274.278-4.5 1.389-6.032 3.055zM21.528 78.131c-1.949-1.342-4.361-2.082-6.774-2.129-.974 0-1.995.14-2.97.232-1.53.185-3.061.37-4.593.092-2.32-.416-4.314-1.805-6.124-3.055l.14-.185c1.762 1.204 3.757 2.592 6.03 3.009 1.486.278 3.017.092 4.548-.093.974-.139 1.995-.231 2.969-.231 2.459 0 4.872.787 6.867 2.129l-.093.231zM22.549 41.982c-1.253-1.666-2.877-3.148-4.686-4.259-1.81-1.11-3.898-1.897-5.893-2.684-2.644-1.019-5.428-2.037-7.609-3.888-.696-.602-1.345-1.25-1.902-1.99l.186-.14c.556.695 1.16 1.39 1.855 1.945 2.181 1.851 4.918 2.87 7.563 3.888 1.995.74 4.083 1.527 5.939 2.684 1.81 1.111 3.433 2.592 4.732 4.305l-.186.139zM26.585 32.91l-.186-.047c.51-1.666 1.439-3.193 2.738-4.397l.185-.185c.604-.51 1.16-1.064 1.207-1.759h.232c-.047.833-.696 1.389-1.3 1.944l-.185.185c-1.253 1.157-2.18 2.639-2.691 4.259zM23.43 25.782c-.464-2.176-1.995-4.12-3.99-5.092l.093-.185c2.041 1.018 3.619 3.009 4.083 5.277h-.186z"/>
        <path fill="#2EAEAF" d="M35.818 51.887c-.093-.046-.14-.092-.232-.139l.232-.231c.046.046.14.046.186.092l1.484.88c.279.185.603.37.928.417.279.046.65.046.882-.186.092-.092.185-.277.185-.416 0-.14-.046-.232-.139-.324-.186-.185-.464-.14-.742-.093-.232.047-.51.047-.743-.046-.417-.139-.65-.556-.881-.972l-.186-.324c.093-.046.14-.139.232-.185l.186.416c.185.37.371.695.696.787.185.046.417.046.65.046.324-.046.695-.046.974.186.139.139.232.324.232.509 0 .231-.093.463-.279.648-.278.278-.696.37-1.113.278-.371-.093-.696-.278-1.021-.463l-1.531-.88z"/>
        <path fill="#2EAEAF" d="M44.819 54.294c-.093.972-.557 1.805-1.207 2.268-.742.51-1.81.602-2.783.278-.79-.278-1.532-.833-2.274-1.667-.093-.092-.185-.185-.232-.277-.325-.37-.65-.787-1.113-1.019-.464-.277-1.16-.416-1.624-.046-.65.556-.325 1.713-.14 2.176.186.462.418.925.697 1.388l.139.232c.417.648.835 1.342.696 2.129-.093.694-.603 1.296-1.346 1.574-.37.138-.788.231-1.252.231-.279 0-.557-.046-.836-.093-.139 0-.278-.046-.417-.139-.232-.185-.186-.462-.14-.74v-.231c0-.602-.695-1.019-1.298-1.25-.14-.046-.279-.093-.464-.14.046-.092.046-.184.092-.277.14.046.325.093.464.14.975.37 1.485.925 1.485 1.526v.232c-.046.231-.046.37.046.463.047.046.14.092.232.092.79.14 1.392.093 1.95-.139.649-.277 1.066-.786 1.159-1.342.093-.694-.278-1.342-.65-1.944l-.139-.231c-.278-.463-.51-.926-.696-1.435-.232-.51-.603-1.805.186-2.5.557-.462 1.438-.324 1.995 0 .464.278.835.695 1.16 1.111.093.093.139.185.232.278.696.787 1.392 1.296 2.134 1.574.882.324 1.856.231 2.505-.232.604-.416 1.021-1.203 1.114-2.083.046-.694-.047-1.48-.418-2.407-.185-.462-.37-1.018-.788-1.388-.418-.463-1.067-.74-1.485-.88-.882-.324-1.81-.509-2.737-.555h-.279c.14-.092.279-.185.464-.278.928.047 1.81.232 2.645.556.464.185 1.113.463 1.577.972.418.463.65 1.018.835 1.527.418.972.557 1.805.51 2.546z"/>
        <path fill="#2EAEAF" d="M46.953 51.47c-.093.093-.232.232-.371.325-.186.138-.325.277-.464.416-.51.648-.279 1.666-.093 2.5v.046c.14.648.325 1.388.14 2.129-.14.787-.65 1.435-1.3 1.713-.371.138-.789.138-1.16.138h-.603c-.557.047-1.253.324-1.531.972-.046.093-.093.232-.093.324-.093.047-.186.047-.325.093 0-.185.047-.37.093-.555.325-.741 1.114-1.065 1.763-1.111h.603c.371 0 .743 0 1.067-.14.557-.184.975-.786 1.114-1.48.14-.695 0-1.389-.14-1.99v-.047c-.231-.926-.51-1.99.14-2.777.14-.185.325-.324.51-.463.14-.093.232-.185.325-.278.464-.462.696-1.203.464-1.851-.093-.324-.278-.602-.417-.88l-.186-.277c.232.139.418.324.65.463.092.185.185.37.231.555.372.74.14 1.62-.417 2.175zM15.96 56.562c-.046.278-.139.555-.232.833-.046.093-.046.185-.092.278-.093.277-.14.509-.186.787-.046.185-.046.37-.046.555-.093 0-.186-.046-.279-.046 0-.185 0-.324.047-.556.046-.277.092-.555.185-.833.046-.092.046-.185.093-.277.093-.278.186-.51.186-.787.046-.278-.047-.648-.325-.88-.14-.092-.325-.092-.464-.046-.047.046-.186.092-.232.231-.047.186.046.37.093.556.092.277.232.601 0 .88-.093.138-.279.184-.418.23-.742.232-1.856.278-2.505-.509-.371-.462-.464-1.11-.232-1.62.185-.416.556-.694.881-1.018.279-.231.557-.463.743-.74.417-.741.185-1.713-.047-2.454-.14-.462-.325-.972-.742-1.25-.186-.138-.418-.23-.603-.138-.232.092-.325.463-.279.74.047.186.093.324.14.463.046.14.139.324.139.463.232.972-.418 1.898-.975 2.5-.65.74-1.299 1.11-1.948 1.157-1.067.092-1.949-.695-2.32-1.528-.418-.88-.464-1.897-.418-2.777v-.185c.047-.555.047-1.157-.139-1.666.046 0 .14-.047.186-.047h.139c.185.556.185 1.158.14 1.76v.184c-.047.834-.047 1.806.37 2.639.325.694 1.114 1.435 2.042 1.342.603-.046 1.16-.37 1.763-1.064.51-.556 1.067-1.39.881-2.268l-.139-.417c-.046-.185-.14-.37-.186-.556-.092-.37.047-.879.418-1.064.325-.139.696 0 .928.185.464.324.65.88.835 1.389.278.833.51 1.851.046 2.684-.185.324-.51.602-.788.833-.325.278-.65.556-.789.88-.186.416-.14.972.186 1.342.51.602 1.438.648 2.18.417.093-.047.232-.093.279-.14.092-.138.046-.323-.047-.6-.093-.232-.185-.51-.139-.742.046-.185.186-.324.418-.416.232-.093.51-.046.742.093.464.37.557.833.51 1.203zM20.97 52.026c-.138.092-.277.185-.463.278-.232.139-.51.277-.742.37-.557.185-1.207.185-1.763-.093-.186-.092-.372-.185-.51-.324-.326-.231-.65-.462-1.021-.416-.465.046-.836.509-.928.925-.093.463 0 .973.092 1.435.696.14 1.392.278 2.042.602.557.232 1.253.694 1.67 1.528.232.416.325.972.278 1.573 0 .602-.185 1.204-.417 1.667-.093 0-.186-.047-.325-.047.279-.462.418-1.018.464-1.62 0-.555-.093-1.018-.278-1.435-.325-.694-1.021-1.157-1.531-1.388-.65-.324-1.346-.463-2.042-.602h-.093v-.092c-.092-.51-.232-1.065-.092-1.667.139-.555.556-1.11 1.206-1.157.464-.046.835.231 1.206.463.14.092.325.231.464.324.464.231 1.02.278 1.531.093.232-.093.464-.232.696-.37.14-.093.232-.14.371-.232.047.046.093.139.186.185zM23.43 58.552c.325.602.325 1.343.046 1.944-.046.14-.139.232-.185.37 0 .047-.047.047-.047.093l-.278-.139c0-.046.046-.046.046-.092.047-.14.14-.232.186-.37.232-.51.232-1.111 0-1.62-.65-.047-1.346-.093-1.995-.463-.603-.37-1.16-1.111-.974-1.852.185-.74.835-1.065 1.53-1.435.511-.277 1.021-.555 1.3-.972l.232.232c-.325.463-.835.74-1.346 1.018-.603.324-1.206.648-1.345 1.25-.14.601.278 1.25.835 1.527.603.324 1.3.37 1.949.417h.092l-.046.092zM25.24 58.228c-.047.185-.047.37 0 .556v.046c.092.926.046 1.759-.186 2.453-.093.232-.186.51-.371.74-.093-.092-.14-.138-.232-.184.139-.185.278-.463.325-.648.231-.648.278-1.389.185-2.315v-.046c-.046-.231-.046-.463 0-.694.14-.37.464-.602.835-.695.047.093.093.186.186.278-.325.093-.65.232-.743.51z"/>
        <path fill="#010E52" d="M27.188 62.764c-1.438-3.564-4.315-6.526-7.794-8.146-.79-.37-1.578-.648-2.367-.926l-3.34-1.25c-.51-.185-1.02-.37-1.531-.509-1.439-.37-2.97-.416-4.408-.416-1.392 0-2.876-.047-4.222.416l-.046-.231c1.392-.417 2.876-.417 4.268-.417 1.485 0 3.016.047 4.5.417.511.139 1.068.324 1.532.51l3.34 1.249c.789.278 1.578.602 2.366.972 3.526 1.666 6.403 4.675 7.888 8.285l-.186.046zM30.853 64.338l-.185-.092c.37-.972.928-1.898 1.484-2.778 1.067-1.759 2.181-3.564 3.805-4.952 1.345-1.157 3.016-1.898 4.64-2.639.278-.138.556-.277.835-.37 1.855-.88 3.758-1.898 5.01-3.564l.186.139c-1.253 1.713-3.201 2.73-5.057 3.657-.279.139-.557.277-.835.37-1.578.74-3.248 1.481-4.593 2.592-1.578 1.342-2.691 3.147-3.759 4.86-.603.926-1.16 1.805-1.53 2.777z"/>
    </g>
    <defs>
        <clipPath id="clip0">
            <path fill="#fff" d="M0 0H215V129H0z"/>
        </clipPath>
    </defs>
</svg>
