<svg xmlns="http://www.w3.org/2000/svg" width="44" height="44" fill="none" viewBox="0 0 44 44">
    <g filter="url(#filter0_i)">
        <path fill="url(#paint0_linear)" d="M0 22C0 9.85 9.85 0 22 0s22 9.85 22 22-9.85 22-22 22S0 34.15 0 22z"/>
        <path fill="url(#paint1_radial)" fill-opacity=".8" d="M0 22C0 9.85 9.85 0 22 0s22 9.85 22 22-9.85 22-22 22S0 34.15 0 22z"/>
        <path fill="url(#paint2_radial)" fill-opacity=".8" d="M0 22C0 9.85 9.85 0 22 0s22 9.85 22 22-9.85 22-22 22S0 34.15 0 22z"/>
        <path fill="url(#paint3_radial)" fill-opacity=".8" d="M0 22C0 9.85 9.85 0 22 0s22 9.85 22 22-9.85 22-22 22S0 34.15 0 22z"/>
        <g fill="#fff" filter="url(#filter1_i)">
            <path d="M28.518 12.59c-5.132 0-9.304 4.178-9.304 9.308 0 5.129 4.172 9.305 9.304 9.305 5.137 0 9.31-4.176 9.31-9.305 0-5.13-4.173-9.308-9.31-9.308zm0 17.495c-4.51 0-8.186-3.673-8.186-8.187 0-4.514 3.676-8.188 8.186-8.188s8.184 3.674 8.184 8.188c0 4.516-3.673 8.187-8.184 8.187z"/>
            <path d="M23.764 22.002c0 5.195-4.217 9.408-9.41 9.408-5.194-.002-9.41-4.215-9.41-9.408 0-5.197 4.216-9.412 9.412-9.412 5.191 0 9.408 4.215 9.408 9.412z"/>
        </g>
    </g>
    <defs>
        <radialGradient id="paint1_radial" cx="0" cy="0" r="1" gradientTransform="translate(11.9322 -9.56522) rotate(96.1584) scale(53.8761 89.8067)" gradientUnits="userSpaceOnUse">
            <stop stop-color="#52B6FF"/>
            <stop offset="1" stop-color="#8F41EE" stop-opacity="0"/>
        </radialGradient>
        <radialGradient id="paint2_radial" cx="0" cy="0" r="1" gradientTransform="translate(11.7458 2.55072) rotate(62.2005) scale(21.9869 63.108)" gradientUnits="userSpaceOnUse">
            <stop stop-color="#9DD6FF"/>
            <stop offset="1" stop-color="#8F41EE" stop-opacity="0"/>
        </radialGradient>
        <radialGradient id="paint3_radial" cx="0" cy="0" r="1" gradientTransform="translate(64.8814 33.6377) rotate(144.328) scale(37.1795 51.1373)" gradientUnits="userSpaceOnUse">
            <stop stop-color="#5263FF"/>
            <stop offset="1" stop-color="#8F41EE" stop-opacity="0"/>
        </radialGradient>
        <filter id="filter0_i" width="77.355" height="44" x="-33.355" y="0" color-interpolation-filters="sRGB" filterUnits="userSpaceOnUse">
            <feFlood flood-opacity="0" result="BackgroundImageFix"/>
            <feBlend in="SourceGraphic" in2="BackgroundImageFix" result="shape"/>
            <feColorMatrix in="SourceAlpha" result="hardAlpha" values="0 0 0 0 0 0 0 0 0 0 0 0 0 0 0 0 0 0 127 0"/>
            <feOffset dx="-33.355"/>
            <feGaussianBlur stdDeviation="33.355"/>
            <feComposite in2="hardAlpha" k2="-1" k3="1" operator="arithmetic"/>
            <feColorMatrix values="0 0 0 0 0.80575 0 0 0 0 0.7375 0 0 0 0 1 0 0 0 0.3 0"/>
            <feBlend in2="shape" result="effect1_innerShadow"/>
        </filter>
        <filter id="filter1_i" width="66.239" height="18.82" x="-28.412" y="12.59" color-interpolation-filters="sRGB" filterUnits="userSpaceOnUse">
            <feFlood flood-opacity="0" result="BackgroundImageFix"/>
            <feBlend in="SourceGraphic" in2="BackgroundImageFix" result="shape"/>
            <feColorMatrix in="SourceAlpha" result="hardAlpha" values="0 0 0 0 0 0 0 0 0 0 0 0 0 0 0 0 0 0 127 0"/>
            <feOffset dx="-33.355"/>
            <feGaussianBlur stdDeviation="33.355"/>
            <feComposite in2="hardAlpha" k2="-1" k3="1" operator="arithmetic"/>
            <feColorMatrix values="0 0 0 0 0.80575 0 0 0 0 0.7375 0 0 0 0 1 0 0 0 0.3 0"/>
            <feBlend in2="shape" result="effect1_innerShadow"/>
        </filter>
        <linearGradient id="paint0_linear" x1="44" x2="2.944" y1="-4.623" y2="47.815" gradientUnits="userSpaceOnUse">
            <stop stop-color="#7041EE"/>
            <stop offset=".528" stop-color="#8D41EE"/>
            <stop offset=".88" stop-color="#D641EE"/>
        </linearGradient>
    </defs>
</svg>
