<svg xmlns="http://www.w3.org/2000/svg" width="16" height="18" fill="none" viewBox="0 0 16 18">
    <path fill="#fff" d="M14.96 13.818c-.26.603-.57 1.157-.927 1.667-.488.696-.887 1.177-1.195 1.444-.477.439-.988.664-1.535.676-.393 0-.867-.111-1.418-.338-.554-.226-1.062-.338-1.527-.338-.488 0-1.011.112-1.57.338-.56.227-1.012.345-1.357.357-.525.022-1.048-.21-1.57-.695-.334-.29-.75-.789-1.25-1.495-.536-.753-.976-1.628-1.321-2.624-.37-1.077-.555-2.12-.555-3.128 0-1.157.25-2.154.75-2.99.393-.67.916-1.2 1.571-1.588.655-.389 1.362-.587 2.124-.6.417 0 .964.13 1.643.383.677.254 1.112.383 1.303.383.143 0 .626-.15 1.445-.451.775-.28 1.428-.395 1.964-.35 1.451.118 2.542.69 3.267 1.72-1.298.787-1.94 1.889-1.928 3.302.012 1.1.412 2.016 1.196 2.744.356.337.753.598 1.195.783-.096.278-.197.544-.305.8zM11.632.72c0 .863-.315 1.668-.944 2.414-.758.886-1.675 1.398-2.67 1.318-.012-.104-.02-.213-.02-.327 0-.829.361-1.715 1.002-2.44.32-.366.726-.672 1.219-.915.492-.24.957-.372 1.395-.395.012.115.018.23.018.345z"/>
</svg>
