<svg xmlns="http://www.w3.org/2000/svg" width="100" height="100" fill="none" viewBox="0 0 100 100">
    <circle cx="50" cy="50" r="49.75" fill="#F3F3F3" stroke="#E0E0E0" stroke-width=".5"/>
    <g clip-path="url(#clip0)">
        <path fill="#F5F8F9" d="M65.258 82.047H21.88V18.952h35.491l7.887 7.887v55.208z"/>
        <path fill="#D8ECFE" d="M21.88 18.952h3.809v63.095H21.88V18.952zM57.371 18.952v7.887h7.887l-7.887-7.887z"/>
        <path fill="#F07281" d="M55.59 55.952l16.018-16.018 4.21 4.21L59.8 60.162l-4.21-4.21z"/>
        <path fill="#5680A6" d="M55.598 55.942l4.21 4.21-9.074 9.075-4.21-4.21 9.074-9.075z"/>
        <path fill="#497090" d="M57.501 57.855l-1.904-1.905-9.076 9.076 1.98 1.98 9-9.151z"/>
        <path fill="#EB5569" d="M55.59 55.951l16.018-16.018 1.904 1.904-16.018 16.018-1.904-1.904z"/>
        <path fill="#5680A6" d="M75.117 43.43l-2.788-2.788 1.394-1.395c.77-.77 2.018-.77 2.788 0s.77 2.019 0 2.789l-1.394 1.394z"/>
        <path fill="#F07281" d="M44.444 71.314c-.77-.77-.77-2.018 0-2.788l2.789-2.789 2.788 2.789-2.788 2.788c-.77.77-2.019.77-2.789 0z"/>
        <path fill="#EB5569" d="M46.983 71.314c-.77-.77-.77-2.018 0-2.788l1.52-1.52-1.27-1.269-2.789 2.789c-.77.77-.77 2.018 0 2.788.73.73 1.89.768 2.664.115-.043-.036-.084-.075-.125-.115z"/>
        <path fill="#000" d="M31.636 81.096h-8.804V19.904h20.207c.526 0 .952-.426.952-.952S43.565 18 43.04 18h-21.16c-.525 0-.951.426-.951.952v63.096c0 .526.426.952.952.952h9.756c.526 0 .952-.426.952-.952s-.426-.952-.952-.952z"/>
        <path fill="#000" d="M77.185 38.574c-1.314-1.216-2.757-1.142-4.135 0l-.721.72c-.405-.365-.96-.461-1.385-.037l-4.733 4.734V26.84c0-.25-.1-.496-.284-.678l-7.875-7.876c-.183-.186-.43-.286-.68-.286H47.19c-.526 0-.953.426-.953.952s.427.952.953.952h9.23v6.935c0 .526.426.953.951.953h6.935v18.103l-3.03 3.032c-.372.371-.372.974 0 1.346.372.372.974.372 1.346 0l4.813-4.813 2.864 2.863-10.491 10.49-2.863-2.862 2.742-2.743c.372-.372.372-.974 0-1.346-.372-.372-.975-.372-1.346 0l-12.493 12.49c-.407.515-.312 1.001.038 1.385l-2.115 2.116c-.073.073-.142.149-.205.227l-1.117-2.232c-.16-.323-.49-.526-.851-.526s-.69.203-.852.526l-1.12 2.24-1.12-2.24c-.161-.323-.491-.526-.852-.526-.36 0-.69.203-.851.526l-1.12 2.24-1.714-3.426c-.425-.85-1.28-1.379-2.23-1.379s-1.805.528-2.23 1.379l-2.565 5.13c-.235.47-.044 1.042.426 1.277.47.235 1.042.044 1.277-.426l2.565-5.13c.147-.294.418-.326.527-.326.11 0 .38.032.527.326l2.565 5.13c.161.322.49.526.852.526.36 0 .69-.203.851-.526l1.12-2.24 1.12 2.24c.162.322.491.526.852.526.36 0 .69-.203.852-.526l1.12-2.24 1.12 2.24c.11.212.237.434.492.558l-1.383 1.383c-.371.372-.371.975 0 1.347.45.371.898.371 1.347 0l1.382-1.382c1.177.531 2.293.344 3.35-.562l2.115-2.115c.392.317.97.452 1.384.038l12.901-12.902v24.088H35.785c-.526 0-.952.426-.952.952s.426.952.952.952h29.474c.525 0 .952-.426.952-.952V60.419c.194-.03.381-.119.53-.268l7.02-7.019c1.115-1.347 1.115-2.693 0-4.04l-.77-.769 3.51-3.509c.446-.471.305-1.059-.038-1.384l.721-.721c1.434-1.688.907-3.296 0-4.135zM58.324 21.251l4.636 4.636h-4.636v-4.636zm-11.765 49.39c-.404.404-1.041.392-1.444-.002-.395-.398-.394-1.043.002-1.44l2.116-2.115 1.442 1.442-2.116 2.115zm4.173-2.75l-2.864-2.865 7.729-7.729 2.864 2.864-7.729 7.73zm21.682-17.452c.372.449.372.898 0 1.346l-6.203 6.204v-2.885l5.434-5.434.77.769zm-.769-3.462l-2.863-2.864 2.836-2.837 2.863 2.865-2.836 2.836zm2.03-6.336l.721-.72c.481-.399.962-.399 1.442 0 .398.48.398.96 0 1.441l-.72.721-1.443-1.442z"/>
        <path fill="#000" d="M27.87 55.463c-.527 0-.953.426-.953.952s.426.952.952.952h17.653c.525 0 .952-.426.952-.952s-.427-.952-.952-.952H27.869zM50.436 52.472c0-.526-.426-.953-.952-.953H27.87c-.526 0-.952.427-.952.953s.426.952.952.952h21.615c.526 0 .952-.426.952-.952zM56.55 48.528c0-.526-.427-.952-.953-.952H27.869c-.526 0-.952.426-.952.952s.426.953.952.953h27.728c.526 0 .952-.427.952-.953zM60.295 44.585c0-.526-.426-.952-.952-.952H27.869c-.526 0-.952.426-.952.952s.426.952.952.952h31.474c.526 0 .952-.426.952-.952zM33.71 25.53c-.525 0-.952.426-.952.952v1.156c-1.418.2-2.513 1.422-2.513 2.895 0 1.612 1.312 2.924 2.924 2.924h1.083c.562 0 1.02.458 1.02 1.02s-.458 1.02-1.02 1.02h-1.221c-.37 0-.689-.238-.795-.591-.15-.504-.681-.79-1.185-.639-.504.151-.79.682-.639 1.185.323 1.078 1.247 1.828 2.346 1.936v1.14c0 .526.427.952.953.952.525 0 .952-.426.952-.952v-1.156c1.418-.2 2.513-1.422 2.513-2.895 0-1.612-1.312-2.924-2.924-2.924H33.17c-.562 0-1.02-.457-1.02-1.02 0-.562.458-1.02 1.02-1.02h.968c.369 0 .688.238.794.592.151.503.682.79 1.186.638.503-.151.79-.682.638-1.185-.298-.994-1.107-1.71-2.092-1.899v-1.177c0-.526-.427-.952-.953-.952z"/>
    </g>
    <defs>
        <clipPath id="clip0">
            <path fill="#fff" d="M0 0H65V65H0z" transform="translate(17 18)"/>
        </clipPath>
    </defs>
</svg>
