<svg xmlns="http://www.w3.org/2000/svg" width="100" height="100" fill="none" viewBox="0 0 100 100">
    <circle cx="50" cy="50" r="49.75" fill="#F3F3F3" stroke="#E0E0E0" stroke-width=".5"/>
    <g clip-path="url(#clip0)">
        <path fill="#FF5200" d="M72.436 38.389c-.34.476-.34 1.115 0 1.59l10.025 14.036c1.295 1.811 0 4.327-2.227 4.327H32.343v5.474H20.026V25.5c0-3.023 2.451-5.474 5.474-5.474H80.234c2.226 0 3.521 2.517 2.227 4.328L72.436 38.389z"/>
        <path fill="#900" d="M32.343 69.29H25.5c-3.023 0-5.474-2.45-5.474-5.474 0-3.023 2.451-5.473 5.474-5.473h6.843V69.29z"/>
        <path fill="#FF8B00" d="M55.607 41.921h-35.58v-16.42c0-3.024 2.45-5.475 5.473-5.475H66.556c1.717 2.287 2.735 5.13 2.735 8.21 0 7.559-6.126 13.685-13.684 13.685z"/>
        <path fill="#fff" d="M38.843 47.395c0 .567-.46 1.026-1.026 1.026h-5.474c-.567 0-1.027-.46-1.027-1.026 0-.567.46-1.027 1.027-1.027h1.71V34.053l-2.258 3.01c-.34.454-.983.545-1.437.205-.453-.34-.545-.983-.205-1.436l4.105-5.474c.265-.354.727-.498 1.146-.358.42.14.702.532.702.974v15.394h1.71c.567 0 1.027.46 1.027 1.027zM61.08 29.947H52.87c-.567 0-1.026.46-1.026 1.027S52.303 32 52.87 32h3.079v9.921c0 .567.46 1.026 1.026 1.026.567 0 1.026-.459 1.026-1.026V32h3.08c.567 0 1.026-.46 1.026-1.026 0-.567-.46-1.027-1.026-1.027zm-16.422 7.527h2.737c.943 0 1.71.767 1.71 1.71 0 .944-.767 1.71-1.71 1.71H43.29c-.566 0-1.026.46-1.026 1.027s.46 1.026 1.026 1.026h4.106c2.075 0 3.763-1.688 3.763-3.763s-1.688-3.763-3.763-3.763h-2.737c-.943 0-1.71-.767-1.71-1.71 0-.944.767-1.711 1.71-1.711h4.105c.567 0 1.027-.46 1.027-1.026 0-.567-.46-1.027-1.027-1.027H44.66c-2.075 0-3.763 1.689-3.763 3.764 0 2.075 1.688 3.763 3.763 3.763zm15.053 8.894h-17.79c-.567 0-1.026.46-1.026 1.027s.46 1.026 1.026 1.026h17.79c.567 0 1.026-.46 1.026-1.026 0-.567-.46-1.027-1.026-1.027zm4.242 0h-.136c-.567 0-1.027.46-1.027 1.027s.46 1.026 1.027 1.026h.136c.567 0 1.027-.46 1.027-1.026 0-.567-.46-1.027-1.027-1.027z"/>
        <path fill="#000" d="M21.19 82.974c0 .567-.46 1.026-1.027 1.026h-.137C19.46 84 19 83.54 19 82.974c0-.567.46-1.027 1.026-1.027h.137c.567 0 1.027.46 1.027 1.027zm23.606-1.027h-.137c-.567 0-1.026.46-1.026 1.027S44.093 84 44.659 84h.137c.567 0 1.026-.46 1.026-1.026 0-.567-.46-1.027-1.026-1.027zm6.842 0h-.137c-.567 0-1.026.46-1.026 1.027S50.935 84 51.501 84h.137c.567 0 1.026-.46 1.026-1.026 0-.567-.459-1.027-1.026-1.027zm31.659-28.529c.823 1.152.931 2.65.284 3.91-.648 1.258-1.93 2.04-3.347 2.04H33.37v22.58h7.184c.567 0 1.027.459 1.027 1.026S41.12 84 40.554 84H24.131c-.567 0-1.027-.46-1.027-1.026 0-.567.46-1.027 1.027-1.027h7.184V70.316H25.5c-3.584 0-6.5-2.916-6.5-6.5V25.5c0-3.584 2.916-6.5 6.5-6.5h54.734c1.416 0 2.699.782 3.347 2.041.647 1.26.539 2.757-.284 3.91L73.27 38.984c-.085.12-.085.28 0 .398l10.026 14.035zm-51.98 5.95H25.5c-2.452 0-4.447 1.995-4.447 4.448 0 2.452 1.995 4.447 4.447 4.447h5.816V59.37zm50.31-4.757L71.6 40.576c-.595-.833-.595-1.951 0-2.784l10.025-14.035c.38-.532.428-1.196.13-1.777-.3-.58-.868-.927-1.522-.927H25.5c-2.452 0-4.447 1.995-4.447 4.447v33.58c1.163-1.093 2.728-1.764 4.447-1.764h54.734c.654 0 1.222-.347 1.521-.928.3-.58.251-1.245-.129-1.777z"/>
    </g>
    <defs>
        <clipPath id="clip0">
            <path fill="#fff" d="M0 0H65V65H0z" transform="translate(19 19)"/>
        </clipPath>
    </defs>
</svg>
