<svg width="68" height="68" fill="none" xmlns="http://www.w3.org/2000/svg">
    <g filter="url(#a)">
        <circle cx="34" cy="34" r="30" fill="#913AFF"/>
    </g>
    <path d="M41.906 21.969A4.097 4.097 0 0 0 39 23.187L23.187 39l-.062.313-1.094 5.5-.312 1.468 1.468-.312 5.5-1.094.313-.063L44.813 29a4.075 4.075 0 0 0 0-5.813 4.097 4.097 0 0 0-2.907-1.218zm0 1.906c.504 0 1.012.23 1.5.719.973.972.973 2.027 0 3l-.718.687-2.97-2.968.688-.72c.489-.488.996-.718 1.5-.718zm-3.593 2.844 2.968 2.968-12.093 12.094a6.814 6.814 0 0 0-2.97-2.968l12.095-12.094zM24.937 40.437a4.734 4.734 0 0 1 2.625 2.626l-3.28.656.655-3.282z" fill="#fff"/>
    <defs>
        <filter id="a" x="0" y="0" width="68" height="68" filterUnits="userSpaceOnUse" color-interpolation-filters="sRGB">
            <feFlood flood-opacity="0" result="BackgroundImageFix"/>
            <feColorMatrix in="SourceAlpha" values="0 0 0 0 0 0 0 0 0 0 0 0 0 0 0 0 0 0 127 0" result="hardAlpha"/>
            <feOffset/>
            <feGaussianBlur stdDeviation="2"/>
            <feColorMatrix values="0 0 0 0 0 0 0 0 0 0 0 0 0 0 0 0 0 0 0.25 0"/>
            <feBlend in2="BackgroundImageFix" result="effect1_dropShadow"/>
            <feBlend in="SourceGraphic" in2="effect1_dropShadow" result="shape"/>
        </filter>
    </defs>
</svg>
