<svg xmlns="http://www.w3.org/2000/svg" width="24" height="24" fill="none" viewBox="0 0 24 24">
    <path fill="#fff" d="M0 0H24V24H0z"/>
    <path fill="#4285F4" fill-rule="evenodd" d="M21.14 12.204c0-.638-.057-1.251-.164-1.84H12.5v3.48h4.844c-.209 1.126-.843 2.08-1.796 2.717v2.258h2.908c1.702-1.566 2.684-3.874 2.684-6.615z" clip-rule="evenodd"/>
    <path fill="#34A853" fill-rule="evenodd" d="M12.5 21c2.43 0 4.467-.806 5.956-2.18l-2.909-2.259c-.805.54-1.836.86-3.047.86-2.344 0-4.328-1.584-5.036-3.711H4.457v2.332C5.937 18.983 8.982 21 12.5 21z" clip-rule="evenodd"/>
    <path fill="#FBBC05" fill-rule="evenodd" d="M7.464 13.71c-.18-.54-.282-1.117-.282-1.71s.102-1.17.282-1.71V7.958H4.457C3.847 9.173 3.5 10.548 3.5 12s.348 2.827.957 4.042l3.007-2.332z" clip-rule="evenodd"/>
    <path fill="#EA4335" fill-rule="evenodd" d="M12.5 6.58c1.321 0 2.508.454 3.44 1.345l2.582-2.58C16.962 3.891 14.926 3 12.5 3 8.982 3 5.938 5.017 4.457 7.958l3.007 2.332c.708-2.127 2.692-3.71 5.036-3.71z" clip-rule="evenodd"/>
</svg>
