<svg xmlns="http://www.w3.org/2000/svg" width="19" height="18" fill="none" viewBox="0 0 19 18">
    <path fill="#4285F4" fill-rule="evenodd" d="M18.14 9.204c0-.638-.057-1.251-.164-1.84H9.5v3.48h4.844c-.209 1.126-.843 2.08-1.796 2.717v2.258h2.908c1.702-1.566 2.684-3.874 2.684-6.615z" clip-rule="evenodd"/>
    <path fill="#34A853" fill-rule="evenodd" d="M9.5 18c2.43 0 4.467-.806 5.956-2.18l-2.909-2.259c-.805.54-1.836.86-3.047.86-2.344 0-4.328-1.584-5.036-3.711H1.457v2.332C2.937 15.983 5.982 18 9.5 18z" clip-rule="evenodd"/>
    <path fill="#FBBC05" fill-rule="evenodd" d="M4.464 10.71c-.18-.54-.282-1.117-.282-1.71s.102-1.17.282-1.71V4.958H1.457C.847 6.173.5 7.548.5 9s.348 2.827.957 4.042l3.007-2.332z" clip-rule="evenodd"/>
    <path fill="#EA4335" fill-rule="evenodd" d="M9.5 3.58c1.321 0 2.508.454 3.44 1.345l2.582-2.58C13.962.891 11.926 0 9.5 0 5.982 0 2.938 2.017 1.457 4.958L4.464 7.29C5.172 5.163 7.156 3.58 9.5 3.58z" clip-rule="evenodd"/>
</svg>
