<svg xmlns="http://www.w3.org/2000/svg" width="100" height="100" fill="none" viewBox="0 0 100 100">
    <circle cx="50" cy="50" r="49.75" fill="#fff" stroke="#E0E0E0" stroke-width=".5"/>
    <path fill="#E0E0E0" d="M52.894 64.683c.088.675.137 1.328.735 1.725.786.518 1.863.135 2.65-.186.64-.26 1.267-.558 1.867-.903 1.063-.61.105-2.256-.961-1.644-.456.262-.93.506-1.413.711-.314.134-.635.237-.964.322-.105-.825-.348-1.647-1.252-1.917-1.238-.355-2.517.838-3.609 1.294.069-.358.143-.723.15-1.09-.004-1.986-1.582-2.431-3.13-1.502-1.66.914-3.15 2.433-4.309 3.916-.319.408-.39.947 0 1.346.326.334 1.03.405 1.347 0 1.138-1.432 2.538-2.924 4.189-3.743-.007.2-.05.396-.088.593-.103.528-.265 1.12-.106 1.653.569 1.906 2.983.44 4.004-.118.287-.158.574-.325.874-.458-.044.02-.024.015.016.001zm-.057-.225h-.002.002z"/>
    <path fill="#E0E0E0" d="M82.048 32.356H61.623c-.997-.985-1.243-1.536-1.242-2.942.003-2.813-1.217-4.072-4.063-4.068-1.341 0-1.935-.227-2.874-1.182-2.036-2.072-3.848-2.076-5.888 0-.938.953-1.534 1.185-2.874 1.182-2.854-.005-4.066 1.291-4.063 4.068.001 1.347-.306 2.016-1.242 2.942h-9.25c-1.259.043-1.26 1.86 0 1.904h7.791c-.267.666-.244 1.423.046 2.07H26.862c-.524 0-.95.425-.952.95-.005 1.648-1.348 2.994-2.993 3-.524.001-.949.427-.949.951v26.272c0 .525.425.95.95.952 1.65.006 2.992 1.356 2.992 3.01 0 .526.427.952.953.952h36.73c.525 0 .952-.426.952-.952s-.427-.952-.952-.952H27.722c-.383-1.94-1.913-3.477-3.85-3.866v-24.56c1.93-.388 3.46-1.919 3.847-3.852h11.766c.93.919 1.135 1.525 1.134 2.835-.003 2.664 1.087 4.063 3.846 4.068v11.238c0 .72.802 1.184 1.426.826l4.609-2.643 4.609 2.643c.623.358 1.426-.107 1.426-.826V45.138c2.77-.007 3.849-1.433 3.846-4.068-.001-1.31.203-1.916 1.134-2.835h11.75c.383 1.947 1.918 3.485 3.862 3.869v24.54c-1.944.384-3.48 1.922-3.862 3.869h-3.682c-.526 0-.952.426-.952.952s.426.952.952.952h4.541c.526 0 .953-.426.953-.952 0-1.66 1.347-3.01 3.002-3.01.526 0 .953-.426.953-.952V41.245c0-.526-.427-.953-.953-.953-1.655 0-3.002-1.35-3.002-3.01 0-.525-.427-.951-.953-.951H63.036c.29-.648.313-1.405.045-2.071h18.015v40.228H19.904V34.26h4.701c.526 0 .953-.426.953-.952s-.427-.952-.953-.952h-5.653c-.526 0-.952.426-.952.952V75.44c0 .526.426.952.952.952h63.096c.526 0 .952-.426.952-.952V33.308c0-.526-.426-.952-.952-.952zm-31.074 20.28c-.294-.17-.654-.17-.948 0l-3.656 2.096v-9.42c.351.16.775.59 1.186 1.009 2.036 2.071 3.848 2.075 5.888 0 .41-.418.834-.85 1.186-1.01v9.421l-3.656-2.097zm7.81-13.96c-.309.743-.308 1.583-.307 2.396.002 1.769-.337 2.165-2.157 2.162-1.815 0-2.932.427-4.234 1.751-1.28 1.303-1.856 1.339-3.172 0-1.314-1.336-2.383-1.754-4.234-1.751-1.77.003-2.159-.344-2.157-2.162.216-4.734-4.725-4.56-1.748-7.42 1.302-1.285 1.75-2.398 1.748-4.24-.002-1.768.337-2.166 2.157-2.162 1.826.002 2.944-.44 4.234-1.752 1.28-1.302 1.856-1.338 3.172 0 1.282 1.305 2.392 1.752 4.234 1.752 1.77 0 2.159.342 2.157 2.162-.002 1.827.437 2.946 1.748 4.24 1.293 1.274 1.34 1.86 0 3.181-.563.555-1.145 1.13-1.442 1.844z"/>
    <path fill="#E0E0E0" d="M69.87 49.236c1.262-.043 1.26-1.86 0-1.904h-6.13c-1.26.044-1.26 1.861 0 1.904h6.13zM59.523 53.55c0 .526.427.952.953.952h12.66c1.26-.044 1.26-1.861 0-1.904h-12.66c-.526 0-.953.426-.953.952zM63.74 59.767h6.13c1.261-.044 1.26-1.861 0-1.905h-6.13c-1.26.044-1.26 1.861 0 1.905zM37.26 49.236c1.26-.043 1.26-1.86 0-1.904h-6.13c-1.261.044-1.26 1.861 0 1.904h6.13zM41.477 53.55c0-.526-.427-.952-.953-.952h-12.66c-1.26.043-1.26 1.86 0 1.904h12.66c.526 0 .953-.426.953-.952zM31.13 57.862c-1.261.044-1.26 1.861 0 1.905h6.13c1.26-.044 1.26-1.861 0-1.905h-6.13zM50.5 28.175c-3.89 0-7.056 3.17-7.056 7.066.387 9.375 13.726 9.372 14.112 0 0-3.896-3.165-7.066-7.056-7.066zm0 12.228c-2.84 0-5.152-2.315-5.152-5.162.283-6.848 10.022-6.846 10.304 0 0 2.847-2.311 5.162-5.152 5.162z"/>
    <path fill="#E0E0E0" d="M52.231 34.29h-.78v-.78c0-.525-.426-.951-.952-.951s-.952.426-.952.952v.78h-.779c-1.26.044-1.259 1.86 0 1.904h.781v.779c0 .526.426.952.952.952s.952-.427.952-.953v-.78h.779c1.26-.044 1.259-1.86 0-1.904z"/>
</svg>
