<svg xmlns="http://www.w3.org/2000/svg" width="100" height="100" fill="none" viewBox="0 0 100 100">
    <circle cx="50" cy="50" r="49.75" fill="#F3F3F3" stroke="#E0E0E0" stroke-width=".5"/>
    <path fill="#FEDBA6" d="M56.67 25.762v-.001c8.625 2.453 15.561 8.91 18.676 17.234h-.003c1.19 3.178 1.822 6.625 1.78 10.226-.19 15.462-12.94 27.828-28.404 27.828H28.682c-.77 0-1.269-.81-.923-1.496l2.715-5.399c-5.928-5.148-9.685-12.733-9.712-21.196-.047-15.318 12.02-27.806 27.33-28.258 2.984-.089 5.864.29 8.579 1.062z"/>
    <path fill="#FDB4BA" d="M68.883 44.661c7.376 0 13.355-5.979 13.355-13.354 0-7.376-5.979-13.355-13.355-13.355-7.375 0-13.354 5.98-13.354 13.355S61.508 44.66 68.883 44.66z"/>
    <path fill="#FE99A0" d="M60.308 30.94c0-6.2 4.227-11.415 9.958-12.917-.455-.047-.916-.07-1.383-.07-7.375 0-13.354 5.978-13.354 13.354 0 7.375 5.979 13.354 13.354 13.354 1.174 0 2.312-.152 3.397-.436-6.726-.692-11.972-6.375-11.972-13.284z"/>
    <path fill="#F7F6F7" d="M48.943 55.257c1.32 0 2.389-1.07 2.389-2.389 0-1.319-1.07-2.389-2.39-2.389-1.319 0-2.388 1.07-2.388 2.39 0 1.319 1.07 2.388 2.389 2.388zM37.042 55.257c1.319 0 2.389-1.07 2.389-2.389 0-1.319-1.07-2.389-2.39-2.389-1.319 0-2.388 1.07-2.388 2.39 0 1.319 1.07 2.388 2.389 2.388zM60.844 55.257c1.32 0 2.389-1.07 2.389-2.389 0-1.319-1.07-2.389-2.389-2.389-1.32 0-2.389 1.07-2.389 2.39 0 1.319 1.07 2.388 2.389 2.388z"/>
    <path fill="#FECE85" d="M28.356 51.911c0-11.55 6.384-21.606 15.823-26.827-13.408 2.257-23.46 13.885-23.417 27.874.027 8.463 3.784 16.047 9.712 21.196l-2.715 5.399c-.346.686.154 1.496.923 1.496h20.037c.253 0 .505-.004.756-.01-12.26-4.004-21.119-15.53-21.119-29.128z"/>
    <path fill="#000" d="M73.526 66.624c-.449-.274-1.034-.132-1.308.316-2.41 3.94-5.813 7.24-9.843 9.54-4.144 2.367-8.866 3.617-13.655 3.617H28.682c-.015 0-.046 0-.07-.039-.023-.038-.01-.066-.003-.079l2.716-5.398c.196-.388.103-.86-.226-1.146-2.926-2.54-5.323-5.742-6.93-9.258-.219-.478-.783-.688-1.261-.47-.478.22-.689.784-.47 1.262 1.617 3.536 3.98 6.775 6.859 9.41l-2.388 4.745c-.312.62-.28 1.342.084 1.933.364.59.995.943 1.689.943H48.72c5.12 0 10.168-1.337 14.599-3.867 4.308-2.46 7.947-5.987 10.522-10.2.275-.449.133-1.035-.315-1.309zM22.77 60.402c-.693-2.412-1.048-4.918-1.056-7.448-.022-7.16 2.69-13.922 7.638-19.039 4.948-5.118 11.614-8.053 18.768-8.265 1.565-.046 3.14.042 4.682.262.52.073 1.002-.288 1.076-.809.074-.52-.288-1.002-.808-1.076-1.65-.234-3.334-.328-5.006-.279-7.653.226-14.785 3.367-20.08 8.844-5.295 5.476-8.197 12.71-8.173 20.368.008 2.706.388 5.386 1.13 7.968.12.417.5.689.914.689.087 0 .176-.012.264-.038.505-.145.797-.672.651-1.177zM76.24 45.779c-.513.114-.836.623-.722 1.136.459 2.054.678 4.171.652 6.294-.042 3.483-.742 6.87-2.078 10.066-.203.485.026 1.042.51 1.245.12.05.245.074.368.074.372 0 .725-.22.878-.585 1.431-3.422 2.18-7.048 2.225-10.777.028-2.27-.206-4.534-.697-6.732-.115-.513-.624-.836-1.136-.721zM68.883 17c-7.888 0-14.305 6.418-14.305 14.306 0 3.584 1.332 7.014 3.75 9.656.355.388.957.414 1.345.06.388-.355.414-.957.06-1.345-2.097-2.29-3.252-5.264-3.252-8.371 0-6.839 5.564-12.403 12.402-12.403 6.84 0 12.403 5.564 12.403 12.403s-5.564 12.403-12.403 12.403c-2.184 0-4.333-.577-6.212-1.667-.454-.263-1.037-.108-1.3.346-.264.455-.11 1.037.345 1.3 2.17 1.259 4.648 1.924 7.168 1.924 7.888 0 14.306-6.418 14.306-14.306C83.19 23.418 76.772 17 68.884 17zM45.602 52.868c0 1.842 1.5 3.34 3.341 3.34 1.842 0 3.34-1.498 3.34-3.34 0-1.842-1.498-3.34-3.34-3.34-1.842 0-3.34 1.498-3.34 3.34zm4.778 0c0 .792-.644 1.437-1.437 1.437s-1.437-.645-1.437-1.437c0-.793.644-1.438 1.437-1.438s1.437.645 1.437 1.438zM33.7 52.868c0 1.842 1.5 3.34 3.341 3.34 1.843 0 3.341-1.498 3.341-3.34 0-1.842-1.498-3.34-3.34-3.34-1.842 0-3.341 1.498-3.341 3.34zm4.779 0c0 .792-.645 1.437-1.438 1.437-.792 0-1.437-.645-1.437-1.437 0-.793.645-1.438 1.438-1.438.792 0 1.437.645 1.437 1.438zM64.184 52.868c0-1.842-1.498-3.34-3.34-3.34-1.842 0-3.34 1.498-3.34 3.34 0 1.842 1.498 3.34 3.34 3.34 1.842 0 3.34-1.498 3.34-3.34zm-4.777 0c0-.793.645-1.438 1.437-1.438.793 0 1.438.645 1.438 1.438 0 .792-.645 1.437-1.438 1.437-.793 0-1.437-.645-1.437-1.437z"/>
    <path fill="#000" d="M66.01 37.4c.526 0 .952-.426.952-.951V26.163c0-.526-.426-.952-.952-.952H63.48c-.526 0-.952.426-.952.952 0 .525.426.951.952.951h1.58v9.335c0 .525.426.951.951.951zM73.662 27.708c-.525 0-.951.426-.951.952v1.694h-1.695c-.526 0-.952.427-.952.952 0 .525.426.952.952.952h1.695v1.694c0 .526.426.952.951.952.526 0 .952-.426.952-.952v-1.694h1.695c.525 0 .951-.427.951-.952 0-.526-.426-.952-.951-.952h-1.695V28.66c0-.526-.426-.952-.952-.952z"/>
</svg>
