<svg xmlns="http://www.w3.org/2000/svg" width="100" height="100" fill="none" viewBox="0 0 100 100">
    <circle cx="50" cy="50" r="49.75" fill="#fff" stroke="#E0E0E0" stroke-width=".5"/>
    <g clip-path="url(#clip0)">
        <path fill="#FEE97D" d="M50.557 46.63c7.642 0 13.838-6.196 13.838-13.838 0-7.643-6.196-13.839-13.838-13.839-7.643 0-13.839 6.196-13.839 13.839 0 7.642 6.196 13.838 13.839 13.838z"/>
        <path fill="#FECE85" d="M50.538 42.67c5.451 0 9.87-4.419 9.87-9.87 0-5.452-4.419-9.871-9.87-9.871-5.452 0-9.871 4.419-9.871 9.87 0 5.452 4.42 9.871 9.87 9.871z"/>
        <path fill="#FEE45A" d="M40.666 32.8c0-3.949 2.32-7.357 5.672-8.935 1.884-2.229 4.46-3.854 7.396-4.544-1.02-.24-2.084-.367-3.178-.367-7.642 0-13.838 6.196-13.838 13.839 0 7.642 6.195 13.838 13.838 13.838 1.094 0 2.158-.127 3.178-.367-2.925-.687-5.492-2.302-7.374-4.517-3.363-1.574-5.694-4.988-5.694-8.946z"/>
        <path fill="#FEC165" d="M46.338 23.864c-3.351 1.578-5.671 4.986-5.671 8.936 0 3.958 2.33 7.373 5.694 8.946-2.05-2.414-3.287-5.54-3.287-8.954 0-3.402 1.228-6.518 3.264-8.928z"/>
        <path fill="#ADE194" d="M55.353 58.482h-3.926c-.491 0-.89-.398-.89-.89 0-3.892 3.156-7.048 7.049-7.048h3.926c.491 0 .89.398.89.89 0 3.892-3.156 7.048-7.05 7.048z"/>
        <path fill="#97DA7B" d="M54.35 57.593c0-3.893 3.156-7.05 7.05-7.05h-3.814c-3.893 0-7.049 3.157-7.049 7.05 0 .491.399.89.89.89h3.813c-.491 0-.89-.399-.89-.89z"/>
        <path fill="#ADE194" d="M45.751 58.483h3.926c.491 0 .89-.398.89-.89 0-3.892-3.156-7.048-7.05-7.048h-3.925c-.491 0-.89.398-.89.89 0 3.893 3.156 7.048 7.049 7.048z"/>
        <path fill="#97DA7B" d="M42.516 51.435c0-.492.398-.89.89-.89h-3.814c-.491 0-.89.398-.89.89 0 3.893 3.156 7.048 7.049 7.048h3.813c-3.893 0-7.048-3.155-7.048-7.048z"/>
        <path fill="#E19974" d="M38.702 64.052h23.7v4.144h-23.7v-4.144z"/>
        <path fill="#DC8758" d="M38.702 64.052h3.814v4.144h-3.814v-4.144z"/>
        <path fill="#E19974" d="M60.427 68.228H40.686l1.974 13.819h15.793l1.974-13.82z"/>
        <path fill="#DC8758" d="M46.697 70.77h13.367l.363-2.542H40.686l1.974 13.819h3.45l-1.3-9.101c-.164-1.149.727-2.176 1.887-2.176z"/>
        <path fill="#000" d="M65.227 34.696c.068-.523-.301-1-.823-1.068-.523-.067-1 .302-1.067.824-.824 6.4-6.319 11.225-12.78 11.225-7.105 0-12.886-5.78-12.886-12.885 0-7.105 5.78-12.885 12.886-12.885 6.289 0 11.628 4.49 12.695 10.675.09.519.583.867 1.102.777.519-.09.867-.582.777-1.101C63.924 23.26 57.653 18 50.557 18c-8.157 0-14.792 6.636-14.792 14.792 0 7.836 6.125 14.268 13.838 14.761v4.85c-1.469-1.72-3.652-2.811-6.085-2.811h-3.926c-1.016 0-1.843.827-1.843 1.843 0 4.412 3.59 8.002 8.002 8.002h3.852v3.662h-10.9c-.527 0-.954.426-.954.953v4.144c0 .527.427.953.953.953h1.152l.54 3.778c.074.52.557.882 1.078.808.521-.074.883-.557.809-1.078l-.497-3.477h17.544l-1.702 11.913H43.487l-.617-4.323c-.075-.521-.557-.884-1.079-.809-.521.075-.883.558-.809 1.079l.735 5.141c.067.47.47.819.944.819h15.792c.474 0 .876-.349.943-.819L61.26 69.15h1.142c.527 0 .954-.426.954-.953v-4.144c0-.527-.427-.954-.953-.954H51.51v-3.663h3.843c1.107 0 2.18-.222 3.187-.661.483-.21.703-.773.493-1.255-.21-.483-.772-.704-1.255-.493-.765.333-1.582.502-2.426.502H51.52c-.026-3.245 2.81-6.03 6.067-6.03h3.862c-.011 1.13-.333 2.227-.932 3.177-.28.446-.147 1.034.299 1.315.445.28 1.034.147 1.314-.299.802-1.273 1.226-2.745 1.226-4.258 0-1.016-.827-1.843-1.843-1.843h-3.926c-2.328 0-4.562 1.032-6.076 2.794v-4.831c6.998-.45 12.812-5.827 13.717-12.857zm-3.779 32.547H39.656v-2.238h21.792v2.238zM39.656 51.499h3.862c3.216 0 6.09 2.811 6.066 6.031h-3.833c-3.34 0-6.061-2.7-6.095-6.031z"/>
        <path fill="#000" d="M51.08 31.973h-1.085c-.563 0-1.02-.457-1.02-1.02s.457-1.021 1.02-1.021h.969c.37 0 .689.238.795.591.151.505.683.791 1.187.64.504-.152.79-.683.64-1.188-.299-.994-1.109-1.71-2.096-1.9v-1.178c0-.527-.426-.954-.953-.954-.526 0-.953.427-.953.954v1.157c-1.42.2-2.516 1.424-2.516 2.899 0 1.614 1.313 2.927 2.927 2.927h1.085c.562 0 1.02.458 1.02 1.02 0 .564-.458 1.022-1.02 1.022h-1.224c-.37 0-.689-.238-.795-.592-.15-.504-.682-.791-1.187-.64-.504.152-.79.684-.639 1.188.324 1.078 1.249 1.83 2.349 1.937v1.142c0 .526.427.953.953.953.527 0 .954-.427.954-.953V37.8c1.42-.201 2.516-1.424 2.516-2.9 0-1.613-1.313-2.927-2.928-2.927z"/>
        <path fill="#000" d="M50.538 21.977c-5.969 0-10.825 4.855-10.825 10.824 0 5.968 4.856 10.824 10.825 10.824 5.968 0 10.824-4.856 10.824-10.824 0-5.969-4.856-10.824-10.825-10.824zm0 19.741c-4.918 0-8.918-4-8.918-8.917s4-8.918 8.918-8.918c4.917 0 8.917 4 8.917 8.918 0 4.917-4 8.917-8.917 8.917z"/>
    </g>
    <defs>
        <clipPath id="clip0">
            <path fill="#fff" d="M0 0H65V65H0z" transform="translate(18 18)"/>
        </clipPath>
    </defs>
</svg>
