<svg xmlns="http://www.w3.org/2000/svg" width="100" height="100" fill="none" viewBox="0 0 100 100">
    <circle cx="50" cy="50" r="49.75" fill="#fff" stroke="#E0E0E0" stroke-width=".5"/>
    <path fill="#E0E0E0" d="M39.02 62.492c-1.754 0-3.246-1.29-3.489-3.029-.023-.161-.034-.327-.034-.492 0-.526-.426-.952-.952-.952s-.952.426-.952.952c0 .253.017.507.052.755.374 2.68 2.674 4.67 5.374 4.67 2.882 0 5.269-2.28 5.417-5.138.161-3.111-2.308-5.713-5.418-5.713-.748 0-1.33.061-1.84.175l.691-4.175h4.688c.526 0 .952-.426.952-.952s-.426-.952-.952-.952h-5.495c-.466 0-.863.337-.94.796l-1.088 6.57c-.127.766.675 1.36 1.374 1.003.88-.45 1.636-.56 2.61-.56 2.002 0 3.622 1.672 3.516 3.71-.096 1.853-1.644 3.332-3.515 3.332z"/>
    <path fill="#E0E0E0" d="M39.102 73.524c3.29 1.426 6.79 2.15 10.399 2.15 14.43 0 26.171-11.742 26.171-26.174 0-14.43-11.74-26.17-26.171-26.17-14.432 0-26.173 11.74-26.173 26.17 0 9.24 4.816 17.498 12.276 22.181.445.28 1.033.146 1.313-.3.28-.445.145-1.033-.3-1.313-6.89-4.326-11.385-11.966-11.385-20.567 0-13.063 10.375-23.745 23.317-24.247v10.709c0 .526.426.952.952.952s.952-.426.952-.952v-10.71c12.625.49 22.805 10.67 23.294 23.295H50.453V39.77c0-.526-.426-.952-.952-.952s-.952.426-.952.952v9.73c0 .526.426.953.952.953h24.246c-.501 12.941-11.184 23.316-24.246 23.316-3.348 0-6.591-.67-9.641-1.992-.483-.21-1.043.013-1.253.495-.209.482.013 1.043.495 1.252z"/>
    <path fill="#E0E0E0" d="M78.172 34.189c-.248-.464-.825-.64-1.288-.39-.464.247-.639.824-.39 1.288 2.356 4.404 3.602 9.388 3.602 14.413 0 16.91-13.684 30.596-30.596 30.596-16.91 0-30.596-13.684-30.596-30.596 0-16.91 13.684-30.596 30.596-30.596 10.097 0 19.35 4.935 25.029 12.997.303.43.897.533 1.326.23.43-.303.533-.897.23-1.327C70.03 22.209 60.183 17 49.5 17 31.538 17 17 31.536 17 49.5 17 67.462 31.536 82 49.5 82 67.462 82 82 67.464 82 49.5c0-5.337-1.324-10.632-3.828-15.311z"/>
</svg>
