<svg width="24" height="24" fill="none" xmlns="http://www.w3.org/2000/svg">
    <path d="M19.028 1A3.972 3.972 0 0 1 23 4.972v8.407c0 .73-.29 1.43-.805 1.945l-6.871 6.87A2.75 2.75 0 0 1 13.38 23H4.972A3.972 3.972 0 0 1 1 19.028V4.972A3.972 3.972 0 0 1 4.972 1h14.056zm0 1.833H4.972a2.139 2.139 0 0 0-2.139 2.14v14.055c0 1.181.958 2.139 2.14 2.139h8.25v-3.745c-.27.04-.545.067-.824.08l-.398.01a7.742 7.742 0 0 1-4.495-1.394.917.917 0 0 1 1.043-1.508 5.91 5.91 0 0 0 3.452 1.068c.565 0 1.104-.069 1.618-.208a3.97 3.97 0 0 1 3.317-2.24l.26-.008h3.97v-8.25a2.139 2.139 0 0 0-2.138-2.139zm.842 12.223h-2.674a2.14 2.14 0 0 0-2.132 1.963l-.008.176v2.675l4.814-4.814zM8.334 6.807a1.527 1.527 0 1 1 0 3.054 1.527 1.527 0 0 1 0-3.054zm7.333 0a1.527 1.527 0 1 1 0 3.054 1.527 1.527 0 0 1 0-3.054z" fill="#E0E0E0"/>
</svg>
