<svg width="22" height="22" fill="none" xmlns="http://www.w3.org/2000/svg">
    <path d="M4.4 6.286V3.143C4.4 1.407 6.37 0 8.8 0c.801 0 1.553.153 2.2.42A5.783 5.783 0 0 1 13.2 0c2.43 0 4.4 1.407 4.4 3.143v3.143h1.1c1.823 0 3.3 1.055 3.3 2.357v10.214C22 20.593 20.03 22 17.6 22H4.4C1.97 22 0 20.593 0 18.857V8.643C0 7.34 1.477 6.286 3.3 6.286h1.1zm2.2-3.143v3.143H11V3.143c0-.868-.985-1.572-2.2-1.572-1.215 0-2.2.704-2.2 1.572zm11 17.286c1.215 0 2.2-.704 2.2-1.572V8.643c0-.434-.492-.786-1.1-.786h-3.3v11c0 .868.985 1.572 2.2 1.572zM13.2 7.857H3.3c-.608 0-1.1.352-1.1.786v10.214c0 .868.985 1.572 2.2 1.572h9.389c-.375-.463-.589-1-.589-1.572v-11zm0-4.714v3.143h2.2V3.143c0-.868-.985-1.572-2.2-1.572-.19 0-.374.018-.55.05.35.45.55.97.55 1.522z" fill="#913AFF"/>
</svg>
