<svg width="24" height="24" fill="none" xmlns="http://www.w3.org/2000/svg">
    <path d="M12 1c6.075 0 11 4.925 11 11s-4.925 11-11 11c-1.78 0-3.5-.424-5.046-1.223L2.746 22.95a1.375 1.375 0 0 1-1.694-1.694l1.174-4.206A10.955 10.955 0 0 1 1 12C1 5.925 5.925 1 12 1zm0 1.65A9.35 9.35 0 0 0 2.65 12c0 1.617.41 3.172 1.18 4.551l.166.297-1.224 4.383 4.385-1.224.297.165A9.303 9.303 0 0 0 12 21.35a9.35 9.35 0 1 0 0-18.7zM8.425 13.1h4.948a.825.825 0 0 1 .112 1.643l-.112.007H8.425a.825.825 0 0 1-.112-1.643l.112-.007h4.948-4.948zm0-3.85h7.155a.825.825 0 0 1 .112 1.643l-.112.007H8.425a.825.825 0 0 1-.112-1.642l.112-.008h7.155-7.155z" fill="#E0E0E0"/>
</svg>
