<svg width="84" height="33" fill="none" xmlns="http://www.w3.org/2000/svg">
    <path d="M23.634.5h1.824v24.958h-1.824V.5zM30.526 7.592h1.864v17.866h-1.864V7.592zM4.36 22.178c-1.468-1.493-2.215-3.344-2.215-5.529 0-2.176.72-4.023 2.166-5.521 1.436-1.492 3.233-2.25 5.338-2.25 2.11 0 3.915.767 5.375 2.283 1.456 1.516 2.193 3.36 2.194 5.484h-.5c.003 2.009-.689 3.725-2.083 5.143l-10.274.39zm0 0c1.472 1.497 3.275 2.236 5.357 2.236 2.022 0 3.798-.763 5.275-2.276l-10.631.04zM2.329 9.97v1.38l.884-1.06c1.78-2.133 3.934-3.177 6.509-3.177 2.602 0 4.798.918 6.603 2.767 1.816 1.86 2.725 4.082 2.725 6.697 0 2.625-.893 4.853-2.688 6.716-1.79 1.859-3.944 2.787-6.468 2.787-2.505 0-4.731-1.05-6.694-3.225l-.87-.965v10.246H.5V7.596h1.828V9.97zM58.187 3.392l-.002-.002a1.643 1.643 0 0 1-.489-1.191c0-.456.154-.841.492-1.194.333-.346.719-.505 1.17-.505.495 0 .888.164 1.227.495.326.331.484.718.484 1.204 0 .482-.158.872-.484 1.203-.34.333-.727.492-1.203.492-.477 0-.866-.16-1.195-.502zM30.267 1.007l.003-.003A1.54 1.54 0 0 1 31.439.5c.493 0 .897.167 1.217.492.33.333.49.721.49 1.207 0 .482-.16.873-.49 1.206-.321.326-.714.489-1.2.489-.47 0-.862-.16-1.186-.5l-.006-.007A1.62 1.62 0 0 1 29.77 2.2c0-.456.154-.84.497-1.192zM69.021 11.04c-1.55 1.47-2.332 3.304-2.332 5.47 0 2.163.761 4.03 2.291 5.578 1.528 1.557 3.456 2.323 5.765 2.323 2.64 0 4.881-1.06 6.71-3.145l1.415.975a9.057 9.057 0 0 1-3.39 2.744h-.001c-1.524.733-3.18 1.1-4.974 1.1-2.773 0-5.057-.912-6.903-2.735l-.001-.001c-1.849-1.815-2.765-4.027-2.765-6.667 0-2.632.923-4.88 2.784-6.759 1.845-1.862 4.235-2.81 7.226-2.81 1.762 0 3.382.386 4.858 1.153 1.313.687 2.373 1.62 3.174 2.793l-1.437.909c-1.729-2.076-3.98-3.123-6.7-3.123-2.25 0-4.168.726-5.72 2.195zM58.456 7.592h1.864v17.866h-1.864V7.592zM50.164 8.088l.004.002c1.021.647 1.786 1.541 2.307 2.687.507 1.135.776 2.947.776 5.49v9.188h-1.828v-8.493c0-2.07-.083-3.547-.307-4.371-.21-.797-.515-1.49-.944-2.074a3.965 3.965 0 0 0-1.646-1.322c-.673-.29-1.454-.422-2.338-.422-.93 0-1.824.235-2.695.676l-.004.002a6.725 6.725 0 0 0-2.229 1.867 7.146 7.146 0 0 0-1.285 2.532l-.003.01c-.229.9-.338 2.624-.338 5.107v6.491H37.77V7.596h1.864v3.714l.884-1.054c1.779-2.123 3.846-3.146 6.237-3.146 1.264 0 2.402.324 3.409.978z" fill="#fff" stroke="#fff" stroke-miterlimit="10"/>
</svg>
