<svg width="84" height="32" fill="none" xmlns="http://www.w3.org/2000/svg">
    <path d="M26.09 0h-2.838v25.452h2.839V0zM33.058 6.954H30.18v18.498h2.878V6.954zM9.77 6.484c-2.748 0-5.05 1.098-6.927 3.292V6.957H0V32h2.843v-9.262c2.053 2.22 4.42 3.324 7.1 3.324 2.677 0 4.972-.967 6.864-2.883 1.895-1.919 2.842-4.226 2.842-6.925 0-2.692-.966-4.993-2.882-6.908-1.91-1.909-4.248-2.862-6.997-2.862zm4.94 14.878c-1.395 1.394-3.052 2.086-4.943 2.086-1.96 0-3.642-.674-5.026-2.047-1.38-1.369-2.082-3.059-2.082-5.077 0-2.014.677-3.7 2.035-5.073 1.348-1.366 3.023-2.057 5.004-2.057 1.986 0 3.668.699 5.04 2.089 1.373 1.393 2.065 3.08 2.065 5.038.003 1.968-.692 3.651-2.093 5.041zM59.66 0c-.59 0-1.109.212-1.538.646-.425.434-.634.931-.634 1.51 0 .575.21 1.083.634 1.51.43.434.952.642 1.564.642.612 0 1.127-.208 1.563-.625.426-.42.634-.928.634-1.527 0-.604-.208-1.108-.634-1.528A2.207 2.207 0 0 0 59.661 0zM31.598 0C31 0 30.484.212 30.059.646c-.432.434-.641.931-.641 1.51 0 .575.209 1.083.641 1.51a2.1 2.1 0 0 0 1.557.642c.616 0 1.142-.208 1.563-.625.425-.42.638-.928.638-1.527a2.06 2.06 0 0 0-.638-1.528C32.758.212 32.221 0 31.598 0zM75.126 23.444c-2.197 0-4.002-.706-5.436-2.131-1.445-1.425-2.158-3.133-2.158-5.126 0-1.99.731-3.659 2.187-5.007 1.459-1.347 3.26-2.018 5.404-2.018 2.727 0 4.942 1.073 6.621 3.221l2.252-1.39c-.879-1.422-2.104-2.533-3.653-3.323-1.56-.79-3.268-1.186-5.116-1.186-3.123 0-5.66.97-7.62 2.9-1.963 1.934-2.943 4.262-2.943 6.972 0 2.717.973 5.013 2.929 6.887 1.956 1.884 4.38 2.822 7.292 2.822 1.873 0 3.613-.374 5.216-1.125A9.56 9.56 0 0 0 84 21.687l-2.22-1.496c-1.805 2.173-4.02 3.253-6.654 3.253zM61.13 6.954h-2.878v18.498h2.878V6.954zM50.694 7.519c-1.1-.695-2.339-1.038-3.7-1.038-2.573 0-4.785 1.084-6.654 3.26V6.958h-2.88v18.494h2.88v-6.855c0-2.442.111-4.071.324-4.886.23-.815.62-1.585 1.203-2.311a6.223 6.223 0 0 1 2.075-1.697c.814-.403 1.636-.61 2.482-.61.84 0 1.553.123 2.151.373.587.247 1.07.632 1.448 1.136.386.512.67 1.133.869 1.87.205.734.291 2.117.291 4.16v8.817h2.843V15.95c0-2.512-.27-4.375-.825-5.585-.562-1.207-1.394-2.16-2.507-2.847z" fill="#fff"/>
</svg>
