<svg width="84" height="33" fill="none" xmlns="http://www.w3.org/2000/svg">
    <path d="M23.633.5h1.824v24.958h-1.824V.5zM30.525 7.592h1.864v17.866h-1.864V7.592zM4.36 22.177c-1.468-1.493-2.215-3.344-2.215-5.528 0-2.176.72-4.023 2.166-5.522 1.436-1.491 3.233-2.25 5.338-2.25 2.11 0 3.915.767 5.375 2.283 1.456 1.516 2.193 3.36 2.194 5.484v.001h-.5c.003 2.008-.689 3.725-2.083 5.142l-10.274.39zm0 0c1.472 1.497 3.275 2.237 5.357 2.237 2.022 0 3.798-.764 5.275-2.277l-10.631.04zM2.329 9.97v1.38l.884-1.06c1.78-2.133 3.934-3.177 6.509-3.177 2.602 0 4.798.919 6.603 2.768 1.816 1.86 2.725 4.081 2.725 6.696 0 2.625-.893 4.853-2.688 6.717-1.79 1.858-3.944 2.786-6.468 2.786-2.505 0-4.731-1.05-6.694-3.224l-.87-.965V32.136H.5V7.596h1.828V9.97zM58.186 3.392l-.001-.002a1.642 1.642 0 0 1-.49-1.191c0-.456.155-.841.492-1.194.333-.346.72-.505 1.17-.505.495 0 .888.164 1.228.495.326.331.483.718.483 1.204 0 .482-.158.872-.483 1.203-.341.333-.728.492-1.203.492-.478 0-.867-.16-1.196-.502zM30.266 1.007l.003-.003A1.54 1.54 0 0 1 31.439.5c.493 0 .896.167 1.217.492.33.333.49.721.49 1.207 0 .482-.161.873-.49 1.206-.322.326-.715.489-1.2.489-.471 0-.862-.16-1.187-.5l-.006-.007A1.62 1.62 0 0 1 29.77 2.2c0-.456.155-.84.497-1.192zM69.021 11.04c-1.55 1.47-2.332 3.304-2.332 5.469 0 2.163.761 4.031 2.291 5.579 1.528 1.557 3.456 2.322 5.765 2.322 2.64 0 4.881-1.06 6.71-3.145l1.415.976a9.056 9.056 0 0 1-3.39 2.743l-.002.001c-1.523.732-3.18 1.099-4.973 1.099-2.773 0-5.057-.911-6.904-2.735-1.849-1.815-2.765-4.028-2.765-6.668 0-2.631.923-4.88 2.784-6.758 1.844-1.862 4.234-2.81 7.225-2.81 1.763 0 3.382.386 4.86 1.153 1.312.686 2.372 1.619 3.172 2.792l-1.436.91c-1.729-2.076-3.981-3.124-6.7-3.124-2.25 0-4.168.726-5.72 2.196zM58.455 7.592h1.864v17.866h-1.864V7.592zM50.163 8.088l.004.003c1.021.646 1.786 1.54 2.307 2.687.507 1.134.777 2.946.777 5.49v9.187h-1.829v-8.492c0-2.07-.082-3.548-.307-4.372-.21-.797-.515-1.49-.944-2.073a3.964 3.964 0 0 0-1.646-1.323c-.673-.289-1.454-.422-2.337-.422-.93 0-1.825.235-2.696.677l-.004.002a6.726 6.726 0 0 0-2.229 1.867 7.144 7.144 0 0 0-1.285 2.531l-.002.01c-.23.901-.339 2.625-.339 5.107v6.491H37.77V7.596h1.864v3.714l.884-1.054c1.779-2.123 3.846-3.146 6.237-3.146 1.264 0 2.402.325 3.409.978z" fill="#fff" stroke="#fff" stroke-miterlimit="10"/>
</svg>
