<svg width="36" height="36" fill="none" xmlns="http://www.w3.org/2000/svg">
    <path d="M19.125 3.375a4.497 4.497 0 0 0-4.5 4.5h-6.75V13.5a4.497 4.497 0 0 0-4.5 4.5c0 2.487 2.013 4.5 4.5 4.5v5.625h6.75c0 2.487 2.013 4.5 4.5 4.5s4.5-2.013 4.5-4.5h6.75V20.25h-2.25c-1.34 0-2.25-.91-2.25-2.25 0-1.34.91-2.25 2.25-2.25h2.25V7.875h-6.75c0-2.487-2.013-4.5-4.5-4.5zm0 2.25c1.34 0 2.25.91 2.25 2.25v2.25h6.75V13.5a4.497 4.497 0 0 0-4.5 4.5c0 2.487 2.013 4.5 4.5 4.5v3.375h-6.75v2.25c0 1.34-.91 2.25-2.25 2.25-1.34 0-2.25-.91-2.25-2.25v-2.25h-6.75V20.25h-2.25c-1.34 0-2.25-.91-2.25-2.25 0-1.34.91-2.25 2.25-2.25h2.25v-5.625h6.75v-2.25c0-1.34.91-2.25 2.25-2.25z" fill="#151522"/>
    <path d="M3.375 18c0-2.487 2.013-4.5 4.5-4.5v2.25c-1.34 0-2.25.91-2.25 2.25 0 1.34.91 2.25 2.25 2.25v2.25a4.497 4.497 0 0 1-4.5-4.5z" fill="#913AFF"/>
</svg>
