<svg width="36" height="36" fill="none" xmlns="http://www.w3.org/2000/svg">
    <path d="M10.125 18a6.757 6.757 0 0 0-6.75 6.75 6.757 6.757 0 0 0 6.75 6.75 6.757 6.757 0 0 0 6.75-6.75 6.757 6.757 0 0 0-6.75-6.75zm9 1.125V31.5H31.5V19.125H19.125zm-9 1.125c2.482 0 4.5 2.018 4.5 4.5s-2.018 4.5-4.5 4.5a4.504 4.504 0 0 1-4.5-4.5c0-2.482 2.018-4.5 4.5-4.5zm11.25 1.125h7.875v7.875h-7.875v-7.875z" fill="#151522"/>
    <path d="m25.152 4.346-6.94 12.529h13.879L25.15 4.346zm0 4.643 3.12 5.636h-6.24l3.12-5.636z" fill="#913AFF"/>
</svg>
