<svg width="36" height="36" viewBox="0 0 36 36" fill="none" xmlns="http://www.w3.org/2000/svg">
    <path d="M17.375 6c-1.455 0-2.694.95-3.164 2.25H5v2.25h9.21c.471 1.3 1.71 2.25 3.165 2.25s2.694-.95 3.164-2.25H32V8.25H20.54C20.068 6.95 18.83 6 17.374 6zm0 2.25A1.11 1.11 0 0 1 18.5 9.375a1.11 1.11 0 0 1-1.125 1.125 1.11 1.11 0 0 1-1.125-1.125 1.11 1.11 0 0 1 1.125-1.125zM25.25 15c-1.455 0-2.694.95-3.164 2.25H5v2.25h17.086c.47 1.3 1.71 2.25 3.164 2.25 1.455 0 2.694-.95 3.164-2.25H32v-2.25h-3.586c-.47-1.3-1.71-2.25-3.164-2.25zm0 2.25a1.11 1.11 0 0 1 1.125 1.125A1.11 1.11 0 0 1 25.25 19.5a1.11 1.11 0 0 1-1.125-1.125 1.11 1.11 0 0 1 1.125-1.125zM12.875 24c-1.455 0-2.694.95-3.164 2.25H5v2.25h4.71c.471 1.3 1.71 2.25 3.165 2.25s2.694-.95 3.164-2.25H32v-2.25H16.04c-.471-1.3-1.71-2.25-3.165-2.25zm0 2.25A1.11 1.11 0 0 1 14 27.375a1.11 1.11 0 0 1-1.125 1.125 1.11 1.11 0 0 1-1.125-1.125 1.11 1.11 0 0 1 1.125-1.125z" fill="#1D1D1D"/>
    <path fill-rule="evenodd" clip-rule="evenodd" d="M14.31 7.964a3.335 3.335 0 0 1 1.957-1.787 3.301 3.301 0 0 1 1.836-.086 3.301 3.301 0 0 1 1.614.867 3.336 3.336 0 0 1 .998 2.455 3.428 3.428 0 0 1-.308 1.366h-.001a3.336 3.336 0 0 1-1.958 1.786 3.301 3.301 0 0 1-1.83.088 3.3 3.3 0 0 1-1.62-.869 3.336 3.336 0 0 1-.997-2.453L14 9.329a3.43 3.43 0 0 1 .309-1.365zm3.294.304a1.18 1.18 0 0 0-.845.149 1.18 1.18 0 0 0-.504.706 1.171 1.171 0 0 0 .15.85 1.174 1.174 0 0 0 .7.5 1.173 1.173 0 0 0 .856-.15 1.18 1.18 0 0 0 .499-.701 1.176 1.176 0 0 0-.149-.851 1.177 1.177 0 0 0-.707-.503zM22.21 16.964a3.336 3.336 0 0 1 1.957-1.787 3.302 3.302 0 0 1 1.836-.086 3.3 3.3 0 0 1 1.614.867 3.336 3.336 0 0 1 .998 2.455 3.429 3.429 0 0 1-.308 1.366h-.001a3.336 3.336 0 0 1-1.958 1.786 3.301 3.301 0 0 1-1.83.088 3.3 3.3 0 0 1-1.62-.868 3.335 3.335 0 0 1-.997-2.454l-.001-.002a3.43 3.43 0 0 1 .309-1.365zm3.294.304a1.171 1.171 0 0 0-.845.149 1.169 1.169 0 0 0-.504.706 1.172 1.172 0 0 0 .15.85 1.174 1.174 0 0 0 .7.5 1.173 1.173 0 0 0 .856-.15 1.18 1.18 0 0 0 .499-.701 1.17 1.17 0 0 0-.149-.851 1.173 1.173 0 0 0-.707-.503zM9.81 25.964a3.336 3.336 0 0 1 1.957-1.787 3.302 3.302 0 0 1 1.836-.086 3.301 3.301 0 0 1 1.614.867 3.336 3.336 0 0 1 .998 2.455 3.429 3.429 0 0 1-.308 1.366h-.001a3.336 3.336 0 0 1-1.958 1.786 3.301 3.301 0 0 1-1.83.088 3.3 3.3 0 0 1-1.62-.868 3.336 3.336 0 0 1-.997-2.454l-.001-.002a3.429 3.429 0 0 1 .309-1.365zm3.294.304a1.175 1.175 0 0 0-.845.149 1.172 1.172 0 0 0-.504.706 1.172 1.172 0 0 0 .15.85 1.174 1.174 0 0 0 .7.5 1.173 1.173 0 0 0 .856-.15 1.18 1.18 0 0 0 .499-.701 1.176 1.176 0 0 0-.149-.851 1.178 1.178 0 0 0-.707-.503z" fill="#913AFF"/>
</svg>
