<svg width="36" height="36" fill="none" xmlns="http://www.w3.org/2000/svg">
    <path d="m18 3.867-.879 1.055s-2.25 2.711-4.535 6.082c-1.143 1.687-2.32 3.529-3.2 5.309-.878 1.78-1.511 3.484-1.511 5.062C7.875 26.939 12.437 31.5 18 31.5c5.564 0 10.125-4.561 10.125-10.125 0-1.578-.633-3.283-1.512-5.063-.879-1.78-2.056-3.62-3.199-5.308-2.285-3.37-4.535-6.082-4.535-6.082L18 3.867zm0 3.621c.628.778 1.806 2.158 3.586 4.782 1.107 1.63 2.18 3.427 2.988 5.062.809 1.635 1.301 3.146 1.301 4.043 0 4.337-3.538 7.875-7.875 7.875s-7.875-3.538-7.875-7.875c0-.896.492-2.408 1.3-4.043.81-1.635 1.882-3.432 2.99-5.063C16.193 9.646 17.371 8.267 18 7.49z" fill="#151522"/>
    <path d="M17.625 27.225C14.535 27.225 12 24.69 12 21.6h2.25a3.376 3.376 0 0 0 3.375 3.375v2.25z" fill="#913AFF"/>
</svg>
